<?xml version="1.0" standalone="no"?>
<!DOCTYPE svg PUBLIC "-//W3C//DTD SVG 1.1//EN" "http://www.w3.org/Graphics/SVG/1.1/DTD/svg11.dtd" >
<svg>
<metadata>
Created by FontForge 20090914 at Fri Jan  2 14:52:44 2015
 By www-data
Typeface &#194;&#169; Kimberly Geswein. 2007 All Rights Reserved
</metadata>
<defs>
<font id="YouAreLoved" horiz-adv-x="1139" >
  <font-face 
    font-family="You Are Loved"
    font-weight="400"
    font-stretch="normal"
    units-per-em="2048"
    panose-1="2 0 0 0 0 0 0 0 0 0"
    ascent="1638"
    descent="-410"
    x-height="1301"
    cap-height="1773"
    bbox="-13 -403.998 1557 2202"
    underline-thickness="150"
    underline-position="-142"
    unicode-range="U+0020-U+F005"
  />
<missing-glyph horiz-adv-x="1536" 
d="M256 0v1280h1024v-1280h-1024zM288 32h960v1216h-960v-1216z" />
    <glyph glyph-name=".notdef" horiz-adv-x="1536" 
d="M256 0v1280h1024v-1280h-1024zM288 32h960v1216h-960v-1216z" />
    <glyph glyph-name="space" unicode=" " horiz-adv-x="569" 
 />
    <glyph glyph-name="space" unicode="&#xa0;" horiz-adv-x="569" 
 />
    <glyph glyph-name="exclam" unicode="!" horiz-adv-x="569" 
d="M135 1712l112 -6.99902l35 7l28 -7l21 7l63 -7h84v-28l-7 -7l7 -7v-7l-14 -336l-14 -21l7 -49v-77c0 -46.667 -4.66699 -70 -14 -70l7 -35c-4.66699 -205.333 -14 -308 -28 -308l14 -42l-7 -105h7l-7 -7v-56c0 -88.667 -11.667 -133 -35 -133l-28 -7l7 -7v-7l-14 -14
h-203l-21 14l-28 672l7 7v7l-14 182c34 15.333 52.667 31.666 56 48.999h-14v-14h-14c-23.333 10.667 -35 34 -35 70v7l14 49c20 -18.667 38.667 -28 56 -28l7 7h7l-7 7v7c0 9.33301 28 16.333 84 21l-7 21h-21l-7 -7h-7v7l-49 -14l-14 21l14 14h119l7 21l-7 7l-28 -7l-21 7
l-35 -7c-70 0 -105 7 -105 21v35h49v21c-37.333 7.33301 -56 21.333 -56 42l7 7v7l-14 35c0 28 18.667 42 56 42zM163 1495h14v-7h-14v7zM107 1481h14v-28h-7l-7 7h-7zM268 1439l35 -14l42 7v7c0 9.33301 -16.333 14 -49 14v7c-18.667 -6.66699 -28 -13.667 -28 -21z
M373 1432h14v14zM205 1117v-28l28 -28h7v14c0 24 -7 38 -21 42h-14zM177 1096v-21h14v21h-14zM352 1061h28v14h-14zM198 781.001h14v14zM219 424.001v-14h14v14h-14zM128 305.001h301l21 -21v-70c0 -23.333 -4.66699 -35 -14 -35l14 -42v-168l-21 -21h-280
c-28 0 -42 16.333 -42 49l7 154l-7 140zM324 256.001l7 -7h7l28 7v14h-28zM233 179.001v-14h77v14h-77zM247 144.001l-7 -21h14v-7l35 21v7h-42z" />
    <glyph glyph-name="quotedbl" unicode="&#x22;" horiz-adv-x="682" 
d="M77 1588h179l21 -21v-287l-7 -35h-57l7 -42c38 -31.333 57 -85 57 -161l-14 -21l-64 28c-119.333 60 -179 193 -179 399l7 140l22 7zM409 1561h179l21 -21v-287l-7 -35h-57l7 -42c38 -31.333 57 -85 57 -161l-14 -21l-65 28c-118.667 60 -178 193 -178 399l7 140l21 7z
" />
    <glyph glyph-name="numbersign" unicode="#" horiz-adv-x="1278" 
d="M512 1563l27.999 -7h14l7 7l7 -7h42l7 -21c-13.333 -51.333 -25 -77 -35 -77l7 -35l-42 -280h7l35 -7l84 7h175c16 0 34.667 88.667 56 266c17.333 98 33.666 147 48.999 147l21 7c56 -3.33301 84 -8 84 -14l7 7h21l14 -14c-8 -70 -17.333 -105 -28 -105l7 -7v-7
c-12 -88.667 -21.333 -133 -28 -133l7 -7v-7l-21 -70h7l-7 -7v-56h126l21 -21v-168l-21 -21h-154c-12.667 0 -33.667 -105 -63 -315v-7h14v-7l7 7h49l70 -7l42 7c37.333 -2.66699 56 -9.66699 56 -21v-168l-21 -21h-252c-46.667 -264.667 -74.667 -402.334 -84 -413.001
h-140l-21 14l70 399h-140l-7 -7l-7 7h-161c-43.333 -253.333 -71.333 -391 -84 -413h-140l-21 14l70 371c-9.33301 21.333 -18.666 33 -27.999 35l-21 -14l-7 7h-91l-7 35v154l21 21h161c12.667 0 33.667 107.333 63 322h-224c-11.333 0 -18.333 9.33301 -21 28l7 63h-7l7 7
v7l-7 77v7c0 12 28 19 84 21l28 -7l77 7h91c38.667 220.667 64.334 344.334 77.001 371.001l-7 21l7 21h35zM539.999 1465v-21h14v7zM455.999 611l7.00098 -7l42 7l63 -7v7l7 -7h7l70 7l56 -7v7l7 -7h7c42 0 63 25.667 63 77l42 231l-14 21l-56 7l-49 -7l-28 7l-77 -7h-28
l-42 7c-24.667 0 -50.334 -109.667 -77.001 -329z" />
    <glyph glyph-name="dollar" unicode="$" 
d="M476 1841l132.999 0.000976562c11.333 0 18.333 -18.667 21 -56l-7 -56h7l-7 -7v-28c54 0 107.667 -18.667 161 -56v-7h-35v-7h49c0 -14 4.66699 -21 14 -21l-7 -7v-7l14 -14l35 7l7 -7v-7l-14 -14h-35l14 -77h14l7 28h14v-21h14l14 42c46.667 -58 70 -139.667 70 -245
l7 -21c-4.66699 -56 -14 -84 -28 -84h-84l-70 7l-7 -7v7l-7 -7h-70l-28 7l-28 -7h-35l-14 14v42c0 23.333 7 35 21 35v49l-7 -7h-7l-7 7h-7l14 63h-14v21h7v-14h21v35h42v14l-7 35l7 7h21l21 -7v7l7 21l-7 7h21l7 -28l-7 -49h14l7 7h7l-7 49v14l7 7l-7 42h-14l-7 -35h-21
c0 28 -4.66699 42 -14 42s-14 -14 -14 -42h-14l7 35l-21 14l-56 -42v-35l14 -14l14 28h-7l7 21h7l21 -56c0 -9.33301 -18.667 -16.333 -56 -21v-21l7 -7v-7h-7c-9.33301 0 -18.666 18.667 -27.999 56l7 28c0 18.667 -11.667 28 -35 28l-28 70h-21v-7h14l-7 -7l7 -21l-14 -35
l7 -7l-7 -7h-7c0 28 -4.66699 42 -14 42h-21v-21h-7c0 14 -7 21 -21 21l-7 -7v-21h35v-7h-14v-7c18.667 -2 28 -18.333 28 -49c0 -14 -11.667 -21 -35 -21l7 -21l-7 -35v-28h7c9.33301 0 14 14 14 42l21 -21v-126c0 -36.667 30.333 -85.667 91 -147l7 -35l-21 14h-7l-7 -42
h35l14 -14l-14 -21v-7l21 -7l14 70l-21 21v7h7c256.667 -172 385 -307.333 385 -406c23.333 -74 35 -139.333 35 -196c0 -278 -81.667 -448.333 -245 -511l-7 7c0 -22 -39.667 -40.667 -119 -56l-21 -84l14 -56v-21h-21l-7 7l-42 -14h-77l-21 21v98l7 7
c-4.66699 37.333 -11.667 56 -21 56h-7l-7 -7c-118 37.333 -204.333 98 -259 182c-42 76 -63 162.333 -63 259v28h35v49h-14c-3.33301 -23.333 -10.333 -35 -21 -35l-7 7v56l-7 70l21 14h217l77 -7l42 7l14 -21l-7 -21l7 -84v-140c6.66699 -74.667 23 -112 49 -112
c52.667 0 83 42 91 126c0 144.667 -23.333 242.667 -70 294c-98 76 -147 122.667 -147 140v14h-14v-14h-7c-182 111.333 -273 284 -273 518v35c0 187.333 93.333 315.666 280 384.999l84 14v126zM706.999 1631l7 -21h21l7 21h-35zM349.999 1589v-28h7l14 14zM461.999 1589
v-14l14 14h-14zM720.999 1589v-14h21l21 7v-7l7 -7l-7 -7v-21l7 -35h7l21 21l-14 42l7 21h-70zM307.999 1540l7 -21h21v42h-7zM846.999 1526h14v-14h-14v14zM524.999 1505h14v-35l7 -7v-7h-21v49zM475.999 1477l21 -7v-7l-14 -14l-7 7v21zM811.999 1456v-21l21 -7l7 7v14
l-7 7v7zM769.999 1456v-28h21v28h-21zM433.999 1428h14v-21h-14v21zM727.999 1407c0 -9.33301 -9.33301 -14 -28 -14l-7 -7v-7l35 -14l21 7v14zM342.999 1358l-20.999 -70c9.33301 -28 18.666 -42 27.999 -42l14 21v14l-7 7l7 49l7 -7h14v28l-7 -7h-7zM700 1358v-14h7v14h-7
zM301 1309v-49h7v49h-7zM427 1281v-21h7v21h-7zM749 1246v-14l14 -14h14v7l-21 21h-7zM427 1239v-21h14l-7 21h-7zM350 1141l7 -7h7v21zM357 1085l-14 -21l14 -14h21v14zM483 1043v-7h14v-7l21 7l-21 21zM532 994.001v-14h21v28h-7zM434 952.001l28 -14l14 14h7
c9.33301 0 14 -7 14 -21h21v42l-21 7l-7 -21c-11.333 0 -18.333 9.33301 -21 28h-7zM455 924.001l-7 -7v-35h21v14h7c-6.66699 18.667 -13.667 28 -21 28zM504 917.001v-7l7 -35h7v42h-14zM413 889.001v-14h-7l7 -21h7l14 14v21h-21zM371 882.001v-7l-7 -84l7 -7h14v98h-14z
M511 721.001v-14h14v14h-14zM658 511.001l-7 -7v-7h21zM819 224.001v-14h14v14h-14zM777 182.001v-35h14v35h-14zM819 175.001v-14l14 14h-14zM777 84.001v-7l7 -7v-7h-7l7 -42l21 21l-14 42h-14zM735 42.001l7 -21h7v35zM518 35.001v-21h14v7zM476 -111.999v-28h7l14 14v14
h-21zM574 -160.999v-7h14v7h-14z" />
    <glyph glyph-name="percent" unicode="%" horiz-adv-x="1334" 
d="M337 1667c177.333 0 266.002 -107.333 266.002 -322l7 -140c0 -289.333 -28 -434 -84 -434c0 -22.667 -56 -46 -168 -70l-7 7h-28c-126.667 0 -208.334 58.333 -245.001 175l-14 161v91l7 322l28 49l-7 7v7c39.333 98 111.666 147 216.999 147h28zM1023 1667v-7
l-567 -1813l-7 -7h-112l-14 14l567 1806l7 7h126zM295.002 1443v-301l7 -7l-7 -7v-7l7 -245l21 -14h21c18.667 6 28 27 28 63v546c0 28 -14 42 -42 42c-23.333 -6.66699 -35 -30 -35 -70zM995.002 820h7.00098c127.333 0 213.666 -53.667 258.999 -161
c14 -64 21 -141 21 -231v-196l-7 -28l7 -7v-7c0 -152 -39.667 -252.333 -119 -301c-48 -23.333 -106.333 -35 -175 -35c-32.667 3.33301 -49 10.333 -49 21l-21 -7c-112 40 -168 105.333 -168 196l-14 413c0 228.667 86.333 343 259 343zM974.003 638v-602l21 -21h28
c14 4.66699 21 18.667 21 42v560c0 24 -7 38 -21 42h-28z" />
    <glyph glyph-name="ampersand" unicode="&#x26;" horiz-adv-x="1141" 
d="M463 1468l34.999 -0.000976562c162 0 269.333 -88.667 322 -266c9.33301 -18.667 16.333 -60.667 21 -126c0 -81.333 -37.333 -186.333 -112 -315c68 -177.333 112.333 -266 133 -266l175 133l14 -14v-245c0 -18.667 -32.667 -53.667 -98 -105v-7l112 -280l-7 -7h-287
c-30 0 -53.333 28 -70 84h-21c-125.333 -84 -225.666 -126 -300.999 -126c-147.333 0 -250 88.667 -308 266c-14 50 -23.333 108.333 -28 175c0 162.667 65.333 279.334 196 350.001v7c-88.667 93.333 -133 200.666 -133 321.999v21c0 180.667 74.667 304.334 224 371.001
c46.667 18.667 91 28 133 28zM420.999 1139c0 -68.667 21 -129.333 63 -182h21c13.333 0 27.333 46.667 42 140v49c0 40 -16.333 68 -49 84h-35c-18.667 0 -32.667 -30.333 -42 -91zM413.999 922v-7l7 -35l-7 -28c4 -42 11 -63 21 -63v56l-7 42l7 7v7l-7 21h-14z
M756.999 901l-7 -7v-7h35v7zM567.999 880c2.66699 -28 9.66699 -42 21 -42v42h-21zM371.999 845l7 -7h14v21h-7zM392.999 754l-7 7v-28c0 -9.33301 9.33301 -14 28 -14l7 -7v-7l-7 -28h7c10 0 17 21 21 63l-7 28zM462.999 740l14 -49l14 14l-7 35h-21zM385.999 684l-7 -21
l7 -7l21 7v21l-7 -7h-7zM476.999 670v-7h14v7h-14zM434.999 488c-32.667 -54 -49 -98.333 -49 -133c0 -88.667 25.667 -133 77 -133h7c49.333 0 82 18.667 98 56l-112 210h-21z" />
    <glyph glyph-name="quotesingle" unicode="'" horiz-adv-x="455" 
d="M122 1489h238v-147l7 -42c0 -177.333 -72.333 -301 -217 -371h-21l-14 14v70c0 13.333 18.667 46 56 98l7 28c-42 6.66699 -63 16 -63 28l7 140h-7l7 7v7l-7 140z" />
    <glyph glyph-name="parenleft" unicode="(" horiz-adv-x="682" 
d="M406 1645l139.999 -0.000976562l21 -21v-84l-7 -77l7 -35l-21 -14h-49c-46.667 0 -70 -39.667 -70 -119v-364l-14 -49l14 -42v-7l-21 -42l14 -14v-63c0 -23.333 -4.66699 -35 -14 -35l14 -42v-77l7 -7l-14 -28l14 -42l-42 -14v-7l28 -7v-7l-21 -28
c23.333 -4.66699 35 -14 35 -28v-14h-7l7 -49v-105l7 -35l-35 -7v-14c28.667 0 47.334 -14 56.001 -42c51.333 -4.66699 77 -11.667 77 -21l7 7h21l7 -70v-14l-14 -56l14 -42v-21c0 -14 -42 -21 -126 -21h-21c-151.333 0 -249.333 39.667 -294 119
c-18.667 54.667 -28 115.334 -28 182.001v273l-7 21l7 35v322l-7 112l7 28l-7 35l7 42v14h-7l7 70v210c0 128.667 32.667 212.667 98 252c65.333 28 135.333 42 210 42zM132.999 797.999v-21h7v21h-7zM230.999 790.999v-7h14v7h-14zM167.999 706.999v-14l21 -7v28z
M230.999 706.999l-7 -7.00098v-7l14 -14c-8 0 -15 -11.667 -21 -35c-18.667 4.66699 -28 16.334 -28 35.001h-14v-14l7 -7v-7h-14v-21l14 -14l35 7l21 -28l-7 -7l7 -21h14v7l-7 35c7.33301 0 14.333 9.33301 21 28c-10 0 -17 21 -21 63l-7 7h-7zM132.999 685.998v-49l14 -14
v63h-14zM335.999 573.998v-14h7l14 14h-21zM237.999 531.998v-14.001h-7l7 -7v-21l-14 -21v-7c0 -25.333 9.33301 -41.666 28 -48.999l14 42h7v21c-14 0 -21 4.66699 -21 14v42h-14zM174.999 461.997c7.33301 -18.667 14.333 -28 21 -28c10.667 0 17.667 11.667 21 35l-7 7
h-21zM335.999 461.997v-7l42 7v14h-28zM335.999 426.997v-14h7l21 7v21h-14zM349.999 286.997l7 -7h7v21zM342.999 258.997v-21h7l14 14zM342.999 181.997v-14h21v14h-21z" />
    <glyph glyph-name="parenright" unicode=")" horiz-adv-x="617" 
d="M121 1684c275.333 0 413.001 -60.667 413.001 -182l14 -49l-7 -28l14 -84l-7 -77v-21l7 -126l-7 -63l7 -28l-7 -42l7 -7v-7l-7 -7l7 -84v-546c0 -212.667 -30.333 -331.667 -91 -357c-54.667 -37.333 -129.334 -56 -224.001 -56h-140l-21 21v189l21 21h49
c46.667 0 70 28 70 84v1106c-2.66699 70 -19 105 -49 105h-70l-21 21v126c0 60.667 11.667 91 35 91h7z" />
    <glyph glyph-name="asterisk" unicode="*" horiz-adv-x="797" 
d="M387 921l112 -0.000976562l7 -35l-7 -35v-98h28c44.667 28 77.334 42 98.001 42c16 0 30 -42 42 -126h-7c-74.667 -34.667 -112 -55.667 -112 -63v-14c46.667 -75.333 70 -119.666 70 -132.999l-84 -70h-7c-18.667 48 -44.334 90 -77.001 126h-7l-91 -126
c-26.667 16 -54.667 41.667 -84 77v7c46.667 64 70 110.667 70 140l-126 70l35 112l133 -42l7 7v63l-7 77zM415 668.999v-14h14v14h-14z" />
    <glyph glyph-name="plus" unicode="+" horiz-adv-x="1196" 
d="M519 1317l189 -7l14 -21v-70l-7 -63l7 -70v-91l-7 -70h308l21 -21v-231l-21 -21h-294l-14 -14l7 -308v-28c0 -28 -14 -42 -42 -42h-105c-51.333 0 -77 7 -77 21v371h-273l-7 7l-7 -7h-14l-21 21v231l14 21l7 -7l56 7l91 -7l154 7v371z" />
    <glyph glyph-name="comma" unicode="," horiz-adv-x="569" 
d="M347 362l21 -7l7 -140c0 -206 -58.333 -339 -175 -399l-63 -28l-14 21c0 76 18.667 129.667 56 161l7 42h-56l-7 35v287l21 21h175z" />
    <glyph glyph-name="hyphen" unicode="-" horiz-adv-x="682" 
d="M97 861l56 -7l28 7l35 -7l7 7h7l7 -7l84 7h203l35 -7l7 -105v-175l-21 -21h-287l-42 7l-28 -7l-7 28h-14c0 -18.667 -4.66699 -28 -14 -28l-7 7h-7l-35 -7l-14 21v203l-7 70zM251 826v-70c0 -9.33301 -9.33301 -14 -28 -14l-7 -21l7 -7l7 7h7l28 -21l14 42l-7 7h-7l7 21
l-7 56h-14zM209 588v-21h14v21h-14z" />
    <glyph glyph-name="hyphen" unicode="&#xad;" horiz-adv-x="682" 
d="M97 861l56 -7l28 7l35 -7l7 7h7l7 -7l84 7h203l35 -7l7 -105v-175l-21 -21h-287l-42 7l-28 -7l-7 28h-14c0 -18.667 -4.66699 -28 -14 -28l-7 7h-7l-35 -7l-14 21v203l-7 70zM251 826v-70c0 -9.33301 -9.33301 -14 -28 -14l-7 -21l7 -7l7 7h7l28 -21l14 42l-7 7h-7l7 21
l-7 56h-14zM209 588v-21h14v21h-14z" />
    <glyph glyph-name="period" unicode="." horiz-adv-x="569" 
d="M185 344l84 -7v7l7 -7h7l49 7c60.667 -3.33301 91 -10.333 91 -21v-322l-21 -21h-238l-21 21v301c0 28 14 42 42 42z" />
    <glyph glyph-name="slash" unicode="/" horiz-adv-x="769" 
d="M543 1806l28 -6.99902l21 7l7 -7h7l56 7l77 -7c-81.333 -373.333 -130.333 -560 -147 -560v-56c0 -24.667 -7 -45.667 -21 -63v-7l7 -7c-168 -718 -259 -1093.67 -273 -1127l-28 -7h-224l-14 14c247.333 1059.33 394.333 1663.67 441 1813zM550 1365v-91l14 14v77h-14z
M550 1183v-14l14 -14v28h-14z" />
    <glyph glyph-name="zero" unicode="0" horiz-adv-x="953" 
d="M458 1763l7 0.000976562c135.333 -8 203 -29 203 -63l35 7c140 -74 210 -228 210 -462v-154l7 -7c-8 -32.667 -15 -49 -21 -49l14 -42v-7l-7 -35l7 -42v-35c0 -24 -7 -38 -21 -42l7 -49v-112l14 -21l-7 -42l7 -7v-7l-7 -21l14 -56l-7 -28v-14h7
c-15.333 -211.333 -41 -328 -77 -350c0 -34 -49 -83 -147 -147h-14c-9.33301 0 -16.333 18.667 -21 56h-7l-7 -7v-7l7 -42c0 -28 -56 -42 -168 -42h-42c-16.667 0 -35.334 9.33301 -56.001 28l-14 -14c-9.33301 0 -14 14 -14 42h-21c0 -18.667 -4.66699 -28 -14 -28
c-75.333 22 -133.666 66.333 -174.999 133c-60.667 96.667 -91 208.667 -91 336l7 7v7l-7 147v35c1.33301 32.667 6 49 14 49l-14 42l7 56l-7 21h7l-7 21l7 21h-7l14 35l-14 14v77l7 49h-7l7 7v7l-7 154c4.66699 140 11.667 210 21 210h-7l21 35v49
c0 81.333 60.667 160.666 182 237.999c63.333 28 105.333 42 126 42l14 -14c4.66699 14 18.667 21 42 21zM409 1735v-14h7v14h-7zM290 1658l21 -7c15.333 4.66699 24.666 14 27.999 28l-21 7c-15.333 -4.66699 -24.666 -14 -27.999 -28zM710 1637v-14l14 -14h7v42h-7z
M626 1644v-14h-7l7 -21l14 14v7zM367 1630v-14h14v14h-14zM759 1616v-7h14v21zM626 1602v-21h7v21h-7zM192 1595v-21h14v21h-14zM458 1581l7 -49h14v56h-7l-7 -7h-7zM745 1539l-7 7.00098h-7l-14 -14v-21l7 -70l7 7h7l-7 7v14c0 25.333 9.33301 41.666 28 48.999h7v-28l7 7
h7l-7 21l14 21l-14 35h-7c-8 0 -15 -11.667 -21 -35zM108 1490l21 -21v35h-7zM290 1490v-7h14v21zM332 1504v-21h56v21h-56zM423 1497l-6.99805 -7v-7l7 -7h-7l14 -84l-14 -84l14 -126l-14 -84l14 -42v-14c-14 -12 -21 -26 -21 -42h-7l21 -175l-7 -21l7 -77v-105l-14 -14
l-7 7h-7l-21 -7l14 -21v-35l-7 -7l7 -7v-14c0 -23.333 -4.66699 -35 -14 -35l14 -35l-7 -21h-7l-7 7h-7l-7 -49v-7h14l21 14l42 -98l-21 -21c15.333 -36.667 31.666 -60 48.999 -70h49c19.333 10 35.666 31 48.999 63l-7 35l7 49l-7 7v7l7 7v7l-7 42l7 42l-7 175v21l7 77
l-7 28l14 21l-7 35v14h7l-7 35v98l7 28l-14 70l7 35v42l-7 28l7 7v7l-7 98l7 21l-7 7v7l7 21l-7 49l7 28c-11.333 51.333 -37 77 -77 77l-42 -14zM682.002 1497v-35l14 -14h7v14l-7 35h-14zM381.002 1427v-7l14 -14l7 7v14h-21zM773.002 1427l0.000976562 -7
c29.333 0 45.666 -18.667 48.999 -56h14v49l-14 14h-49zM339.003 1357v-49h-14l-21 14l-7 -7v-21l14 -49h14v14l-7 7l7 35h14l7 -28h14v49l-7 35h-14zM605.003 1329v-7h14v21zM87.0029 1315v-56h21l-7 28l7 21l-7 7h-14zM171.003 1301h14v14zM388.003 1315v-14l14 -14l7 21
l-7 7h-14zM178.003 1280v-21h7v21h-7zM262.003 1245v-91h14v7l-7 21l14 14v14l-7 49zM87.0029 1231v-49l14 -14l14 14c-4.66699 32.667 -11.667 49 -21 49h-7zM871.003 1224v-21h7v21h-7zM703.003 1140c0 -14 -11.667 -21 -35 -21c0 -18.667 -14 -28 -42 -28v-49l7 7h7l-7 7
v14h14l21 -14h14l7 28l21 -7v-14l-7 -70l7 -42l-7 -7l7 -7h7l14 70l-14 28l7 42h-7l7 7v42l-14 14h-7zM276.003 1056l-7 -7v-7l14 -14h14v7zM850.003 1056v-7l14 -14h7v21h-21zM759.003 1049v-7l14 -14h7v21h-21zM801.003 1007v-14l7 -7v-7l21 7v7l-14 28zM367.003 1014v-91
l28 21l-7 35l7 21zM626.003 1007v-21h14v21h-14zM745.003 1007v-21h21l14 14l-7 7h-28zM318.003 930.002l7 -7h-7l7 -21h21v98h-7c-10.667 0 -17.667 -23.333 -21 -70zM675.003 1000v-14h7v14h-7zM759.003 965.002l-7 -21h28v21h-21zM808.003 951.002v-7h21v7h-21z
M290.003 916.002v-14h7v14h-7zM241.003 902.002v-14h14v14h-14zM682.003 839.002v-14h14v14h-14zM864.003 832.002l-7 -7v-7l14 -175h7v175zM318.003 790.002l28 -14v35h-7zM633.003 797.002l14 -14l7 7v7h-21zM815.003 783.002l14 -14v28zM80.0029 783.002l-7 -35l7 -7h7
l7 21l-7 21h-7zM192.003 762.002l21 -112l-7 -7h-7c4.66699 -32.667 11.667 -49 21 -49l7 7v7l-7 119l7 28l-7 21h-7zM115.003 755.002l-7 -42l14 -14l-7 -28h21l-7 84h-14zM157.003 741.002l14 -14l14 21v7h-14zM815.003 741.002v-7h14v21zM80.0029 734.002v-7l14 -14l7 7
v7l-7 7h-14zM822.003 706.002v-98h14l-7 21l7 21l-7 42l7 7l-7 7h-7zM717.003 692.002l-7 -21c14 0 21 -9.33301 21 -28h21v7c0 24 -7 38 -21 42h-14zM80.0029 685.002v-56l7 -7v-7l7 7h14l7 -7h7l-7 -7v-21h28v35l-7 35h-7l-21 -14h-7l-7 42h-14zM339.003 664.002l-7 -21
l-84 14l-7 -21h14l-7 -35l7 -7l21 14l-7 21h7c14 0 28 -9.33301 42 -28l35 -7l7 7v7l-14 21l7 28l-7 7h-7zM87.0029 608.002v-21h21v7l-14 14h-7zM409.003 601.002h7v-28h-14v7zM339.003 538.002v-21h7l14 14v7h-21zM206.003 503.002l7 -7v-21l-7 -49l28 -7v7l-7 84h-7
l-7 -7h-7zM269.003 489.002v-14l7 -7l-7 -7v-28l7 -7l-7 -7v-21l14 -14l7 7v21l-7 7l7 7l-7 49v14h-14zM794.003 468.002l7 -7h42v14l-14 14h-14zM801.003 412.002v-14h14v14h-14zM416.003 230.002v-28h7v28h-7zM605.003 97.002v-14h14v14h-14zM339.003 34.002v-21h14v7z
M507.003 20.002l14 -14l14 14l-14 14z" />
    <glyph glyph-name="one" unicode="1" horiz-adv-x="741" 
d="M453 1632l196 -0.000976562l7 -21l7 -588c0 -65.333 -4.66699 -98 -14 -98l7 -35v-175l7 -7l-7 -7v-7l7 -189l-7 -70l7 -42l-7 -210l7 -294l-21 -14h-287c-36 0 -57 9.33301 -63 28v98l7 42l-7 70v560c0 23.333 7 35 21 35v21c-14 0 -21 9.33301 -21 28v14h7l-7 49v161
c0 107.333 -32.667 161 -98 161l-98 7h-21c-10.667 0 -17.667 11.667 -21 35l7 49l-14 84c0 34.667 44.333 60.334 133 77.001c92 48.667 183 128 273 238zM614 1492v-21l14 14l-7 7h-7zM614 1464v-21h14v21h-14zM390 1422v-14h14v14h-14zM502 1002v-14h14v14h-14z
M558 924.999l-7 -7v-7l14 -14h7v14zM341 770.999v-21l14 14l-7 7h-7zM341 119.999v-21h7v21h-7zM341 84.999v-42c9.33301 0 14 7 14 21l-7 21h-7zM474 70.999v-42l14 -14v56h-14zM481 -6.00098v-21h14l-7 21h-7zM481 -34.001v-28h7v28h-7z" />
    <glyph glyph-name="two" unicode="2" horiz-adv-x="941" 
d="M452 1772c206.667 0 346.667 -86.335 420 -259.002c23.333 -80 35 -152.333 35 -217c0 -191.333 -142.333 -522.666 -427 -993.999v-21h84l21 -7l35 7h231l21 -21v-259l-21 -21h-756l-21 21v98l-7 42l7 35l-7 7v7c0 20.667 109.667 251.667 329 693
c107.333 212.667 161 364.334 161 455.001v63c0 46 -18.667 78.667 -56 98h-42c-37.333 0 -56 -81.667 -56 -245l-7 -105l-21 -14h-231c-40 0 -65.667 7 -77 21l21 56l-14 42v42c0 242 88.667 396 266 462zM592 259.998v-14h7v14h-7zM410 238.998l-7 -21l7 -7h14v7l-7 21h-7
zM592 224.998v-14h7v14h-7zM508 196.998l-14 -35h28l-7 35h-7zM368 189.998v-21h14v7zM319 182.998l-7 -21l7 -7h7l14 14z" />
    <glyph glyph-name="three" unicode="3" horiz-adv-x="961" 
d="M414 1691l112 0.000976562c96 0 184.667 -30.333 266 -91c46.667 -44 70 -107 70 -189h7v28c21.333 0 35.333 -60.667 42 -182v-77c0 -120.667 -46.667 -214 -140 -280v-7c98 -48 147 -146 147 -294l7 -196l-7 -56l7 -28c0 -133.333 -39.667 -250 -119 -350
c-68.667 -70 -180.667 -105 -336 -105c-64 0 -124.667 14 -182 42l7 21c-6.66699 18.667 -13.667 28 -21 28l-7 -35h-14c-82.667 56 -136.334 126 -161.001 210l7 7c-23.333 84 -35 233.333 -35 448l21 14h252l42 -7l35 7l21 -21l-7 -21l7 -84v-56l-7 -77l7 -7v-7l-7 -7
c6 -126 15.333 -189 28 -189c65.333 0 98 23.333 98 70c0 65.333 4.66699 98 14 98l-7 28l7 105l-7 112l7 7v7c-18.667 107.333 -56 161 -112 161v7l-7 -7c-70 0 -105 21 -105 63v182l21 21h56c93.333 0 140 42 140 126l7 35v140l-7 7l7 7v7l-21 126
c-9.33301 -9.33301 -39.666 -16.333 -90.999 -21l-42 -140c7.33301 0 14.333 -9.33301 21 -28l-7 -7h7l-7 -7v-98l-21 -21h-77c-23.333 0 -35 4.66699 -35 14l-21 -14l-7 7h-14l-28 -7l-7 7h-7l-77 -7l-28 14l-28 -7c-9.33301 29.333 -14 73.666 -14 132.999
c0 294 116.667 441 350 441zM715 1530v-35l14 -14l7 7v35zM680 1488v-14h7v14h-7zM582 1481l-7 -7l7 -63l21 14c-2.66699 37.333 -9.66699 56 -21 56zM533 1446v-7h14v7h-14zM778 1418v-14l14 -14v28h-14zM645 1208v-21h7v21h-7zM449 774.001v-28h7v28h-7zM750 319.001v-14
h7v14h-7zM659 256.001v-14h14v14h-14zM169 172.001v-56h14v42zM400 95.001v-14h14v28zM358 95.001v-28h7v28h-7zM176 18.001v-21h14v7zM260 18.001v-14l14 -14v14zM316 11.001l-7 -7v-14l14 -14l7 7v14z" />
    <glyph glyph-name="four" unicode="4" horiz-adv-x="1001" 
d="M576 1684l34.999 -7l126 7l105 -14l7 -28v-1099l14 -14h70l21 -21v-217c0 -36 -9.33301 -57 -28 -63h-7l-28 7l-42 -7v-287l-21 -21h-322l-21 21v14h7l-7 84v119l7 7l-7 7v56h-308l-42 7l-35 -7h-28l-21 21v196l7 7l-7 7v21c18.667 106 102.667 425.667 252 959h35
l-14 42l7 7h-7c18.667 102 35 165 49 189c40.667 -4.66699 66.334 -11.667 77.001 -21l14 14h42c46.667 0 70 4.66699 70 14zM442.999 1565v-21h14v7zM505.999 1544v-35h7v35h-7zM743.999 1299v-35l14 -14v49h-14zM330.999 529l154.001 0.000976562v693
c-12.667 0 -52.334 -170.333 -119.001 -511c-23.333 -90.667 -35 -151.334 -35 -182.001zM618 1180v-21l14 14v7h-14zM730 641.001c9.33301 -14 14 -32.667 14 -56h14v77h-14c-9.33301 0 -14 -7 -14 -21z" />
    <glyph glyph-name="five" unicode="5" horiz-adv-x="985" 
d="M141 1679l21 -7l42 7l140 -7l49 7l21 -7l21 7l84 -7h231l7 7l7 -7h91l14 -14v-77l7 -175l-21 -14h-133l-7 7l-7 -7h-287l7 -175v-98h14c56 65.333 126 98 210 98c164 0 257.333 -109.667 280 -329l14 -126l-7 -7v-7l7 -77v-14l-7 -56l7 -77
c0 -312.667 -44.333 -494.667 -133 -546c-72 -65.333 -167.667 -98 -287 -98h-28c-224 0 -359.333 114.333 -406 343c-14 67.333 -21 151.333 -21 252v84l21 21h308l35 -7l7 -105v-182c0 -88.667 23.333 -133 70 -133c42 0 63 42 63 126l7 70l-7 70v28l7 56l-7 77v252
c0 74.667 -23.333 112 -70 112c-42 0 -63 -44.333 -63 -133c-4.66699 -18.667 -18.667 -28 -42 -28h-287l-35 7l7 728l7 56l-7 7c0 60.667 11.667 91 35 91z" />
    <glyph glyph-name="six" unicode="6" horiz-adv-x="969" 
d="M472 1691l55.999 -0.00195312c74.667 0 112 -11.667 112 -35h-7l7 -21h21v28c81.333 0 158.333 -67.667 231 -203c28 -93.333 42 -179.666 42 -258.999l-21 -14h-329l-21 21v140c0 30 -16.333 53.333 -49 70h-42c-28 -16 -42 -37 -42 -63v-105l-7 -133l7 -112v-28h7
c60.667 63.333 121.334 98.333 182.001 105c140.667 0 238.667 -77 294 -231c14 -75.333 21 -173.333 21 -294v-49c0 -319.333 -42 -496.666 -126 -531.999c-62 -74.667 -169.333 -112 -322 -112c-186.667 0 -315 84 -385 252c-28 45.333 -42 173.666 -42 384.999v644
c0 282.667 86.333 455.334 259 518.001c68 18.667 119.333 28 154 28zM590.999 1565v-14h21v14h-21zM590.999 1488l21 -14h21v14l-14 14h-14zM422.999 584.998l7.00098 -21l-28 -91v-14l7 7h14v-14h7l-7 -7v-133c3.33301 -116.667 19.666 -175 48.999 -175h21
c40.667 0 64 30.333 70 91v217l7 210c0 98 -23.333 147 -70 147h-28c-32.667 0 -49 -72.333 -49 -217zM290 213.998h14v14z" />
    <glyph glyph-name="seven" unicode="7" horiz-adv-x="837" 
d="M187 1632h21l77 -7l7 7l49 -7h70l126 7l70 -14l63 14l98 -7l7 -35v-315l-7 -7l7 -7v-7l-35 -154h7l-63 -343h-21v14h-14l7 -7v-7h-35c0 18.667 -4.66699 28 -14 28l-28 -14v14h-7l-14 -14v-7c18.667 -2 28 -9 28 -21l-14 -14v-14l21 -7l56 14h7l7 -35v-42l-7 -42l7 -21
l-126 -707l-7 -7h-329l-21 14l161 875c9.33301 0 14 9.33301 14 28h-7l49 56l-7 7l-7 -7h-14l-7 7h-7l77 462h-161l-7 7l-7 -7h-161l-21 21v28l7 56l-7 77v98l7 35zM530 1268v-7l35 -7l7 7v7h-42zM551 799v-7h7c37.333 2.66699 56 9.66699 56 21v28h-7zM474 834v-28h14v28
h-14zM516 778v-14h21v14h-21zM425 722c0 -28 14.001 -42 42.001 -42h28v77h-14c-24.667 -23.333 -43.334 -35 -56.001 -35zM530.001 743v-14h21v14h-21z" />
    <glyph glyph-name="eight" unicode="8" horiz-adv-x="965" 
d="M555 1744c100.667 0 189.334 -44.333 266.001 -133c56 -82 84 -184.667 84 -308v-63c0 -128 -46.667 -223.667 -140 -287v-7c102.667 -47.333 154 -189.666 154 -426.999v-105c0 -258.667 -81.667 -415 -245 -469l-70 -14l-7 7v7l7 63l-7 28h-7
c0 -9.33301 -11.667 -14 -35 -14v-63l-14 -28c-14 0 -21 7 -21 21h-14l-7 -28h-105l-49 14v-7c-102.667 31.333 -177.334 85 -224.001 161c-24.667 27.333 -45.667 106.666 -63 237.999l-7 210l7 49h-7c18.667 182 42 273 70 273c0 9.33301 23.333 37.333 70 84v7
c-84 70.667 -126 178 -126 322c0 236 74.667 378.333 224 427l7 -7c10.667 28 48 42 112 42h105zM373 1695v-91c28 10.667 42 20 42 28v14l-14 14l-7 -7v42h-7v-35h-7v35h-7zM471 1625l14 -14v14h-14zM429 1401v-147l-7 -70c0 -88.667 23.333 -133 70 -133
c37.333 0 56 51.333 56 154l-7 42l7 28c0 130.667 -14 196 -42 196h-42c-23.333 -10.667 -35 -34 -35 -70zM415 540l7.00098 -84l-7 -42c0 -149.333 21 -224 63 -224h28c29.333 0 45.666 46.667 48.999 140l-7 7l7 49v112c0 172.667 -16.333 259 -49 259h-49
c-28 0 -42 -72.333 -42 -217zM625.001 106l7 -21l21 21l-7 7h-7l-7 -7h-7zM625.001 64v-7h14v21zM576.001 -34h7v-14h-7v14z" />
    <glyph glyph-name="nine" unicode="9" horiz-adv-x="961" 
d="M428 1722c222 0 364.332 -72.3311 426.999 -216.998c28 -54.667 46.667 -145.667 56 -273l-7 -7l7 -105v-420l-7 -203l7 -42l-7 -42l7 -7l-7 -35v-42c0 -206.667 -95.667 -344.334 -287 -413.001c-37.333 -14 -77 -21 -119 -21h-42c-280 0 -420 163.333 -420 490l21 14
h308c28 0 42 -14 42 -42v-28l-7 -77c8.66699 -56 34.334 -84 77.001 -84c42 0 63 25.667 63 77v119l7 119h-7l7 21l-7 105h-21c-37.333 -65.333 -98 -98 -182 -98h-14c-94 0 -173.333 51.333 -238 154c-32.667 66 -49 152.333 -49 259c0 79.333 9.33301 126 28 140h-14v35
l35 -7l7 7v28l-14 21l-28 -14l-14 21l7 70l-7 21c0 233.333 81.667 382.666 245 447.999zM399.999 1288v-21l7 -98l-7 -21l7 -49l-7 -42l7 -35l-7 -21l7 -77v-70c0 -30 16.333 -53.333 49 -70h21c46.667 0 70 58.333 70 175v189l-7 63l7 7v7c0 149.333 -21 224 -63 224h-28
c-37.333 0 -56 -53.667 -56 -161zM77.999 1064v-7h14v7h-14z" />
    <glyph glyph-name="colon" unicode=":" horiz-adv-x="569" 
d="M169 1321l84 -7v7l7 -7h7l49 7c60.667 -3.33301 91 -10.333 91 -21v-322l-21 -21h-238l-21 21v301c0 28 14 42 42 42zM193 681l84 -7v7l7 -7h7l49 7c60.667 -3.33301 91 -10.333 91 -21v-322l-21 -21h-238l-21 21v301c0 28 14 42 42 42z" />
    <glyph glyph-name="semicolon" unicode=";" horiz-adv-x="569" 
d="M124 1120h34.999l84 -7v7l7 -7h28l7 7l7 -7h84l7 -35v-21l-7 -28l7 -7v-7l-7 -147v-63l7 -7c-9.33301 -28 -18.666 -42 -27.999 -42h-42l-63 7l-70 -7h-56l-21 21v322zM319.999 973l-7 -7v-21h21v14zM221.999 966v-21h7l14 14l-7 7h-14zM123.999 315l238 0.00195312v-147
l7 -42c0 -176.667 -72.333 -300.334 -217 -371.001h-21l-14 14v70c0 13.333 18.667 46 56 98l7 28c-42 7.33301 -63 16.666 -63 27.999l7 140h-7l7 7v7l-7 140z" />
    <glyph glyph-name="semicolon" unicode="&#x37e;" horiz-adv-x="569" 
d="M124 1120h34.999l84 -7v7l7 -7h28l7 7l7 -7h84l7 -35v-21l-7 -28l7 -7v-7l-7 -147v-63l7 -7c-9.33301 -28 -18.666 -42 -27.999 -42h-42l-63 7l-70 -7h-56l-21 21v322zM319.999 973l-7 -7v-21h21v14zM221.999 966v-21h7l14 14l-7 7h-14zM123.999 315l238 0.00195312v-147
l7 -42c0 -176.667 -72.333 -300.334 -217 -371.001h-21l-14 14v70c0 13.333 18.667 46 56 98l7 28c-42 7.33301 -63 16.666 -63 27.999l7 140h-7l7 7v7l-7 140z" />
    <glyph glyph-name="less" unicode="&#x3c;" horiz-adv-x="1196" 
d="M1024 1186h7v-245c0 -33.333 -49 -66 -147 -98l-378 -196l518 -259l7 -28v-238l-14 -14l-511 266l-7 21l-35 -7c-194.667 96 -295 149.667 -301 161v196c14 24.667 301 171.667 861 441zM618 402v-21h14v21h-14zM527 395v-14h14v14h-14z" />
    <glyph glyph-name="equal" unicode="=" horiz-adv-x="1196" 
d="M184 973l182 -7l7 7h7l7 -7h7l56 7l28 -7l105 7h399c28 0 42 -14 42 -42v-210l-21 -21h-826l-21 21v28l7 63l-7 70v49c0 23.333 9.33301 37.333 28 42zM177 553h686c32.667 -1.33301 49 -6 49 -14l56 14h35l21 -21v-210l-7 -35h-42l-7 -7l-7 7l-245 -7h-126
c-79.333 0 -119 4.66699 -119 14l-7 -7h-35l-49 7l-196 -14c-18.667 4.66699 -28 18.667 -28 42v28l7 126l-7 63zM681 434v-14h21v14h-21zM450 350v-21h21l7 21h-28z" />
    <glyph glyph-name="greater" unicode="&#x3e;" horiz-adv-x="1196" 
d="M148 1258l7 -0.000976562c530 -254.667 817 -399.334 861 -434.001v-182c0 -30.667 -56 -68 -168 -112l-693 -350l-7 7v245c0 32 46.667 62.333 140 91c248.667 124.667 377 192.334 385 203.001c-346 164.667 -521 253.334 -525 266.001v266z" />
    <glyph glyph-name="question" unicode="?" 
d="M591 1815c195.333 0 326 -95.665 392 -286.998c22.667 -46 39 -151 49 -315l-7 -63v-42l7 -77l-7 -28l7 -21c0 -220 -58.333 -362.333 -175 -427c-43.333 -23.333 -87.666 -35 -132.999 -35c-62.667 0 -123.334 32.667 -182.001 98h-7v-119c0 -28 -14 -42 -42 -42h-280
l-21 21v427l7 35h35l7 7l7 -7h28l7 7l7 -7h175l7 7l7 -7h42c0 -65.333 23.333 -98 70 -98h7c32.667 0 49 46.667 49 140v504c0 46.667 -18.667 70 -56 70s-56 -46.667 -56 -140v-189l-21 -21h-42c-28 0 -42 14 -42 42h-7c0 -28 -7 -42 -21 -42h-119l-28 7l-28 -7h-35l-21 21
c1.33301 23.333 6 35 14 35l-14 35l7 42h7l7 -77h7l7 49v63l-7 7v7l-7 -7h-14v7l21 70l-7 35c0 105.333 72.333 198.666 217 279.999h7l21 -7c0 25.333 51.333 41.666 154 48.999zM178 1367h7v-21h-7v21zM213 373.002h301l21 -21v-315l-21 -21h-301l-21 21v231l7 7l-7 7v70z
" />
    <glyph glyph-name="at" unicode="@" horiz-adv-x="1622" 
d="M899 1847l34.999 -7.00293l7 7c204 0 369.667 -102.667 497 -308c79.333 -131.333 119 -278.333 119 -441c0 -388 -130.667 -635.333 -392 -742c-37.333 0 -56 -4.66699 -56 -14c-68 0 -121.667 39.667 -161 119c-71.333 -79.333 -139 -119 -203 -119l-21 21l-28 -14
c-74 0 -144 70 -210 210c-23.333 62.667 -35 158.334 -35 287.001c24 356 131.333 570.667 322 644l70 14c60.667 0 126 -46.667 196 -140c12.667 65.333 26.667 98 42 98l70 7h63l21 -14l-119 -882c4.66699 -28 11.667 -42 21 -42h28c172.667 72.667 259 250 259 532v35
c0 265.333 -112 452 -336 560l-189 28c-75.333 -9.33301 -154.666 -32.666 -237.999 -69.999c-224 -145.333 -336 -399.666 -336 -762.999c0 -287.333 107.333 -506.666 322 -657.999c78 -42 159.667 -63 245 -63h42c150.667 0 300 67.667 448 203h154l7 -7h7
c-92.667 -154.667 -242 -266.667 -448 -336l-175 -28c-316 0 -540 177.333 -672 532c-28 71.333 -49 185.666 -63 342.999c10 492.667 168.667 812.334 476 959.001c66 23.333 143 39.666 231 48.999zM632.999 775.997v-21c11.333 -168 53.333 -252 126 -252h21
c112 0 182 196 210 588v42c-10.667 130.667 -48 196 -112 196h-35c-108.667 0 -178.667 -184.333 -210 -553zM1256 509.997v-14l14 14h-14z" />
    <glyph glyph-name="A" unicode="A" horiz-adv-x="1017" 
d="M249 1760l49 -7.00098l399 7l63 -7v7c24 0 40.333 -88.667 49 -266l63 -455l-7 -49c18.667 -79.333 63 -406 133 -980l-21 -14h-350c-11.333 0 -18.333 9.33301 -21 28l-14 196l7 21c-3.33301 46.667 -10.333 70 -21 70h-119l-7 -35
c0 -171.333 -11.667 -264.666 -35 -279.999h-7l-56 14l-21 -7l-42 7h-42l-56 -14h-133l-21 14l63 511h-7l140 1232h14v7zM361 1508v-98c0 -33.333 -4.66699 -59 -14 -77l7 -49h7c0 16 7 30 21 42v189zM515 1291c-32.667 -356.667 -56 -562 -70 -616l14 -49h119l-49 665h-14z
M326 1207l-7 -49l14 -21l-7 -35l7 -28l-21 -91c9.33301 0 14 -7 14 -21l-7 -35h14v-21c-23.333 0 -35 -16.333 -35 -49l-28 -7v-56l21 -7v56l7 -7h7v42h35v42l7 7l-7 7v28l14 42l-14 84v21c18.667 0 28 23.333 28 70c-4.66699 18.667 -18.667 28 -42 28zM333 856.999l-7 -35
v-7l14 -14h7v7l-7 49h-7zM284 562.999v-21l21 7v7zM347 506.999l7 -21h7v21h-14zM284 471.999v-21h35v14zM340 457.999v-35h7l14 35v14h-7zM382 464.999v-14h14v14h-14zM284 429.999v-14h35v14h-35zM340 401.999v-21h7v21h-7zM277 296.999v-21h42v21h-42zM277 247.999v-21
h63v-14l-7 -7v-7l7 -7h7c0 23.333 7 35 21 35l-21 21v7l-7 -7h-63zM340 184.999v-35h28v21zM340 100.999v-21l21 7v7zM340 65.999v-14l14 -14v14z" />
    <glyph glyph-name="B" unicode="B" horiz-adv-x="981" 
d="M113 1689h27.998l42 -7l35 7l7 -7v-77l7 -84h7l7 21l-14 140l7 7h203l63 -7l49 7c96.667 0 185.334 -32.667 266.001 -98c52 -62.667 80 -121 84 -175l7 -7v-21h-21v-42h14v35c14 -2.66699 21 -21.334 21 -56.001v-98l7 -35h-7l7 -21c0 -80.667 -16.333 -146 -49 -196
l-7 21l7 49l-7 7h-14v-77c0 -27.333 -18.667 -48.333 -56 -63l-14 14h-7c0 -23.333 -9.33301 -35 -28 -35v-21c14 0 25.667 -9.33301 35 -28l7 7h14c84 -54 126 -117 126 -189l21 -126l-7 -7l7 -35v-91c0 -232.667 -37.333 -372.667 -112 -420
c-15.333 0 -31.666 -7 -48.999 -21h-14l-7 28h-7c0 -37.333 -46.667 -56 -140 -56h-42l-21 14l-28 -14l-21 14l-42 -14l-35 7l-77 -7l-63 7l-70 -7h-49l-84 7l-7 -7l-14 21v497l-7 98l7 7v7l-7 84c0 62.667 7 102.334 21 119.001l-7 7l-7 21h-7l21 231l-14 84v14h7l-7 84
v231l-7 63l7 49l-7 70l7 49l-7 7l7 7h7l7 -7h7zM266.998 1661v-21l14 14v7h-14zM665.998 1633v-7h14v7h-14zM756.998 1605v-14h14v14h-14zM672.998 1584v-14h14v14h-14zM672.998 1556v-49h14v49h-14zM91.998 1493v-14h14v14h-14zM672.998 1465v-21l14 -14v21zM630.998 1416
v-133c10.667 0 17.667 16.333 21 49l-7 56l7 21l-7 7h-14zM798.998 1416v-7h14v7h-14zM462.998 1395l-7 -7v-378l14 -14h14l7 7h7l21 -21h7l42 56l7 77v140c0 88.667 -28 133 -84 133zM588.998 1381v-21h7v21h-7zM189.998 1367v-21l14 14v7h-14zM147.998 1360v-28h14v14z
M679.998 1360v-98h14v28l-7 42l7 21l-7 7h-7zM147.998 1318v-7l14 -14v21h-14zM196.998 1311v-28h14v14zM322.998 1311v-14h7v14h-7zM413.998 1290v-14h14v14h-14zM280.998 1262v-7h14v7h-14zM595.998 1262v-273l14 -14l7 70v84l14 14l21 -21v42h-7v-14h-21l-14 98v14h-14z
M679.998 1248v-14h14v14h-14zM896.998 1213v-21l14 -14l7 7l-7 28h-14zM329.998 1178v-21h14v7zM728.998 1143v-21h14v21h-14zM112.998 1136v-49h14l-7 49h-7zM861.998 1115v-49h14v49h-14zM777.998 1080v-63l14 -14l7 42l-7 35h-14zM252.998 1045v-49h14v49h-14z
M161.998 1038v-14h7v14h-7zM420.998 1017l14 -14v14h-14zM602.998 954v-42h14v7l-7 35h-7zM644.998 947v-28h7l14 14zM693.998 919v-14h14v14h-14zM385.998 891v-56l14 -14v56zM301.998 870v-7l14 -14v21h-14zM567.998 786v-56l14 -14l7 21l-7 7v7l7 28l-7 21zM441.998 667
l7 -49l7 -385l21 -14c0 11.333 21 18.333 63 21l21 -63l-7 -21h14v63l-7 28c9.33301 24 14 77.667 14 161v49l7 28l-7 28v14l7 7l-7 7v21l14 49c-20 79.333 -52.667 119 -98 119v7c-28 0 -42 -23.333 -42 -70h-7zM406.998 527v-21h14v21h-14zM896.998 359v-21l14 14l-7 7h-7
zM896.998 303v-14h14v14h-14zM105.998 282v-21h14v21h-14zM854.998 275v-14h14v14h-14zM896.998 212l14 -14v28zM847.998 205v-7l7 -91l14 14v70l-14 14h-7zM630.998 184v-28h14v14zM770.998 86l-7 -21l7 -21l21 28zM812.998 86l-14 -21l21 -21c28 4.66699 42 11.667 42 21
v21h-7l-35 -7zM553.998 65l14 -14v28zM602.998 72v-14h7v14h-7zM511.998 -19v-21h7v21h-7z" />
    <glyph glyph-name="C" unicode="C" horiz-adv-x="989" 
d="M494 1790l13.999 -20.999v-63h14v63l14 14c9.33301 0 14 -7 14 -21l7 -7h7c0 14 4.66699 21 14 21h7l14 -14l21 7c72.667 0 156.667 -63 252 -189c42 -78.667 63 -221 63 -427v-84l-7 -84h-42l-28 21c0 -14 -4.66699 -21 -14 -21l-14 14v63h7
c0 -18.667 9.33301 -30.334 28 -35.001l7 42l-7 84h-14c-3.33301 -56 -10.333 -84 -21 -84l-14 14h-7v-77l7 -7v-7l-7 -7h-28l-7 49c-8 0 -15 -16.333 -21 -49h-7l-7 7h-7l-21 -14l-28 14l-28 -7l-14 14l-21 -21l-35 21l-7 -7h-7l-14 21v84c0 256.667 -9.33301 385 -28 385
l-49 7c-37.333 0 -56 -46.667 -56 -140l-7 -105l7 -7v-7c-6.66699 -93.333 -13.667 -140 -21 -140l7 -21l7 -427v-119l7 -77l-7 -7v-7c0 -121.333 21 -182 63 -182v-21h14c0 18.667 14 28 42 28l21 245l14 14l-14 154l21 21v7l35 -7h7l7 7l21 -14l42 14h21
c23.333 -1.33301 35 -6 35 -14l7 7h21l7 -7l28 14c9.33301 -10.667 14 -27 14 -49h21l-7 35l21 14l14 -21v-49h14l14 70l28 -7l-7 -49v-28l14 -14l-14 -42l7 -42l-7 -28l7 -56c0 -83.333 -14 -148.666 -42 -195.999l7 -7v-7c-20.667 -62.667 -44 -100 -70 -112h-7v21h-21
v-56c-78.667 -79.333 -169.667 -119 -273 -119l-21 21v98l-14 14l-7 -7v-119h-7c-10.667 0 -17.667 11.667 -21 35h-7l-14 -42c-14 0 -21 7 -21 21l-7 -7h-7c-141.333 0 -248.666 84 -321.999 252c-23.333 98 -35 233.333 -35 406v252l7 63l-7 35l7 56l-7 7v7l7 28h-7l7 7
v112l-7 7l7 7v7l-7 35c4.66699 154 18.667 231 42 231l-7 7v7c10.667 42 20 63 28 63h7v-21h14v49c0 23.333 14 42 42 56c0 13.333 14 27.333 42 42c0 15.333 18.667 31.666 56 48.999h21l7 -28h7c0 37.333 16.333 56 49 56c0 9.33301 16.333 14 49 14v7l7 -7h7z
M283.999 1685v-28l14 -14v42h-14zM514.999 1678v-63h14v63h-14zM241.999 1657v-21h7v21h-7zM185.999 1643v-14l21 -21v21l-14 14h-7zM150.999 1580v-7l14 -14v35zM157.999 1545v-21h7v21h-7zM108.999 1468v-7h14v21zM199.999 1461l7 -7h7v21zM157.999 1468v-28l14 14z
M157.999 1419v-28l14 14zM661.999 1349v-14h7v14h-7zM346.999 1342v-14h14v14h-14zM73.999 1335v-21h14v7zM115.999 1314v-14h7v14h-7zM164.999 1307v-14h-7l7 -35v-112h14v126l-7 35h-7zM80.999 1251v-84c9.33301 0 14 7 14 21l-7 63h-7zM122.999 1244v-21l14 -14l7 7v14
l-14 14h-7zM129.999 1195v-49h7l7 42l-7 7h-7zM899.999 1188l-7 -77l7 -63l7 7h7l-7 7v7l7 21l-7 98h-7zM353.999 1174v-119l14 -14l7 21c0 74.667 -7 112 -21 112zM220.999 1160v-14h14v14h-14zM87.999 1153v-28h7v28h-7zM262.999 1146l-7 -7
c4.66699 -37.333 11.667 -56 21 -56v49zM220.999 1104v-42h7c9.33301 0 14 7 14 21l-7 21h-14zM129.999 1097v-63l14 -14v63zM87.999 1062v-98l14 -14v126zM269.999 1069l-7 -35l14 -14l7 7v28zM577.999 1062v-14h7v14h-7zM178.999 1048v-91l14 -14v14h7
c-3.33301 60.667 -10.333 91 -21 91zM220.999 1041v-7l7 -42l-7 -21c3.33301 -60.667 10.333 -91 21 -91v14l-7 147h-14zM136.999 1006v-105h14v14h-7l7 49v28zM360.999 1006v-7l7 -154l7 -7h7v35l-7 35l14 63l-14 35h-14zM318.999 999.001v-42l7 -35h7v28l-7 49h-7z
M269.999 985.001v-91l14 -14l7 98l-7 7h-14zM276.999 859.001v-35l7 -49h7v70zM374.999 824.001v-21h7v21h-7zM276.999 747.001v-7h14v21zM192.999 747.001v-21l14 -14v21zM150.999 719.001v-42h14v7l-7 35h-7zM192.999 684.001v-28h14v42zM108.999 656.001v-14l14 -14v14z
M59.999 635.001v-14h14v14h-14zM654.999 572.001v-56h14v56h-14zM745.999 558.001v-28h14v14zM878.999 558.001v-14h7v14h-7zM115.999 495.001v-7l14 -14l7 7v7l-7 7h-14zM248.999 495.001v-63h14v49zM73.999 474.001v-21h7v21h-7zM164.999 474.001v-28l14 14v14h-14z
M745.999 460.001v-28h21v14l-14 14h-7zM836.999 411.001v-14h7v14h-7zM206.999 383.001v-21h7v21h-7zM115.999 369.001v-14h7v14h-7zM661.999 250.001v-7h14v7h-14zM619.999 215.001v-70l14 -14v98zM479.999 208.001v-21h14v21h-14zM752.999 152.001v-14l14 -14l7 7v7
l-14 14h-7zM577.999 138.001v-42l21 7v28zM619.999 110.001l7 -49h7v56l-7 -7h-7zM528.999 110.001v-56l14 14v28zM304.999 68.001v-21h7v21h-7zM395.999 40.001v-35l14 14v7z" />
    <glyph glyph-name="D" unicode="D" horiz-adv-x="965" 
d="M64 1741l132.998 -0.000976562l7 -7l7 7h35l7 -7l7 7h161l14 -14l42 14h7l35 -7v-70l14 14v56h21l14 -14l21 14c102.667 -11.333 154 -32.333 154 -63l7 -63v-49l14 -14v126h7c9.33301 0 14 -11.667 14 -35l21 -7l14 14c14 -17.333 21 -33.666 21 -48.999v-119h7l7 7h7
l-7 7v21l7 7l-7 7v63c15.333 0 29.333 -35 42 -105c9.33301 0 14 -14 14 -42h7l-7 -35v-7l14 -63l-7 -175l-14 -14v-7l21 -42l-7 -35l7 -7l-7 -35v-42l7 -56l-7 -21l7 -217v-168l-7 -28l7 -28l-7 -7v-7l7 -28h-7l7 -7v-28c-16.667 -214.667 -51.667 -322 -105 -322
c0 -18.667 -37.333 -39.667 -112 -63l-7 7h-7l-35 -14l-7 7h-7l-35 -14l-7 7v7l-7 -7h-21l-14 14v70l-14 14v-84l-21 -21l-7 7l-49 -7h-14c-15.333 0 -31.666 7 -48.999 21l-14 -21l-21 14l-7 -7h-28l-7 28h-14c0 -23.333 -7 -35 -21 -35h-14
c-15.333 0 -31.666 7 -48.999 21l-21 -21h-63l-42 7l-35 -7h-7l-21 21v98l14 42l-14 56l21 133l-14 56l14 14l-14 21l7 7v35l-7 7l7 7v28l-7 49l7 28l-7 217v112h21v-21h14l14 42v7l-14 21l14 21c-9.33301 0 -16.333 16.333 -21 49l7 70l-21 7l-7 -7v42l14 21v112h-21v14
l7 91l-7 35l7 28l-7 112v168zM567.998 1706v-14h7v14h-7zM476.998 1657l7 -48.998v-28l-7 -7l7 -7v-126h-7l-28 7c-19.333 -6.66699 -33.333 -18.334 -42 -35.001v-77l14 -56l-14 -21l21 -476l-7 -42l7 -189v-98l-14 -14l-7 35v63h-14v-224c0 -9.33301 11.667 -14 35 -14
l21 -21c65.333 10.667 98 59.667 98 147v14l-7 63l7 126v77l7 63l-14 56l28 56l-14 21l14 14v91h-7v-21h-21v28c0 32.667 7 49 21 49v112c0 60.667 -4.66699 102.667 -14 126l7 7v7c0 49.333 -18.667 93.666 -56 132.999v147l-7 49h7l-7 21l-7 -7h-7zM567.998 1657v-56
l14 -14v35l-7 35h-7zM518.998 1650v-105.001h21v49c0 34.667 -7 53.334 -21 56.001zM210.998 1643v-14h14v14h-14zM392.998 1629v-126l14 -14h7v126l-14 14h-7zM707.998 1622v-175l7 -35h7l7 42l-7 168h-14zM434.998 1601v-28l14 14zM658.998 1587v-42h14v42h-14z
M798.998 1580v-14l14 -14v28h-14zM350.998 1545v-7l14 -14v35zM448.998 1559v-21h7v21h-7zM665.998 1517v-112l14 -14v126h-14zM308.998 1489l14 -14v14h-14zM574.998 1489v-21l14 -14v35h-14zM182.998 1454l-7 -28l14 -63l-7 -42v-21h14v56l-7 42l7 35v21h-14z
M756.998 1447v-21h7v21h-7zM266.998 1433v-28l14 14zM357.998 1433v-21h7v21h-7zM854.998 1419l-7 -7v-14l7 -84h14l-7 49l7 49l-7 7h-7zM756.998 1405l7 -70v-21h14l-7 35l7 42zM266.998 1391v-28h14v14zM714.998 1391v-21h7v21h-7zM805.998 1384v-84l14 -14v84z
M630.998 1377v-21h7v21h-7zM231.998 1363v-14h7v14h-7zM91.998 1342v-49l7 -49l7 7h7l-14 63l7 28h-14zM630.998 1335v-63.001h21v7c0 34.667 -7 53.334 -21 56.001zM672.998 1314v-49h14v35zM588.998 1272v-28c0 -84 7 -126 21 -126v112c0 24 -7 38 -21 42zM630.998 1251
v-84l14 -14h7v98h-21zM315.998 1244v-42h14v42h-14zM364.998 1223v-70l14 -14v84h-14zM812.998 1216v-7l14 -14v21h-14zM672.998 1209c3.33301 -51.333 10.333 -77 21 -77v42l-7 35h-14zM770.998 1209v-21h7v21h-7zM91.998 1153v-7l7 -7v-7l21 7v28h-14zM770.998 1167v-84
l14 -14v98h-14zM812.998 1146l14 -14v28zM728.998 1153l-7 -7l7 -49v-42h14v84zM147.998 1125v-21l7 -63l-14 -35l14 -70h7l7 63h-7l14 35l-14 14l7 21l-7 70zM196.998 1139l-7 -7v-42l14 -14l14 49zM280.998 1132v-70l14 -14v70zM371.998 1125v-14h7v14h-7zM91.998 1097
v-21c14 -15.333 21 -29.333 21 -42h7l7 49v21l-14 14zM322.998 1104v-42l7 -35h7l7 56l-7 21h-14zM644.998 1083l-7 -35l7 -21h21v14c0 24 -7 38 -21 42zM819.998 1083v-56l14 14v42h-14zM602.998 1076v-21h7v21h-7zM686.998 1076v-14h7v14h-7zM238.998 1048v-14h14v14h-14z
M602.998 1041v-70h14v56zM777.998 1041v-49h14l-7 49h-7zM686.998 1034v-49l14 -14v49zM196.998 1027v-35l14 14v7zM329.998 1020v-21h14v7zM112.998 1013l-7 -7v-7l7 -7h7l7 7v7l-7 7h-7zM238.998 1013v-56l14 -14v70h-14zM868.998 1013v-35l14 14v7zM287.998 991.999v-21
l14 14l-7 7h-7zM112.998 977.999l-7 -7v-7l14 -14l7 7v7zM329.998 942.999v-7l14 -14v35zM196.998 949.999v-70h14v56zM735.998 942.999v-42l14 14v14zM112.998 935.999v-14h7v14h-7zM826.998 914.999v-14l14 -21l-7 -7v-7l7 -42h7v105h-7zM154.998 921.999v-14l14 -14v14z
M777.998 921.999v-49l14 -14v63h-14zM238.998 886.999l7 -21h7v42c-9.33301 0 -14 -7 -14 -21zM868.998 900.999v-21h7v21h-7zM161.998 879.999v-14h7v14h-7zM735.998 830.999v-14h14v14h-14zM868.998 830.999v-42l7 -105h14l-7 28l7 7v7l-7 35l7 63l-7 7h-14z
M833.998 781.999v-35l14 -14v49h-14zM385.998 746.999l14 -14v28zM84.998 718.999l7 -49h7v63zM343.998 725.999v-63l14 14v49h-14zM833.998 704.999v-49l7 -140h7v14h7l-7 49l7 49l-7 21l7 7v7l-7 56zM875.998 641.999l-7 -21l7 -7v-42l21 -7v7l-7 70h-14zM301.998 550.999
v-28l7 -35l14 14v14l-14 35h-7zM616.998 515.999v-7l14 -14v21h-14zM889.998 508.999l-7 -28l7 -84h7l14 56l-7 7v7l7 28v7zM217.998 501.999v-14h14v14h-14zM707.998 494.999v-70h7c11.333 0 18.333 21 21 63l-7 7h-21zM805.998 480.999v-14h7v14h-7zM665.998 473.999v-28
h14v28h-14zM91.998 466.999v-98h7l7 28l-7 70h-7zM350.998 452.999v-42l14 -14v42zM623.998 424.999v-28l14 14zM413.998 424.999h7l7 -21h-14v21zM133.998 410.999v-21l14 -14v35h-14zM840.998 389.999v-28l14 -14h7v28l-14 14h-7zM413.998 382.999h7v-14h-7v14z
M357.998 354.999v-84l14 14v70h-14zM581.998 333.999v-14h7v14h-7zM805.998 333.999v-14h14v14h-14zM182.998 319.999v-56h14v56h-14zM224.998 319.999v-21h14v7zM98.998 312.999v-14h7v14h-7zM140.998 270.999v-77l14 14v49zM224.998 263.999v-49h14v49h-14z
M357.998 235.999v-28h14v14zM588.998 172.999v-14h14v14h-14zM259.998 151.999v-7l7 -35h7l14 14v28l-14 14zM224.998 144.999l7 -21h7v14h7l-7 21zM546.998 158.999v-14h7v14h-7zM140.998 151.999v-21l14 14l-7 7h-7zM588.998 123.999l-7 -35v-14l21 -21v56z
M315.998 116.999v-14l14 -14l7 7v7l-14 14h-7zM630.998 109.999v-7l14 -14v21h-14zM777.998 109.999v-14h7v14h-7zM140.998 88.999v-35h14v21zM364.998 88.999v-21h7v21h-7zM504.998 81.999l-7 -77h14v77h-7zM105.998 74.999v-14h7v14h-7z" />
    <glyph glyph-name="E" unicode="E" horiz-adv-x="757" 
d="M58 1733l91.001 0.000976562l7 -7l7 7h7l28 -7l49 7h308l-7 -35l21 -7v42h21l14 -14l28 14l7 -7h21l21 7v-7l7 -28v-294l-21 -21h-70l-21 14l-21 -14h-42c-9.33301 0 -14 7 -14 21l-7 7h-7l-7 -28h-42v-266l-7 -7l7 -7v-49l35 -7l7 7l7 -7h28l7 7l7 -7h28l7 7l7 -7h7
l70 7c18.667 -4.66699 28 -18.667 28 -42v-182c0 -9.33301 -9.33301 -14 -28 -14v-42l28 -35l-35 -28l-7 7h-28l-7 -7l-28 14l-28 -7l-14 14v7l7 28l-14 49h-14l7 -70v-14c0 -9.33301 -7 -14 -21 -14l-7 7h-7c-37.333 -10.667 -56 -31.667 -56 -63l7 -35l-7 -21l7 -84v-70
l7 -203l-14 -28l7 -7v-35h-14l-14 63c-11.333 0 -18.333 -9.33301 -21 -28c11.333 -32.667 20.666 -49 27.999 -49l21 7v-7l14 -28l35 14l21 -21l14 35c-9.33301 9.33301 -14 39.666 -14 90.999l-7 7h-7v-56l-7 -35h-7c-10 0 -19.333 49 -28 147l21 7l7 -7h7l56 7l7 -28h7
v21c14 0 21 -21 21 -63l21 7v49l14 14l14 -14l-7 -7v-7l14 -98l-14 -42l14 -56l-7 -70h-21v35h-14l7 -35c-14 0 -21 -9.33301 -21 -28c-9.33301 0 -14 -7 -14 -21l-35 -7h-259c-23.333 0 -35 4.66699 -35 14l-42 -14h-105l-21 21v238l-7 28l14 70l-7 7v28h7
c9.33301 0 14 -14 14 -42h7v140h-7l-7 -7h-7c0 23.333 -4.66699 35 -14 35c4.66699 51.333 11.667 77 21 77h14v28h-28v63l21 28l-14 70l7 7l-14 84v14h7l-7 84v259l14 42l-14 42v161l7 49h-7l7 7l-14 147l7 42l-7 7v7zM156.001 1712c0 -14 -4.66699 -21 -14 -21l-21 14
l-7 -7v-7l7 -7v-7l7 7h7l35 -7v35h-14zM289.001 1691v-28l7 -35h7l7 56l-7 7h-14zM646.001 1691v-21h7v21h-7zM380.001 1670v-14h7v14h-7zM471.001 1649v-56h14v42zM205.001 1600l7 -70v-49h14l-7 105v21l-7 -7h-7zM380.001 1600v-7l14 -14v21h-14zM429.001 1600v-21h14v7z
M562.001 1600v-49h14v35zM79.001 1593l-7 -84h7l-7 -21l7 -21h7l7 35h-7l7 7v7l-7 77h-7zM128.001 1537v-14h7v14h-7zM436.001 1509l-7 -7v-14l14 -14l7 7v14zM436.001 1460v-14h7v14h-7zM219.001 1418v-14h7v14h-7zM261.001 1418v-21l14 -14v35h-14zM79.001 1404v-28l14 14
zM401.001 1383v-28h7v28h-7zM79.001 1362v-42l7 -35h14v21l-14 21l7 28l-7 7h-7zM268.001 1320v-112l14 -14v112zM135.001 1306v-63h14v63h-14zM359.001 1299v-21h14v7zM408.001 1264l-7 -35l7 -7h7v42h-7zM142.001 1180v-21h7v21h-7zM142.001 1061v-14h14v14h-14z
M184.001 1040v-7h14v7h-14zM233.001 1040l-7 -7v-14h21v7zM324.001 1026v-14h7v14h-7zM408.001 1019v-49h14v49h-14zM275.001 1012l-7 -77l7 -21l21 21c-4.66699 51.333 -11.667 77 -21 77zM317.001 984.001l7 -42l-7 -21l7 -7h14l-7 84zM100.001 991.001l-7 -35l14 -14h7
v49h-14zM121.001 879.001h42.001l-7 49v49c-12.667 0 -24.334 -32.667 -35.001 -98zM184.002 935.001v-7l7 -49h14v14l-7 7l7 7v7l-7 21h-14zM233.002 914.001v-7l7 -35h7l7 21l-7 35zM275.002 900.001v-21l14 14l-7 7h-7zM324.002 893.001v-84l14 -119h7l7 21l-7 35l7 21
l-14 126h-14zM373.002 893.001v-7h14v7h-14zM457.002 872.001v-28h14v14zM555.002 865.001v-14h42v21h-7zM275.002 858.001v-14h14zM100.002 851.001v-14h14v14h-14zM149.002 851.001v-14h7v14h-7zM415.002 851.001v-7h14v7h-14zM240.002 795.001l-7 -21l7 -21h7l7 21l-7 21
h-7zM149.002 788.001v-14h14zM555.002 788.001v-21h7l14 14l-7 7h-14zM590.002 774.001l14 -14h14v28h-14zM282.002 781.001v-14h14v14h-14zM464.002 767.001l7 -7h7v21zM198.002 774.001v-14h7v14h-7zM471.002 753.001v-14h7v14h-7zM240.002 725.001v-35h7l14 14v14z
M198.002 697.001v-35l14 14v7zM156.002 676.001l-7 -21l14 -168v-63l14 -14v112l-7 42l7 28l-14 84h-7zM338.002 676.001l-7 -21l21 -14v21zM114.002 627.001v-7h14v21zM380.002 613.001l7 -70v-14h14v35l7 49l-7 7h-7l-7 -7h-7zM254.002 606.001v-42c9.33301 0 14 7 14 21
l-7 21h-7zM345.002 606.001v-21h7v21h-7zM114.002 592.001v-21l7 -42l-7 -7v-7l14 -84l-7 -42v-42h14v231l-14 14h-7zM254.002 550.001v-42h7l7 35l-7 7h-7zM345.002 529.001v-21h7v21h-7zM303.002 515.001v-7l-7 -77l7 -21h14v105h-14zM254.002 494.001v-112h14v7l7 63
c-6 28 -13 42 -21 42zM345.002 480.001l-7 -28l14 -133l-7 -42l7 -7h7v196zM387.002 459.001v-84l7 -49h7l7 28l-7 49v70zM65.002 452.001h7v-21h-7v21zM65.002 410.001h7v-14h-7v14zM205.002 368.001v-42l-7 -35h-14l-7 7h-7v-21l7 7h21l7 -42h7c0 20 7 34 21 42l-14 42v42
h-14zM240.002 312.001l21 -14h7l-7 21l7 35h-7c-14 -4.66699 -21 -18.667 -21 -42zM394.002 319.001v-28h7v28h-7zM681.002 326.001h7l14 -14v-7h-7l-14 14v7zM485.002 305.001v-21h7l7 21h-14zM128.002 291.001v-21h7l7 21h-14zM660.002 291.001l7 -7v-7l-14 -14l-7 7v7z
M688.002 284.001h14l7 -70v-7l-7 -7l7 -7v-105l7 -7l-7 -7v-91l-35 -7c-23.333 0 -35 4.66699 -35 14l-28 -14c-23.333 6 -35 13 -35 21c23.333 0 35 7 35 21l28 -14l7 7v7l-7 105l14 28l-14 70l7 21h14l21 -14l7 35v21zM86.002 256.001v-14h7v14h-7zM352.002 242.001
l-7 -84l7 -7h7l14 77zM569.002 235.001v-91l21 -21l14 21v21c-18.667 24.667 -28 48 -28 70h-7zM310.002 228.001v-49h14v35zM205.002 214.001v-21c0 -74.667 7 -112 21 -112l7 98c-6 23.333 -13 35 -21 35h-7zM527.002 179.001l7 -63h7l14 14v35l-14 14h-14z
M674.002 172.001v-14h-7l7 -21h7l14 14v7l-14 14h-7zM128.002 137.001v-84h14v84h-14zM170.002 116.001v-21h7v21h-7zM170.002 74.001v-63h14v7l-7 28l7 21l-7 7h-7zM541.002 39.001v-28h7l7 21l-7 7h-7z" />
    <glyph glyph-name="F" unicode="F" horiz-adv-x="777" 
d="M108 1653l69.999 -0.000976562l14 -14l28 14l28 -7l7 7h7l7 -7l49 7h49l21 -14l14 14h7l7 -7h7l-7 -35v-70c0 -28 14 -42 42 -42l7 7c4.66699 -51.333 11.667 -77 21 -77v21l-7 42l7 21l-7 7v7l7 7l-14 112l21 7l7 -7l35 7h21l70 -7l7 7l28 -56c0 37.333 7 56 21 56h42
l7 -35v-77l7 -182c-10.667 -31.333 -24.667 -50 -42 -56l-28 7l-7 -7l-21 7l-7 28h-14l-7 -35h-42l-42 7c-42 0 -63 -18.667 -63 -56l-7 7h-7l-14 -21v-7l14 -84l7 7h7v-77l-14 -21v-7c10.667 -12.667 17.667 -36 21 -70l-7 -7l35 -21l21 14h7l21 -14l14 14
c9.33301 0 16.333 -18.667 21 -56h14v42l14 14c9.33301 0 14 -7 14 -21h7c9.33301 0 14 7 14 21h7c9.33301 0 14 -11.667 14 -35h7c9.33301 0 14 7 14 21l7 7h7l7 -21c-9.33301 -29.333 -21 -45.666 -35 -48.999l7 -35v-21h21v-28c-14 0 -21 -4.66699 -21 -14l7 -7h7l7 7
v-14l-21 -35l7 -49v-56h-14v-7l-7 7h-56l-7 42h-14l-7 -35h-21l-7 35c-9.33301 0 -14 -11.667 -14 -35h-14c0 28 -7 42 -21 42c-4.66699 -22 -18.667 -43 -42 -63v-98h-14l-14 14v14l7 28l-14 70c-14 -4.66699 -21 -18.667 -21 -42c0 -74.667 18.667 -112 56 -112l7 -175
v-294l-7 -7l7 -7v-28l-14 -14l-7 7h-7v-49l-35 7c-9.33301 -28 -18.666 -42 -27.999 -42c-12.667 0 -19.667 11.667 -21 35c-9.33301 0 -14 -7 -14 -21l-7 -7h-14l-7 7l-21 -14l-35 7l-21 -7c-37.333 4.66699 -56 11.667 -56 21v42l-7 126l7 63l-7 7h-14v-217l-14 -14l-7 7
v91h-14l-14 -14v-84l-14 -14h-7v49l7 56l-7 77v161l-7 7l7 7v7l-7 49l7 56h-7l7 7v21l-7 28l14 35l-7 7v28c18.667 16.667 28 33 28 49l-28 7v21l-7 28l7 28v7l-7 7l21 77h-7l7 7v14c0 23.333 -4.66699 35 -14 35l14 49l-14 84v42l7 49h-7l7 7l-7 105v77l21 21v-14h7l-7 -35
v-21c2.66699 -28 9.66699 -42 21 -42l7 28l-7 7v7l7 7v7l-7 63l7 105l-7 7h-14l-7 -56h-14l-7 42l-7 315zM443.999 1653l21 -14l-7 -70h-7l-14 14v56l7 7v7zM555.999 1611v-21h14v21h-14zM233.999 1604l7 -21l-7 -35l7 -42h14v14l-7 84h-14zM513.999 1541v-28h14v14z
M338.999 1527v-7h14v7h-14zM562.999 1527v-21h7v21h-7zM653.999 1492v-14c0 -60.667 7 -91 21 -91l-7 49v42zM114.999 1422l-7 -28l21 -14c9.33301 0 14 7 14 21l-7 21h-21zM296.999 1394v-14h7v14h-7zM296.999 1345v-14h14v14h-14zM394.999 1331v-35h21v21l-14 14h-7z
M443.999 1331l-7 -7v-7h21zM205.999 1310v-28.001l7 -35h14v7c0 34.667 -7 53.334 -21 56.001zM345.999 1310l-7 -28c4.66699 -32.667 11.667 -49 21 -49l7 7v7h-7l7 7v7l-7 49h-14zM394.999 1282v-14l14 -14l-14 -21l7 -21h7l7 7h7l-7 49v14h-21zM100.999 1254h14v-14h-14
v14zM212.999 1205v-35l14 -14v14l-7 35h-7zM394.999 1191v-7l14 -28h7v35h-21zM457.999 1198h7v-21h-7v21zM163.999 1086v-35l7 -7l-7 -7v-7l14 -161l-7 -21c4.66699 -37.333 11.667 -56 21 -56l7 7l-7 7l7 70v14h21v-21l7 -42l-14 -28c9.33301 -28 18.666 -42 27.999 -42
l7 35l-7 49h7l-7 7v56l7 7c-3.33301 14 -12.666 23.333 -27.999 28l-14 -14h-14v63h7l28 -21l14 49c0 9.33301 -7 14 -21 14l-21 -7l-7 7v7l7 28l-7 21h-28zM205.999 1065h21v14h-7zM114.999 1002l7 -21h21v7l-7 56c-9.33301 0 -14 -14 -14 -42h-7zM408.999 1037
l-6.99902 -6.99902v-7l7 -63l-7 -42l7 -56l-7 -7h-14l-14 98v63h-14v-56c0 -23.333 -4.66699 -35 -14 -35l21 -231v-14h14l-7 42c0 23.333 11.667 46.666 35 69.999l14 -91h-7l7 -21h7v14h7l-7 7v28l7 7l-7 7v28h7c8 0 15 -16.333 21 -49h21l7 7h7
c-6.66699 37.333 -25.334 56 -56.001 56l-14 245l-7 7h-7zM262 1002l14 -14v14h-14zM311 987.999v-7l14 -14v35zM269 973.999v-21h21v7l-14 14h-7zM451 952.999l-7 -21l7 -63v-14h14v63l-7 35h-7zM318 945.999l-14 -21l-7 7h-14l-14 -14c0 -18.667 11.667 -28 35 -28l7 -49
v-42l14 -14h14v35l-7 7l7 7v35l-7 7l7 7v21c0 24 -7 38 -21 42zM542 917.999v-28l14 -14v28zM577 882.999l14 -14h7v28h-7zM500 882.999v-56l14 -14v56zM626 868.999v-7l14 -14l7 7v28h-7zM388 833.999h14v-14h-14v14zM276 812.999v-14h21v14h-21zM640 805.999v-21h7v21h-7z
M185 777.999l-7 -49v-49h14l7 21l-7 77h-7zM143 770.999v-70h14v35l-7 35h-7zM591 728.999v-21h14v7zM234 714.999v-35h7v35h-7zM325 707.999v-35h7v35h-7zM640 700.999v-21l14 14v7h-14zM367 637.999l14 -14h21l-7 28h-14zM234 644.999v-21h7v21h-7zM185 637.999v-7h14v7
h-14zM241 560.999l-7 -7v-7l7 -7h14v7zM171 371.999v-14h7v14h-7zM430 336.999v-7l14 -14h7v21h-21zM402 119.999v-28h14v28h-14zM206 98.999v-7l14 -14v21h-14zM304 98.999v-21l14 -14v35h-14zM206 49.999v-84h14v98zM444 28.999v-21h7v21h-7zM465 -48.001l7 -7v-21
l-14 -14h-7v28z" />
    <glyph glyph-name="G" unicode="G" horiz-adv-x="989" 
d="M411 1739l7 -0.000976562c10.667 0 17.667 -11.667 21 -35h7c1.33301 23.333 6 35 14 35l28 -7l21 7c7.33301 -18.667 14.333 -28 21 -28h7l14 28c140 -31.333 210 -73.333 210 -126c0 -14 4.66699 -21 14 -21v35h7c46.667 -32 70 -69.333 70 -112v-14
c46.667 0 70 -102.667 70 -308l-7 -7v-7l14 -98l-7 -21h-14l-21 7l-35 -7h-182l-21 14l-14 -14h-7l-21 14l-14 -14l-28 21l-7 -7h-7l-7 49l7 7l-7 35v49l21 28l-7 56l7 42c-23.333 70 -49 105 -77 105h-28l-42 -70l14 -21l-7 -7v-28l7 -7l-7 -7v-728h-21v14h-7
c-4.66699 -37.333 -11.667 -56 -21 -56l-7 7v7l7 7v7l-7 7h-21l7 -49h14l7 7h7c0 -12.667 11.667 -26.667 35 -42l7 -21l-7 -35l7 -70l-14 -14l21 -28v-7l-7 -7l28 -105l-7 -21l14 -42v-147h7l7 7h7l-14 147c0 46.667 16.333 70 49 70c28 0 42 70 42 210v189l-14 14h-21
l-7 -7h-7l-14 21v21l-7 224l7 7h63l7 -7l21 7l21 -14l42 14v-7l7 7h189l42 -7l28 7l14 -21v-623l-7 -7l7 -7v-35h-14l-7 7h-7v-63c18.667 0 28 -4.66699 28 -14l-7 -56l7 -28l-7 -21l7 -63l-7 -7h-28c-9.33301 0 -14 9.33301 -14 28l-7 7h-7c0 -28 -14 -42 -42 -42h-35l-7 7
l-7 -7h-70l-21 21v42c0 16.667 9.33301 35.334 28 56.001h-14c-3.33301 23.333 -10.333 35 -21 35c0 -23.333 -16.333 -35 -49 -35c0 -36 -11.667 -59.333 -35 -70c0 -26 -46.667 -54 -140 -84h-70c-24 0 -38 7 -42 21l-7 -7h-14l-21 21v77l7 98l-7 28l7 7v7l-14 105l7 21
l-7 21h-21l-7 -28h-14l-14 63h-7l-7 -35l7 -42h14l7 7c18.667 -2.66699 28 -19 28 -49h7l-7 -7v-7l7 -259l-7 -7c-55.333 27.333 -95 62.333 -119 105v42l-7 -7h-7l7 -7v-14c-28 0 -58.333 63 -91 189l7 35h14v-14h21v14l-7 7v7h7l-7 21h-21v-14h-7l-14 35l7 84l-14 42v609
c0 70 9.33301 130.667 28 182l-14 42l14 154l7 -7h21v56c0 34.667 25.667 69.667 77 105c0 14 9.33301 25.667 28 35l7 -7v-49h7l14 14v70h21v-63l14 -14h7v42l-7 49l56 28l14 -14v-70l14 -14l7 7h7l-7 84v21zM530 1683v-21h7v21h-7zM530 1648v-28l14 14zM306 1641v-56h14
v56h-14zM467 1606l-7 7h-14l-14 -63l21 -14h7l14 28v35c14 0 21 4.66699 21 14v14h-7zM579 1613v-140h14v140h-14zM166 1578v-7l14 -14v35zM264 1564v-21l14 -14v49zM796 1578v-21l21 7v14h-21zM173 1529v-70h14v35l-7 35h-7zM138 1522v-42h14v42h-14zM362 1452l-7 -7v-14
l14 -14h7v21zM635 1452v-84h14v84h-14zM320 1424v-7l14 -14l7 7v28h-7zM733 1424v-28h14v28h-14zM677 1396v-14l14 14h-14zM180 1375l7 -21h7v28l-7 -7h-7zM369 1340v-42h14v42h-14zM236 1312v-119h14v105zM187 1305v-42h21v28l-14 14h-7zM824 1305v-56h14v56h-14zM285 1298
l-7 -42l14 -154h7v63l-7 56l7 56v21h-14zM103 1291v-35l14 -14l-7 -35v-42h14v49l7 7l-7 21l7 21h7v-21h-7c10.667 -28 20 -42 28 -42l14 28c-9.33301 14 -14 32.667 -14 56h-21v-14h-14c0 14 -4.66699 21 -14 21h-7zM866 1284v-14h7v14h-7zM187 1235v-21h21v7l-14 14h-7z
M194 1186v-7l14 -14v21h-14zM600 1179v-42l14 -14v56h-14zM642 1179v-35l14 -14l7 7v28l-14 14h-7zM152 1165v-21h7l14 14v7h-21zM110 1151v-14l14 -14v28h-14zM558 1137v-7h21v21h-7zM194 1095v-14l7 -35h7v63zM341 1095v-56h14v42zM68 1081v-21h14v21h-14zM285 1046l7 -35
h14v56h-7c-9.33301 0 -14 -7 -14 -21zM166 1004v-21h7v21h-7zM68 926.999v-14l14 -14l7 7v7l-14 14h-7zM348 891.999l-7 -7l7 -49h14l-7 28l7 21l-7 7h-7zM117 863.999v-21h21v7l-14 14h-7zM299 856.999v-14l-7 -70l7 -42h21v14l-7 7l7 21l-7 84h-14zM614 786.999l-7 -7v-7
l7 -21l14 14v7zM250 751.999h-28c0 14 -4.66699 21 -14 21l-21 -28l-21 7v-35l35 7v-7l7 -28h7c9.33301 0 14 9.33301 14 28c28 0 42 21 42 63h-7c-9.33301 0 -14 -9.33301 -14 -28zM348 758.999l-7 -21l7 -7h14v14zM390 758.999l-7 -28c4.66699 -28 11.667 -42 21 -42v70
h-14zM523 737.999v-14h-7l14 -42h7l7 35v21h-21zM348 688.999v-42h14v42h-14zM110 618.999v-7l28 -21v42h-14zM614 618.999v-7h14v21zM166 625.999v-35l14 -14v49h-14zM215 583.999v-21h21v7l-14 14h-7zM306 562.999v-42c2.66699 -28 9.66699 -42 21 -42l7 77l-7 21h-7z
M250 569.999v-14h21v14h-21zM131 541.999v-21l14 14v7h-14zM264 541.999l-7 -7l7 -21h14v14zM628 457.999v-14h7v14h-7zM754 450.999v-28h21v14l-14 14h-7zM82 401.999l-7 -7v-7l14 -14h7v14zM579 401.999v-14h14v14h-14zM124 394.999v-7l7 -35h14v42h-21zM180 380.999v-42
h14v42h-14zM362 373.999v-21l14 14l-7 7h-7zM628 366.999v-35h7v35h-7zM320 359.999l-7 -7l7 -35l-7 -21l7 -21h14l7 35v7c0 24 -7 38 -21 42zM586 359.999l-7 -7v-14h21v7zM705 359.999v-7l14 -14h7v21h-21zM173 317.999v-14l14 -49l21 14l-14 63h-7zM810 324.999v-35h14
v21zM138 317.999l-14 -42l14 -119v-21l21 -7v168zM852 275.999l7 -35l-7 -21l14 -140l-7 -21l7 -49h7l7 112l-7 98l7 35l-7 21h-21zM187 247.999l-7 -49l7 -42v-77h14l-7 7v7l21 28v21l-7 7v7l7 7h7l7 -7h7l-7 -7v-7l7 -21h14v14h7l-7 7v7l7 35l-7 7h-7l7 7v21h-7l-21 -14
h-7l-21 21h7l-7 21h-7zM369 247.999v-273l21 7v14l-7 21l7 35v112l-14 63l14 14v7h-21zM229 233.999v-7h14v7h-14zM817 233.999v-14h7v14h-7zM418 219.999v-14h7v14h-7zM334 184.999v-28h7v28h-7zM677 156.999v-21h7v21h-7zM628 149.999v-56h14v42zM593 142.999l-7 -7v-7
l7 -77l14 14l-7 21l7 42zM411 121.999v-56h14l7 42l-7 28zM229 114.999v-21h14v21h-14zM544 65.999v-14h7v14h-7zM411 23.999v-77h7l14 14v28l-7 35h-14zM460 -46.001v-21h7v21h-7z" />
    <glyph glyph-name="H" unicode="H" horiz-adv-x="969" 
d="M50 1637h140l7 -70l21 7v63h14l14 -14l28 14c9.33301 -10.667 14 -27 14 -49c8 0 15 16.333 21 49h14l7 -35h7l28 35l28 -14l14 14h14l7 -35v-371l-7 -49l7 -7h-7l7 -7v-91c0 -6.66699 -9.33301 -13.667 -28 -21c0 -22 16.333 -40.667 49 -56l21 14l28 -14l28 7
c4.66699 -37.333 11.667 -56 21 -56v77l-7 7l7 7v7l-7 70l7 42l-7 42l7 105l-7 259v49l14 14c6 -28 15.333 -42 28 -42c0 32.667 7 49 21 49l14 -42l-7 -28l7 -70l-7 -70h-7l-14 14v84l-7 7l7 7v7l-14 14l-7 -63l7 -28l-7 -63v-112h21v91l7 35h7l14 -14v-56l7 -56l-7 -35
l14 -112l14 14l-7 42c0 32.667 4.66699 49 14 49l21 -7l7 7v7l-14 21l-7 -7h-7l-14 14v112l14 14h7v-63h14v7l-7 84l-21 -14h-7l-7 35l7 7v7l-7 140l7 21h231c4.66699 -46.667 11.667 -70 21 -70l7 70h7l14 -14v-182l-7 -7l7 -7v-154h-14l-7 7h-7v-63l7 7h21l-7 -42l7 -21
l-7 -7l7 -35v-119l-14 -21v-49c1.33301 -23.333 6 -35 14 -35v-14h-7l7 -385v-385l-14 -14l-21 7l-7 -7v-14l21 -7l7 7l14 -21v-161l-21 -21h-147c-9.33301 0 -14 11.667 -14 35h-14c0 -23.333 -11.667 -35 -35 -35h-70l-42 7l-21 -7l-14 21v112c1.33301 23.333 6 35 14 35
l28 -14l14 14h49v7l-35 70l-7 -35l-7 7h-14l-35 -7c-9.33301 18 -14 43.667 -14 77v182l14 14l14 -14l14 21l-14 42l-7 -7h-7l7 -7v-7l-14 -14l-7 70l28 42v7l-28 14l7 35v70c-18 0 -29.667 16.333 -35 49h-7c0 -28 -4.66699 -42 -14 -42s-14 11.667 -14 35h-14
c0 -23.333 -14 -35 -42 -35v-84l7 -28l-7 -7l14 -154l-7 -42l7 -35l-7 -70v-28l-7 -7l7 -7v-98h-21v98l-14 14l-7 -7h-7l7 -7v-77h14v-21h-14v-14h14v-7l7 7h21l7 -84l-7 -7v-7l-7 7h-14v-56l-21 -21l-28 28l-14 -28l-35 7l-21 -7l-21 7l-7 -7h-7l-28 14l7 35v112h-14v-154
l-35 -7h-105l-21 21v56l-7 175l7 63l21 7l7 -7v21c-23.333 0 -35 14 -35 42v7l14 63l-14 28c3.33301 23.333 15 35 35 35v56l-28 7v63c18.667 0 28 7 28 21l-14 56l-14 679v238l-7 28l7 7v7l-7 63zM330 1581v-21h14v7zM162 1560v-14h-7l7 -49l7 -462l7 -7h7v7l-7 518l-7 7
h-7zM106 1504v-14h21v28h-7zM246 1497v-7l14 -14v21h-14zM295 1462v-28l14 14v14h-14zM792 1441l-14 -21l7 -7h21v14zM883 1434v-14h-7l7 -21h14v35h-14zM344 1378v-63h14v49zM295 1357v-70h14v56zM799 1259v-21h14v21h-14zM400 1203v-21l14 14l-7 7h-7zM890 1203v-21h14v7z
M806 1175v-42l14 14v28h-14zM631 1133l-7 -7v-21h21v14zM806 1077v-168l14 -14v182h-14zM491 965v-14l14 -14v42zM582 958v-21h7v21h-7zM806 867l14 -14v28zM407 825v-28l14 14zM449 818v-14h7v14h-7zM365 615v-91l14 -14l7 7l-7 49v63zM547 538v-14h14v14h-14zM379 412v-21
h7v21h-7zM554 328v-14h14v14h-14zM554 279l7 -7h7v21zM701 181v-7l-7 -91l14 -14l21 7v63c0 24 -7 38 -21 42h-7zM806 111v-7c23.333 0 35 -16.333 35 -49c10.667 0 17.667 11.667 21 35l-14 35zM750 111v-28h21v28h-21zM659 55l14 -14v14h-14zM295 34v-126h21v42l-7 70l7 7
l-7 7h-14zM841 27v-42h21v7l-7 35h-14z" />
    <glyph glyph-name="I" unicode="I" horiz-adv-x="485" 
d="M75 1773l98 0.000976562l28 -7l28 7l14 -21v-77l-21 -21l-28 28v-14h-7l7 -70v-105h7l21 21v56l-14 21v35l14 14l21 -56v-119l21 -7l7 49l-7 21l14 42h7l14 -42v-7h-14v-28l21 -7l7 56l-7 7v7l7 56l-7 105l14 42l28 -14c0 18.667 4.66699 28 14 28h56v-14h7l-7 -7v-42
l14 -133l-7 -49l7 -105v-595l-14 -56v-7c1.33301 -23.333 6 -35 14 -35l-7 -7l7 -49v-14l-7 -168l7 -56l-7 -35l7 -42l-7 -28l7 -112v-182l-21 -21h-28c-46.667 0 -70 4.66699 -70 14l-42 -14l-56 7l-7 -7h-7l-7 7l-84 -7h-42c-9.33301 0 -16.333 18.667 -21 56l7 28l-7 147
v84h7l21 -14l7 7v7l-7 49l-7 -7h-21v7c0 84 9.33301 133 28 147v14c-14 17.333 -21 33.666 -21 48.999v28l7 63l-7 70v14l7 56l-7 77v224l-7 112l7 7v7l-7 98v84l7 84l-7 7l7 7h7c0 -14 4.66699 -21 14 -21h7l7 42l-7 28l7 21l-7 7h-14l-7 -56h-7l-7 21l7 35l-7 56l14 77
l-7 21zM194 1752v-63h7v63h-7zM103 1738v-21h14l-7 21h-7zM341 1731l-7 -35l7 -7h7v42h-7zM152 1710v-7l7 -21l-7 -42h14v70h-14zM334 1661l14 -14v28zM103 1640v-21l14 -14l7 28l-7 7h-14zM341 1556v-21h7v21h-7zM159 1486v-42h14v7l-7 35h-7zM299 1479v-21h7v21h-7z
M110 1430v-84h21l7 49l-7 35h-21zM152 1395v-7h7l14 14v7h-7zM250 1402v-21l14 -14v35h-14zM75 1367v-14l14 -14v28h-14zM355 1227l-7 -49v-63c18.667 0 28 25.667 28 77l-14 35h-7zM299 1136v-21l14 -21v-98l14 -14v140l-14 14h-14zM257 1122
c3.33301 -65.333 10.333 -98 21 -98v105zM271 961.001v-98l14 -14l14 28c-9.33301 10 -14 35.667 -14 77l-7 7h-7zM320 905.001v-21h7v21h-7zM376 737.001v-14h7v14h-7zM96 730.001v-21h14v21h-14zM320 723.001v-21l14 14l-7 7h-7zM285 695.001l7 -7h7v21zM236 674.001v-35
h14v35h-14zM334 485.001l-7 -21l7 -7h14v14zM110 457.001l-7 -34.999v-56c0 -34.667 7 -53.334 21 -56.001v147h-14zM152 359.002v-63l14 14v35zM152 254.002v-63c0 -9.33301 18.667 -16.333 56 -21l7 -7v-49h14l-7 21l7 35v28l-14 14h-14v-14c-8 0 -19.667 18.667 -35 56
h-14zM117 233.002v-21h7v21h-7zM292 212.002v-14h21v28h-7zM68 121.002v-21h7v21h-7zM117 121.002v-63c9.33301 0 16.333 18.667 21 56l-7 7h-14z" />
    <glyph glyph-name="J" unicode="J" horiz-adv-x="641" 
d="M193 1536l209.999 -0.000976562l63 -7l21 7l21 -14l28 14l14 -21v-105l7 -28l-7 -21l14 -497v-392l-14 -56l14 -49v-210c0 -247.333 -74.667 -371 -224 -371l-42 -7l-42 7l-7 -7h-7l-35 7l-7 -7h-7l-35 14l-7 -7v-7l-35 7l-7 -7h-7l-28 7h-7l-7 -7h-7l-14 21v266l14 21
l21 -14l84 28l7 -7l14 63l35 -7v42h-14l-7 -7h-7l-7 7l7 434v231l-7 28l7 7l-7 84v70l7 77l-7 7v7c6.66699 50.667 18.334 90.334 35.001 119.001v14c-14 0 -21 4.66699 -21 14v21l7 21l-7 35v35l7 77l-14 42zM507.999 1515l-7 -63l7 -35l-7 -35l7 -21l-14 -49l14 -49h21
l7 28l-21 224h-7zM220.999 1487l7 -35h7l7 28l-7 21zM451.999 1480v-70l7 -7v-7l-7 -7h14v-21l-14 -21h21l14 42v14l-21 77h-14zM395.999 1417l14 -69.999l-7 -21l14 -84l21 21h7l-7 21l7 21h21v-14h14c0 21.333 -14 37.666 -42 48.999c-9.33301 18 -14 43.667 -14 77v49
c-10.667 0 -20 -16.333 -28 -49zM367.999 1410v-105l14 -14l7 21h-7l7 7v91h-21zM332.999 1333v-14h14v28zM458.999 1340v-7h14v7h-14zM241.999 1298l-7 -49l7 -7h7l7 7v7l-7 35l7 7h-14zM339.999 1298v-21h7v21h-7zM339.999 1221v-14h-7l7 -21l14 14v7zM374.999 1214v-21
h14v21h-14zM514.999 1200l-7 -42l7 -7v-7l-7 -35c7.33301 -18.667 14.333 -28 21 -28l7 35l-14 84h-7zM416.999 1179v-7l21 -21l14 14c-6.66699 18.667 -13.667 28 -21 28zM430.999 1123v-21l14 14l-7 7h-7zM521.999 1053v-21h14v7zM430.999 1046v-98l7 -49h7v133z
M500.999 416v-35h14v35h-14zM234.999 220v-14l14 -14l7 21l-7 7h-14z" />
    <glyph glyph-name="K" unicode="K" horiz-adv-x="989" 
d="M71 1669l14.001 -0.000976562l21 -14l21 14h7l21 -14l14 14l21 -14l35 14l21 -14l21 14l7 -7h7l35 7l14 -14l42 7l14 -14l7 7v7l35 -35l-7 -70v-14l7 -28l-7 -7l7 -84v-63l-7 -63l7 -70v-189c14 0 65.333 198.333 154 595c18 23.333 39 35 63 35l56 -7l56 7h7l28 -7l28 7
h42l21 -14l21 14l42 -7l-77 -280h-14l-7 35l-35 -35c-4.66699 46.667 -11.667 70 -21 70v-14l7 -70h14l7 7h7l21 -35c-18.667 -107.333 -58.334 -263.666 -119.001 -468.999l63 -252v-7l-14 -21v-28h14v14c17.333 0 73.333 -221.667 168 -665h-77l-63 7l-70 -7h-35l-35 7
l-42 -7h-42c-9.33301 0 -14 7 -14 21l7 21l-28 28l7 7v7c-18.667 42 -28 100.333 -28 175v105h-14v-35h-14c-23.333 146 -49 265 -77 357h-7l-7 -56l7 -105v-315l-7 -133l7 -63l-21 -14h-210l-77 7l-56 -7l-14 21v42l7 35l-14 105l7 35l-7 49l7 161l-7 49l7 70v161l7 7l-7 7
v238l-7 371l7 28l-7 70v14l7 280zM694.001 1648v-21l21 -7v28h-21zM645.001 1641v-21h14v21h-14zM239.001 1599v-21h14v7zM148.001 1592v-21h7v21h-7zM372.001 1578l14 -14v28zM701.001 1578v-21h14v21h-14zM743.001 1578v-7h14v7h-14zM750.001 1564v-28h7v28h-7z
M876.001 1543v-28h14v28h-14zM827.001 1501v-28c2.66699 -28 9.66699 -42 21 -42v35l-7 35h-14zM701.001 1473l7 -21l-7 -56l7 -49h14v112l-14 14h-7zM568.001 1445v-49l7 -105h28l-7 35v7l7 35l-21 21v56h-14zM750.001 1438v-28h14v28h-14zM617.001 1424v-21h14v21h-14z
M652.001 1417v-28h14v14zM666.001 1298v-35h14v35h-14zM750.001 1291v-7l7 -35h14v35zM617.001 1270l-7 -7v-7l21 -21v21zM673.001 1249v-21h7v21h-7zM253.001 1193v-28h14v14zM484.001 996.999l7 -21l21 14l-7 21zM575.001 1011v-7h14v7h-14zM169.001 961.999v-91h14v91
h-14zM624.001 947.999l14 -14l7 7l-7 21zM127.001 947.999v-7l14 -14v21h-14zM127.001 884.999v-28h14v28h-14zM687.001 709.999v-35h7v35h-7zM736.001 660.999v-7h21v21h-7zM603.001 429.999v-168l14 -14v168zM281.001 394.999v-91h14v91h-14zM155.001 380.999v-49h7v49h-7
zM190.001 359.999l7 -35v-105h7l21 21l-7 70v42l-14 14l-7 -7h-7zM155.001 324.999v-98h21v84l-14 14h-7zM246.001 303.999v-49h14v35zM750.001 296.999l-7 -35v-14l14 -14h7v49zM701.001 233.999v-21h14v21h-14zM841.001 233.999v-14h14zM610.001 184.999v-14h7v14h-7z
M841.001 128.999v-14l21 -7v21h-21zM806.001 114.999v-42l14 -14v56h-14zM736.001 79.999l21 -7l21 7l-14 14h-14zM211.001 86.999l-7 -21l7 -21l14 14v14zM113.001 65.999l14 -21l-14 -42h28l7 35l7 -7h21v14l-7 35c-9.33301 -9.33301 -28 -14 -56 -14zM386.001 16.999
l7 -21h14l7 21l-7 21h-7c-9.33301 0 -14 -7 -14 -21zM358.001 30.999v-21h7l14 14v7h-21z" />
    <glyph glyph-name="L" unicode="L" horiz-adv-x="717" 
d="M57 1741l27.999 -7l49 7h49l7 -7l7 7h21l14 -14l28 14l28 -14l14 14h105c14 0 21 -9.33301 21 -28l-7 -35l7 -84v-777l-7 -98l7 -7l-14 -105l14 -91l-7 -126l14 -77c-11.333 -32.667 -20.666 -49 -27.999 -49l-14 84h-7l-7 -91l7 -7l35 7h7
c9.33301 -48 14 -113.333 14 -196l7 -7h14l-7 147h7l-7 7v7l14 14c10 -38.667 19.333 -59.667 28 -63l-7 -49v-49l7 -70l-21 -14h-56l-63 7l-70 -7h-28c-23.333 0 -35 4.66699 -35 14l-42 -14h-112l-21 21v28l-7 196l7 42l-7 21l21 84v21l-14 56v63l14 56v14l-14 56l7 42
l-7 70l7 49l-7 56l-7 476l7 385zM126.999 1062v-28l7 7h7l-7 21h-7zM189.999 789v-28l-7 -49h7c0 -14 -7 -21 -21 -21v-7c14 0 21 -9.33301 21 -28h7l14 14v56l-14 14l14 28l-7 21h-14zM231.999 761v-7h14v7h-14zM322.999 740v-14h-7l7 -7v-56l-7 -35l7 -7h7
c9.33301 0 14 7 14 21c0 65.333 -7 98 -21 98zM273.999 670l7 -35h-42v-35l-7 -7l7 -35l42 42l7 -35h7l14 70c-9.33301 0 -14 21 -14 63c-11.333 0 -18.333 -9.33301 -21 -28zM231.999 677l14 -14v14h-14zM91.999 628v-76.999h21l7 49
c-4.66699 15.333 -14 24.666 -28 27.999zM189.999 614.001l-7 -49l7 -21l21 21v35l-14 14h-7zM154.999 607.001l-7 -7v-7l7 -28l-7 -28v-7l14 -14l7 84l-7 7h-7zM322.999 586.001v-21h7v21h-7zM105.999 446.001v-77l14 14v49zM385.999 390.001v-21h7v21h-7zM469.999 334.001
l7 -7v-49h-7l-14 14v28zM560.999 334.001h14l14 -14c-10.667 0 -17.667 -11.667 -21 -35l-21 21v14zM504.999 327.001h14l7 -28l-7 -7h-14v35zM595.999 327.001h21v-28h-21v28zM343.999 299.001v-35l14 -14v49h-14zM196.999 264.001l14 -14l14 14l-14 14zM161.999 264.001
v-21h7l14 14v7h-21zM511.999 257.001h14c0 -23.333 4.66699 -35 14 -35l-7 -21l7 -21h7l7 21l-7 35l7 21h21l7 -35v-189l7 -7v-7h-7l7 -7v-7l-14 -14h-14l-7 21l7 7h-7c-9.33301 0 -14 -7 -14 -21l-7 -7h-7l-14 14v49l7 7l-14 77zM602.999 229.001h14
c23.333 0 37.333 -56 42 -168v-21l-7 -7l7 -7v-21l-21 -21h-14l-21 21v63l-7 105zM539.999 173.001l-14 -56l14 -84h14v126zM168.999 61.001v-35h21v35h-21zM210.999 33.001v-7l14 -14v35zM343.999 26.001l14 -14v28z" />
    <glyph glyph-name="M" unicode="M" horiz-adv-x="1286" 
d="M69 1713l105 -0.000976562l21 -21v-91h14v91l21 21h315c14 -51.333 46.667 -312.666 98 -783.999h14v7c0 94.667 18.667 272 56 532l-7 7c15.333 150.667 27 230 35 238h14l70 -7l98 7h287l21 -21v-105l-7 -49l7 -84v-756c0 -23.333 -7 -35 -21 -35v-21
c14 0 21 -11.667 21 -35v-630l-21 -21h-294l-21 21v315c1.33301 70 6 105 14 105l-14 56v602h-7l-14 -14v-14c0 -107.333 -37.333 -462 -112 -1064l-7 -7h-210c-16.667 0 -30.667 79.333 -42 238l-105 805h-7v-1022l-21 -21h-91l-21 21v84l14 56v7
c-14 16.667 -21 44.667 -21 84v49l-14 14v-42l-7 -112l7 -7v-7l-7 -7l14 -126l-21 -14h-14c-23.333 0 -35 14 -35 42h-14v-7l7 -21l-21 -14h-42c-28 0 -42 18.667 -42 56v315l7 42l-14 133l7 42l-7 49l7 56h-7l7 21l-7 84l21 35v21l-14 21v70c8 56 17.333 84 28 84h7l7 -7h7
v21h-21l-7 -7l-21 7v140l-7 98l21 35v161l-7 63l7 28l-14 133v21zM160 1573v-231l14 -14l7 28l-7 49v154zM111 1419v-7l7 -28l-14 -21c7.33301 -18.667 14.333 -28 21 -28h14v7l-14 56v21h-14zM181 1160l-7 -7v-7l7 -42l14 14v28zM762 1160v-42h14v7l-7 35h-7zM181 1097
v-105c0 -33.333 4.66699 -59 14 -77l-7 -28l7 -161l7 -28h7l7 21l-7 7l7 105v14l7 7l-28 147v84zM475 872.999v-14h7v14h-7zM244 865.999v-14h7v14h-7zM104 858.999v-28h14v14zM118 711.999l-14 -14v-21h14v-7l-7 -49l7 -21l21 21v21c-9.33301 8.66699 -14 32 -14 70h-7z
M202 690.999v-14l7 -35h7l7 49h-21zM153 683.999v-7l7 -35l14 14v28h-21zM244 606.999v-14l14 -14v28h-14zM118 585.999v-7l7 -70h7l7 49zM265 529.999v-14h7v14h-7zM125 487.999v-14h-7l7 -49v-35l-21 -21l-21 7v-14h21v-21c2.66699 -29.333 16.667 -57.333 42 -84v140
c0 60.667 -7 91 -21 91zM265 389.999c0 -9.33301 -9.33301 -14 -28 -14l-7 -7v-7l49 -7l7 7v7zM951 382.999v-14h14v14h-14zM167 207.999v-21h21l-7 21h-14zM195 186.999l-7 -7l7 -35h14v28z" />
    <glyph glyph-name="N" unicode="N" horiz-adv-x="1017" 
d="M111 1660h63.0029l7 -7l7 7h70c9.33301 0 14 -9.33301 14 -28c9.33301 0 14 9.33301 14 28h7l28 -7l7 7h7l21 -7l42 7v-7l7 -28v-42c23.333 0 39.666 -42 48.999 -126l154 -588l21 7l-14 28l7 21l-7 84v175l7 7l-7 7v105l7 133l-7 28c10 0 17 21 21 63l-14 14v56l21 63
h21l7 -7l7 7h14l28 -7l7 7h7l7 -7h7l63 7l42 -7l28 7l21 -7l21 7l14 -28l-7 -35v-14l7 -7l-7 -7v-175c-9.33301 0 -14 7 -14 21h-14v-56c18.667 0 28 -4.66699 28 -14v-49l-7 -7l7 -7v-56l-14 -14l-7 7v-28c18.667 0 28 -7 28 -21l-7 -42l7 -7l-21 -56v-14
c14 0 21 -7 21 -21c-3.33301 -32.667 -8 -49 -14 -49l14 -21l-7 -7v-224l-7 -63l7 -70v-343l7 -28l-7 -28v-21l7 -7l-7 -7v-7l7 -217v-14l-14 -14l-7 7l-42 -14l-7 7l-7 -7h-7l-21 7l-77 -7l-56 7l-56 -7h-7c-28 0 -42 14 -42 42l7 28l-21 21v7h21v49h-14
c0 -18.667 -4.66699 -28 -14 -28l-28 119l7 49c-24.667 0 -43.334 58.333 -56.001 175c-6.66699 0 -32.334 93.333 -77.001 280l-7 7v7h-14l7 -105l-7 -70h7l-7 -7v-28l7 -7l-7 -7l7 -84v-329l-7 -63l7 -42l-21 -14l-42 7l-91 -7l-35 7l-42 -7h-63l-21 21l7 21l-7 70v252
l7 42l-7 35v35l7 7l-7 7v21l7 7l-14 77h7l-7 7v21c0 9.33301 9.33301 14 28 14v7l-28 7l14 112l-7 7v14h7l-7 105v413l7 7l-7 7v49l7 7l-7 7v49l7 21l-7 35v84l14 42l-14 35l14 14v7c0 23.333 -4.66699 35 -14 35c4.66699 37.333 11.667 56 21 56zM706.003 1632l7 -7h7l7 7
v14h-7zM314.003 1632v-42h14v28zM181.003 1618v-35l7 -49h7l7 28c-2.66699 37.333 -9.66699 56 -21 56zM356.003 1618v-14l14 -14v14zM314.003 1562v-21l14 -14l7 7v14l-14 14h-7zM279.003 1555v-28h7v28h-7zM146.003 1548v-28h7v28h-7zM230.003 1548l-7 -35l7 -21h14v56
h-14zM230.003 1464v-70l14 -14v98zM713.003 1478v-14h14v14h-14zM272.003 1457v-42l14 -14v56h-14zM188.003 1450v-28l14 -14v42h-14zM902.003 1450v-14h7v14h-7zM713.003 1408v-14h14v14h-14zM363.003 1387v-14h7v14h-7zM916.003 1394h7v-14h-7v14zM104.003 1366v-7l14 -14
l7 7v14h-21zM146.003 1345v-14h7v14h-7zM111.003 1324v-14h7v14h-7zM853.003 1317v-49h14v49h-14zM237.003 1296l-7 -28h21v7l-7 21h-7zM279.003 1289l-7 -7v-7l14 -14l7 7v7zM405.003 1275l14 -14h7l7 21l-7 7h-7zM363.003 1282v-14l14 -14l7 7v21h-21zM902.003 1282v-35
l14 -14v35zM678.003 1233l-7 -28l7 -7l35 14l7 -7v-7l-7 -35h14l7 21l-7 7l7 7c-9.33301 0 -14 11.667 -14 35h-7v-14h-7l-21 14h-7zM853.003 1233v-7l7 -35h14v42h-21zM111.003 1219l-7 -7v-7l7 -7h7l7 7v7l-7 7h-7zM811.003 1212v-14h14v14h-14zM160.003 1191v-14h7v14h-7
zM230.003 1191v-7l14 -14l7 7v7l-7 7h-14zM370.003 1170v-42h14v56zM678.003 1184v-7h14v7h-14zM195.003 1170l-7 -35l7 -7h14v42h-14zM811.003 1142l7 -7h7v21zM678.003 1149v-21h14v21h-14zM860.003 1149v-14h14v14h-14zM720.003 1121v-35h14v35h-14zM678.003 1114v-35
l7 -42l-7 -21h14l7 56l-7 42h-14zM468.003 1100v-14h7v14h-7zM370.003 1058l7 -35h7v35h-14zM510.003 1023v-14l14 -14h7v28h-21zM118.003 1009v-49h14l-7 28l7 21h-14zM209.003 974v-14h7v14h-7zM769.003 953v-21h14v21h-14zM167.003 918l-7 -7v-7l14 -14l7 7v7z
M377.003 911v-14h14v14h-14zM419.003 883v-7l14 -14l7 7v14h-21zM510.003 813l14 -14v28zM559.003 806v-14h7v14h-7zM734.003 806v-21h14v21h-14zM475.003 792v-14h7v14h-7zM300.003 778v-70c0 -14 -14 -21 -42 -21v-14c25.333 0 44 -7 56 -21h7l-7 7l7 21l-7 77v21h-14z
M559.003 757v-98h14v35l-7 49l7 7l-7 7h-7zM258.003 729v-14h7v14h-7zM650.003 729v-21h14v21h-14zM608.003 722v-28h21v21zM216.003 701v-42l14 14v28h-14zM139.003 694v-21l14 14l-7 7h-7zM139.003 652v-14h14zM559.003 631v-14l7 -35h14v14l-7 35h-14zM307.003 596v-21
h14v7zM608.003 596v-14l14 -14l14 14l-21 14h-7zM699.003 596v-21h7v21h-7zM181.003 561v-21l14 -14l7 7v28h-21zM272.003 561v-21h14v21h-14zM664.003 561v-28l14 14v14h-14zM748.003 533v-84l14 -14l7 7h7c-14 26.667 -21 57 -21 91h-7zM223.003 526v-28h14v28h-14z
M671.003 519l-7 -35h14v35h-7zM223.003 449l7 -7h7v21zM839.003 456v-14h14v14h-14zM230.003 435l-7 -28h21v7l-7 21h-7zM314.003 435v-28h21v28h-21zM489.003 435v-14h14v14h-14zM664.003 428v-70h14v70h-14zM755.003 407v-21h14v21h-14zM230.003 351v-14h7v14h-7z
M664.003 330v-35l7 -49h7v84h-14zM755.003 330l-7 -49c9.33301 -11.333 14 -53.333 14 -126h7l7 35v77l-7 49l7 7l-7 7h-14zM797.003 323v-35h14v21zM888.003 323l-7 -21c0 -51.333 7 -77 21 -77v84zM580.003 309v-28h7v28h-7zM622.003 309v-21h14v7zM531.003 274v-21
l14 -14l7 7v14l-14 14h-7zM846.003 253v-14l7 -7l-7 -21l7 -21h14l7 35c-6.66699 18.667 -13.667 28 -21 28h-7zM580.003 232v-42h14v7l-7 35h-7zM895.003 197v-21h7v21h-7zM111.003 155v-21h14v21h-14zM762.003 141v-63h14v63h-14zM853.003 106v-14h7v14h-7zM622.003 64
l7 -21h21v14l-14 14l-7 -7h-7zM328.003 29v-14h7v14h-7zM636.003 29v-14h21v7zM286.003 8v-14h14v14h-14zM769.003 8v-70h14l7 28l-7 42h-14zM202.003 1v-14h7v14h-7z" />
    <glyph glyph-name="O" unicode="O" horiz-adv-x="1005" 
d="M462 1682c3.33301 -14 12.667 -23.333 28 -28c0 18.667 4.66699 28 14 28h7l7 -7l7 7h14c120 0 215.667 -49 287 -147c70 -70 105 -175 105 -315l7 -21l-7 -28l7 -133v-77l7 -280l-7 -49h7l-7 -7v-28l7 -7l-7 -7v-35c0 -270.667 -14 -406 -42 -406
c0 -49.333 -28 -103 -84 -161h-21c-8 0 -15 11.667 -21 35l7 21l-7 49h-14v-14h-7l7 -70v-56l-49 -35l-14 -14h-7v21h-7l-14 -35h-14l-7 49h-14v-21l-7 -35h-21v14l-7 49l7 7l-7 7h-7c0 -46.667 -7 -79.334 -21 -98.001l-28 14l-14 -14h-7l-28 7l-7 -7
c-112.667 12.667 -192 36 -238 70c-116.667 106.667 -175 223.334 -175 350.001l14 35l-14 49l7 56c0 23.333 -4.66699 35 -14 35l7 7v7l-7 252l7 56l-7 77v322c10.667 0 20 7 28 21l7 7c0 14 -7 21 -21 21v7l14 14l-7 49v28c0 128 70 235.333 210 322
c59.333 28 115.333 42 168 42zM476.001 1493l14 -14v28zM343.001 1465v-21l14 14l-7 7h-7zM616.001 1395v-14h7v14h-7zM441.001 1304v-322l7 -7l-7 -7v-98l-14 -21v-14h14l7 -189l-14 -42l7 -63v-7l-7 -35l7 -42l-7 -35l7 -77v-42l-7 -28c11.333 -84 32.333 -126 63 -126
c37.333 0 58.333 28 63 84l7 -7h14v28h-7l-7 -7h-7l-7 7v7l14 140l-7 7v7l7 7v7l-7 21l14 70l-14 21l7 42l-7 378v364l7 -7h14l7 21l-7 35h-14v-28h-7c-9.33301 0 -16.333 14 -21 42h-21l-7 -7l-21 7c-32.667 -21.333 -49 -49.333 -49 -84zM287.001 1374
c4.66699 -28 11.667 -42 21 -42v28l-14 14h-7zM343.001 1325v-21h14v7zM210.001 1269v-35h14v35h-14zM161.001 1220v-21l7 -35h14v56h-21zM252.001 1220v-56h7l14 14v28l-14 14h-7zM119.001 1192l7 -7h7v21zM343.001 1185v-14l14 -14v28h-14zM210.001 1150l-7 -35l7 -7h14
v42h-14zM392.001 1136v-49h14v49h-14zM168.001 1108v-7l7 -28l-7 -21l7 -7h7v49zM217.001 1003v-7h14v7h-14zM588.001 989v-14h14v14h-14zM98.001 905l-7 -7v-7l14 -14l14 14v7zM630.001 891v-14h14v14h-14zM98.001 856v-14h7v14h-7zM413.001 849v-14h7v14h-7zM679.001 835
v-28l14 14zM364.001 800v-28h14v14zM322.001 793v-133h7l7 7h7l-7 84v42h-14zM679.001 786v-42h14v7l-7 35h-7zM217.001 702v-21h7l14 14v14zM140.001 653v-14h7v14h-7zM147.001 527v-14h14v14h-14zM651.001 527v-21l14 14l-7 7h-7zM693.001 499v-21l14 -14v35h-14z
M826.001 492v-7l14 -14v21h-14zM609.001 478v-28h7v28h-7zM105.001 457v-14h7v14h-7zM112.001 310v-35l14 14v7zM203.001 296v-14h14v14h-14zM203.001 254l14 -14v28zM112.001 261v-42l14 -14v42zM574.001 177v-21h7v21h-7zM574.001 128v-7l14 -14l7 7v7zM441.001 107v-28
l14 -14v42h-14zM532.001 107v-14l14 -14v14zM707.001 100v-14h7v14h-7zM672.001 44v-14h14v14h-14zM532.001 16v-7l14 -14v35zM581.001 16v-35h14v35h-14zM539.001 -19l-7 -70l7 -28h7l7 35l-7 35l7 21l-7 7h-7z" />
    <glyph glyph-name="P" unicode="P" horiz-adv-x="917" 
d="M70 1705h132.999l7 -28h14c0 18.667 4.66699 28 14 28h49l21 -14l21 14h7l21 -14l14 14h7c9.33301 0 14 -7 14 -21l7 -7h7c7.33301 18.667 14.333 28 21 28h91c34.667 0 53.334 -9.33301 56.001 -28l-7 -21l14 -231h14v154h21l14 -63l-7 -42l7 -105l-7 -42h-7
c-9.33301 0 -14 7 -14 21h-7l-14 -14v-21l14 -14h7l7 7h7l14 -14l-7 -7l7 -84v-63l7 -35h21v35l-7 7l7 21l-14 70l7 28l-7 28l7 28l-7 7v7l7 7l-7 35v56l-7 105l7 35l-7 98l14 14h7l7 -35v-70l-7 -7l7 -42h7c9.33301 0 14 7 14 21l-7 112l21 7
c121.333 -56 182 -158.667 182 -308l-7 -7h7c0 -18.667 -9.33301 -28 -28 -28c0 -9.33301 7 -14 21 -14l7 -21h-7l7 -7v-14l-7 -7l14 -35l-14 -49l14 -63v-21c-12 -189.333 -30.667 -294.333 -56 -315c0 -12.667 -21 -36 -63 -70h-14v112l-14 14l-14 -21v-14l14 -105l-7 -7
h-14l-7 7h-7l-21 -21l-7 7v28l7 35l21 -14h7l7 21l-7 35v21l-21 7v-14h-7l7 -7v-28h-7l-21 56v63l-14 14l-7 -42l7 -56l-7 -7h-7l7 -84v-28c0 -18.667 -28 -28 -84 -28h-63l-7 7c-32.667 -6 -49 -13 -49 -21v-35l-7 -63c9.33301 -18 14 -43.667 14 -77v-371l-7 -42l7 -35
v-49l-21 -21h-21l-56 7l-77 -7h-182l-7 7h-7l7 35v28l-14 21v525l-7 28l7 7l-7 84v140c1.33301 56 6 84 14 84l-7 49v21l-7 644h7l-7 7v42zM524.999 1670l-7 -63l7 -7h7l7 7h7l-7 35v28h-14zM125.999 1607v-21l14 14l-7 7h-7zM258.999 1593v-7h14v7h-14zM132.999 1558v-63
l14 -14l7 7v70h-21zM307.999 1544v-49h14v35zM496.999 1509l28 -28h7l14 14l-7 7v7l7 28l-7 7zM349.999 1537v-7l14 -14v21h-14zM706.999 1537v-105h7c14 4.66699 21 18.667 21 42v14l-14 49h-14zM216.999 1502v-21h7v21h-7zM671.999 1446v-49l14 14v35h-14zM265.999 1425
l14 -14v28zM447.999 1404v-434l14 -14h28c51.333 0 77 53.667 77 161l-7 70l7 105c0 74.667 -39.667 112 -119 112zM678.999 1362l-14 -49l7 -7h28v21l-7 35h-14zM223.999 1327v-28l14 -14l7 35l-7 21zM412.999 1222v-21h7v21h-7zM230.999 1215v-14h14v14h-14zM692.999 984
v-21l14 14l-7 7h-7zM608.999 774v-21h14v21h-14zM517.999 711v-21h14v21h-14zM349.999 634v-21h7v21h-7zM370.999 116v-21h14v7zM104.999 53v-14h7v14h-7zM335.999 53v-28h7l7 7h7l-7 21h-14z" />
    <glyph glyph-name="Q" unicode="Q" horiz-adv-x="965" 
d="M418 1753l14.001 -0.00195312l28 -21c0 14 4.66699 21 14 21h14l7 -7l7 7h28l14 -112h7l7 42l-7 56l7 7h14c9.33301 0 14 -7 14 -21l7 -7h7c0 14 4.66699 21 14 21c11.333 0 18.333 -23.333 21 -70h14v35l14 14c78 -38 129.333 -77.667 154 -119l-7 -35l7 -7h7l21 7
l14 -42v-49l-7 -35h-14l-7 49h-21l-7 -77c0 -23.333 4.66699 -35 14 -35l-7 -35v-49l21 -21l14 14c14 -22.667 21 -53 21 -91v-21l-7 -7l7 -7v-7l-7 -28c3.33301 -28 8 -42 14 -42l-7 -7v-7l14 -14l14 63l-7 7l7 21l-7 56h7l14 -14v-7l-7 -28l7 -28v-7l-7 -7l7 -7v-7
l21 -518c0 -197.333 -21 -335 -63 -413c-32.667 -45.333 -91 -82.666 -175 -111.999v-14c0 -51.333 23.333 -77 70 -77v-35h14v14l-7 7v7l7 7h133c9.33301 0 16.333 -16.333 21 -49c0 -74.667 -9.33301 -112 -28 -112h-7v-21h28v-14l-14 -14h-105l-7 -7l-7 7h-7l-56 -7
l-49 7l-7 -7h-7l-70 14l-7 -7h-7c-102.667 0 -154 56 -154 168l-7 119v63l-28 168h-7v-14c0 -68 4.66699 -119.333 14 -154l-7 -42v-28l7 -7l-7 -7v-28l7 -7v-7l-7 -7h-7c-9.33301 0 -14 9.33301 -14 28h-14v-21c-72.667 0 -145 46.667 -217 140
c-38.667 51.333 -62 112 -70 182l21 21v63h-14v-35h-14l-7 28h7c-9.33301 24.667 -14 73.667 -14 147l7 175l-7 7h7l-7 7v77l7 70l-7 35l7 42l-7 140v77l14 14l7 -7c32.667 -11.333 49 -20.666 49 -27.999l14 -14l7 35c-6.66699 19.333 -18.334 33.333 -35.001 42l-7 -7h-7
l-14 14l-21 -14l-7 42c0 170 44.333 307.667 133 413c14 0 21 7 21 21l7 7h21v-63h21v28l7 35h7c14 0 21 -9.33301 21 -28l-14 -182c9.33301 -14 14 -32.667 14 -56h7l14 119l-14 42l14 112l-7 42l63 21l7 -7h7c4.66699 14 18.667 21 42 21zM453.001 1718l-7 -35l7 -35
l14 14v42zM369.001 1704v-35h7v35h-7zM488.001 1683l14 -49h7v63h-7zM593.001 1697l-14 -28v-14l14 -28c9.33301 0 14 7 14 21l-7 49h-7zM264.001 1697v-21h-14v7zM327.001 1690v-35h7v35h-7zM453.001 1634v-13.999l-7 -133l14 -21c-14 -18.667 -28 -74.667 -42 -168l-7 -7
l14 -42v-28l-7 -77l7 -7v-7l-7 -7l14 -413l-7 -7h7l-7 -21l7 -7v-7l-14 -42l7 -105v-189l14 -98l-14 -14v-7l14 -14h7v21h21l7 -49l-7 -21h-7c-3.33301 23.333 -10.333 35 -21 35v-98c0 -121.333 7 -182 21 -182v28l7 63l-7 70v49l14 14l7 -49v-56l21 -7v98l-14 42l7 28
l-7 28l7 7h21v-7c0 -70 7 -105 21 -105l7 42l-7 21l7 28l35 -7v175h7c9.33301 0 14 -9.33301 14 -28l7 -7h7l7 42l-7 63h-14c0 -23.333 -4.66699 -35 -14 -35h-7c0 23.333 -11.667 37.333 -35 42v63l14 42l-14 28l7 126l-7 175l7 98c18.667 0 28 9.33301 28 28l-7 7h-7
l-7 -7h-7l-7 7v7l7 161l14 14v21l-14 14l14 49c-18.667 41.333 -28 78.666 -28 111.999l7 35c-24.667 24.667 -48 38.667 -70 42l-7 7v7l7 35l-14 84l7 28l-7 7h-7zM411.001 1599v-14h14v14h-14zM628.001 1599v-14l21 -21l14 21l-21 14h-14zM488.001 1564l7 -42l-7 -7l7 -7
h7l7 7v63h-7zM369.001 1571l-7 -70h14l14 28v7c-9.33301 0 -14 11.667 -14 35h-7zM726.001 1557v-14h7v14h-7zM327.001 1536v-14h-7l7 -49h14v14l-7 7l7 21l-7 21h-7zM642.001 1536l-14 -14v-7l14 -14h7v35h-7zM775.001 1536l-7 -35h14v35h-7zM593.001 1529v-35l14 14l-7 7
l7 7l-7 7h-7zM544.001 1522v-14l14 14h-14zM726.001 1522v-56h14l7 56h-21zM684.001 1515v-49h7l14 14l-7 35h-14zM236.001 1473v-14h21v14h-21zM880.001 1466c10.667 0 17.667 -16.333 21 -49h-7l7 -7v-14l-7 -7l14 -28l-21 -14l-7 7v21l7 7l-7 7v7l7 21l-7 42v7z
M103.001 1445v-21l14 -14v35h-14zM726.001 1445v-21l14 -14v35h-14zM733.001 1403c0 -42 -4.66602 -63 -13.999 -63c3.33301 -56 12.666 -84 27.999 -84c18.667 0 28 -4.66699 28 -14v-7c0 -9.33301 -7 -14 -21 -14l-21 7v-28c42 0 63 23.333 63 70v7
c0 23.333 -11.667 35 -35 35l-21 63l7 21l-7 7h-7zM838.002 1410h14v-21h-14v21zM285.002 1375v-21h7v21h-7zM845.002 1382h7v-14h7l-7 -21h-7l-14 14v7zM691.002 1347l-14 -28l14 -77l-7 -7l7 -70v-161c20.667 0 34.667 -11.667 42 -35h7c18.667 30 28 53.333 28 70v28
c-14 0 -21 25.667 -21 77l-7 7h-7v-56l-7 -35c-14 0 -23.333 32.667 -28 98l7 7v7l-7 28l14 14v7l-14 21v63l7 35l-7 7h-7zM285.002 1340v-21h7v21h-7zM852.002 1333v-14h-14zM901.002 1333l7 -7v-84l-14 -14l-14 35c2.66699 46.667 9.66699 70 21 70zM271.002 1256v-7
l14 -21v-147h7l7 7h7l-7 42l7 28l-14 119zM824.002 1207v-14h14v14h-14zM824.002 1179v-7l-7 -49l7 -70v-7h14v84l7 28l-7 21h-14zM383.002 1144l-7 -28l-35 14l-7 -7v-7l7 -35h21v21l35 -28h7v7c-2.66699 42 -9.66699 63 -21 63zM782.002 1144v-56h14v56h-14zM656.002 1032
v-7l14 -14v21h-14zM124.002 996.999v-7h14v7h-14zM124.002 982.999v-28l14 14zM691.002 982.999c0 -23.333 -4.66699 -35 -14 -35l-7 21l-7 -7h-7l7 -84v-28l14 14l-7 28l7 35h7c9.33301 0 14 -7 14 -21l7 -7h7l21 7v49l-35 28h-7zM82.002 968.999v-42l14 -14h7v21l-7 35
h-14zM614.002 968.999v-49l14 14v21zM292.002 961.999l-7 -7v-14h21v7zM390.002 954.999v-7l14 -14v21h-14zM558.002 947.999v-28l21 -7l7 7v7l-21 21h-7zM614.002 905.999v-49l14 -14v49zM579.002 835.999v-84l7 -35l14 14l-7 98v7h-14zM754.002 758.999v-7l14 -14v21h-14z
M96.002 751.999v-21h14v7zM712.002 737.999l7 -119h7l7 35l-7 7v7l7 28l-7 42h-14zM670.002 716.999v-14h14v14h-14zM754.002 709.999v-21l14 -14l7 7v14l-14 14h-7zM677.002 639.999v-14.001l7 -217h14v175c0 34.667 -7 53.334 -21 56.001zM635.002 590.998v-35h7l14 14
l-7 21h-14zM719.002 583.998v-21h7v21h-7zM852.002 548.998v-14l14 -14l7 7v21h-21zM817.002 527.998v-14h14v14h-14zM600.002 506.998v-49h14v49h-14zM376.002 485.998v-90.999l7 -105h7c0 47.333 4.66699 84.666 14 111.999v42zM733.002 471.999v-28h14v28h-14z
M334.002 450.999v-14h14v14h-14zM642.002 415.999v-28h7l14 14v14h-21zM334.002 408.999l-7 -21l7 -70v-84l-14 -14l-14 14h-7v-70h21v49h14l7 -42l14 14l-14 154l7 42v28h-14zM292.002 401.999v-21l14 -14v21zM292.002 303.999l7 -7h7v21zM544.002 317.999l14 -14v-77
l-14 -14l-7 7v49zM264.002 233.999l-14 -21l14 -42l14 14v35zM215.002 226.999v-42l14 -14l7 49l-7 7h-14zM698.002 226.999v-21h14v21h-14zM166.002 212.999v-21h14v21h-14zM341.002 156.999l-7 -7v-28h21v21zM264.002 149.999l-7 -28l7 -98h14v35l-7 42l7 28l-7 21h-7z
M572.002 121.999v-84l14 -14v35l-7 49l7 7l-7 7h-7zM313.002 100.999v-98h14v98h-14zM222.002 86.999v-35h7v35h-7zM537.002 51.999v-14h7v14h-7zM495.002 9.99902v-21h7v21h-7zM537.002 9.99902l-7 -49l7 -28l14 14l-7 63h-7zM579.002 9.99902v-21h7v21h-7z
M621.002 2.99902v-14l7 -35h7v14h7c-6 23.333 -13 35 -21 35z" />
    <glyph glyph-name="R" unicode="R" horiz-adv-x="941" 
d="M124 1628l6.99707 -7h7l21 7l7 -28h21c9.33301 0 14 7 14 21h14v-35h7l21 14h7l14 -112h7l7 42h14l14 -28v-7l-7 -77l21 -28l7 49l-7 63h42l-7 7v21h14v21l-21 21c0 -14 -4.66699 -21 -14 -21l-28 21h-7l-7 -7h-7l-14 49l-35 -7l-7 7v7h14v7l7 -7h35l49 7l14 -49h7l14 42
h56c2.66699 -18.667 9.66699 -28 21 -28l14 14l28 -28h7v14h14v-21l14 -56v-56h21c0 28 4.66699 42 14 42h70l21 14c4.66699 -42 11.667 -63 21 -63l21 7c10.667 -12.667 17.667 -36 21 -70c9.33301 0 14 9.33301 14 28l7 7h7c9.33301 0 14 -11.667 14 -35h21l7 42l-7 7v7
l7 7v7l-14 84h7c30.667 0 68 -74.667 112 -224v-28l-28 -7v-42h14v35h14l7 -35v-70l7 -7l-7 -7v-7c-7.33301 -186.667 -23.666 -280 -48.999 -280h-7v42h-7c0 -65.333 -16.333 -98 -49 -98l-70 -28v-7c121.333 -54 182 -131 182 -231l-14 -70l7 -21l-42 -7l7 -7
c28 0 42 -42 42 -126v-203l7 -28l-7 -28v-98l7 -42c-6 -23.333 -13 -35 -21 -35l-14 14c0 -14 -4.66699 -21 -14 -21l-7 7l-35 -14l-28 7l-28 -7l-7 7v56h-7l-7 -7h-7l7 -35v-7l-7 -7v-7l-21 7l-49 -7v7l-7 -7h-63c-28 0 -42 16.333 -42 49l7 35l-7 63v28l14 14h21l21 -14
l7 7v21c0 9.33301 -16.333 14 -49 14c-9.33301 23.333 -14 65.333 -14 126v294l7 7c-9.33301 98 -32.666 147 -69.999 147v7l-7 -7h-42v-567c0 -9.33301 -9.33301 -14 -28 -14v-14c18.667 -15.333 28 -36.333 28 -63l-7 -35l7 -42v-35l-21 -21h-28l-35 7l-42 -7h-35l-28 21
h-14v-14h-14v14c0 9.33301 7 14 21 14l7 7v7l-7 7l-7 -7h-42v-35l-14 -14l-7 7l-35 -7h-56c-9.33301 0 -16.333 23.333 -21 70l7 21l-7 28l14 84l-14 105c2.66699 51.333 7.33398 77 14.001 77l-14 140h7l-7 7v7l7 7l-7 7v84l7 7l-7 7v105l-7 70c8 118 22 195 42 231l-7 7v7
h21c0 -14 4.66699 -21 14 -21l7 35l35 -7l7 7v14l-14 14l-21 -7v28c0 9.33301 7 14 21 14v21c-20 0 -31.667 23.333 -35 70l-7 7h-7l-7 -7l7 -7v-7c-9.33301 -10.667 -14 -27 -14 -49h-28l-7 238l7 21l-7 42v224l7 35l28 -21c11.333 28 23 42 35 42zM130.997 1600h14v14z
M298.997 1614l7 -21h7v21h-14zM403.997 1614v-21h7l7 21h-14zM634.997 1607h14c9.33301 0 14 -7 14 -21l-7 -35h-14l-14 14zM690.997 1600c42 -21.333 63 -37.667 63 -49l-7 -7h-7c-42 8 -63 24.333 -63 49l7 7h7zM81.9971 1572v-28h7v28h-7zM480.997 1558l-7 -28l7 -7
l-7 -7h21l-7 7l7 7v14zM130.997 1516v-91h14v77zM165.997 1502l14 -21v-126l7 -77l-7 -35l7 -7h7v14h7l-7 7v14l7 63l-7 70v21l7 42l-14 49h-7zM739.997 1502h7v-14l-14 -14l-7 7v7zM221.997 1481l-7 -7v-28c0 -37.333 11.667 -56 35 -56v-21l-28 -7v-21h14v-7l-14 -21
l21 -21l14 14h7v-42c0 -9.33301 14 -14 42 -14l21 -21l21 14h7c4.66699 -46.667 11.667 -70 21 -70h7v42l7 7l-21 84l7 42v35h-14v-7l-7 -70h7l-14 -21l7 -7v-21h-14c-11.333 0 -18.333 9.33301 -21 28h-14v-14h-7l-7 35h14v-14h21c1.33301 18.667 6 28 14 28
c-12.667 34 -26.667 55 -42 63l-35 91c0 -20.667 -4.66699 -34.667 -14 -42l-21 7l7 7v21zM354.997 1467v-7h14v21zM438.997 1432v-7l14 -14h7v21h-21zM809.997 1432v-14h14v14h-14zM711.997 1376v-14h7v14h-7zM242.997 1341h21v-28h-7l-14 14v14zM130.997 1327v-7l7 -28
l-7 -28v-7l14 -14l7 7h7l-14 42l7 28l-7 7h-14zM424.997 1313l0.000976562 -42h-14v-35l-7 -7v-7l7 -7h7l7 7l7 -84h-7l7 -7v-14l-7 -7l7 -7v-91c0 -32.667 -4.66699 -49 -14 -49l7 -21h77c23.333 14 35 30.333 35 49h14l-7 -21c3.33301 -70 10.333 -105 21 -105l21 21
c-14 46 -21 88 -21 126l7 7h56c0 -14 4.66699 -21 14 -21h7v21l-7 49h-7c0 -18.667 -4.66699 -28 -14 -28c-10.667 0 -17.667 11.667 -21 35l7 21l-14 77h-14l-7 -63h-7l-7 7h-7l7 35v35c0 23.333 -4.66699 35 -14 35l7 7c-10.667 65.333 -43.334 98 -98.001 98h-14z
M88.998 1320v-21h7v21h-7zM627.998 1285v-14h7v14h-7zM228.998 1257v-14h7l7 7h7l-7 21zM816.998 1229v-21l14 14v7h-14zM718.998 1222v-14h7v14h-7zM718.998 1187l-14 -35l7 -35h14l21 21c-6.66699 32.667 -16 49 -28 49zM627.998 1173v-70l14 -14l7 35v35l-14 14h-7z
M676.998 1152l14 -14l7 7v7h-21zM144.998 1145v-35h7v35h-7zM760.998 1138c0 -23.333 -11.667 -35 -35 -35l14 -14v7c23.333 0 35 -14 35 -42h14v42c0 24 -7 38 -21 42h-7zM683.998 1110v-14h7v14h-7zM858.998 1110v-28h7v28h-7zM816.998 1103v-35l-7 -7l7 -7v-42l-7 -42
l21 -49h7l7 56l-7 21l7 56l-7 49h-21zM858.998 1075v-14h7v14h-7zM732.998 1047v-49h7v49h-7zM277.998 1033v-21c0 -23.333 -4.66699 -35 -14 -35l-21 7l-7 -7v-49l14 -14c0 18.667 4.66699 28 14 28s14 -9.33301 14 -28l7 -7h14l14 14l-14 28l7 21
c-4.66699 42 -11.667 63 -21 63h-7zM186.998 1012l7 -7h7v21zM60.998 1012h14l14 -14v-7h-28v21zM585.998 990.999l7 -70h-7c6 -32.667 13 -49 21 -49h7v35l-7 42l7 35l-7 7h-21zM634.998 983.999v-28h14v28h-14zM732.998 983.999v-49h7v49h-7zM683.998 976.999
c0 -32.667 -4.66699 -49 -14 -49h-35l7 -35l-7 -7l14 -14l7 7h14c10.667 0 17.667 -16.333 21 -49h7c0 37.333 7 56 21 56c9.33301 0 14 -7 14 -21h14c0 32.667 -11.667 49 -35 49c-13.333 0 -20.333 21 -21 63h-7zM326.998 969.999v-21h7v21h-7zM417.998 934.999l-7 -63h21
v28l-7 35h-7zM494.998 920.999v-14l7 -35h21l7 28l-14 35h-7zM144.998 913.999l7 -7h14v21h-7zM319.998 927.999v-7l14 -14v21h-14zM193.998 899.999v-7h14v7h-14zM291.998 871.999v-14h7v14h-7zM634.998 836.999v-14h21l7 21l-7 7h-7zM606.998 836.999v-21h7v21h-7z
M557.998 808.999v-28l14 -14v42h-14zM207.998 780.999v-21l14 14v7h-14zM249.998 773.999v-21h7v21h-7zM515.998 752.999v-77h14v63zM739.998 738.999l7 -70l14 14v14l-7 7l7 7v14l-14 14h-7zM473.998 696.999v-14h14zM599.998 682.999l14 -14v28zM116.998 661.999v-28h7
l28 7l28 -14v14l-7 35h-28zM298.998 675.999l7 -21l-21 -42l14 -49h14l7 35l7 -7h28v28l-7 7v7c-14 0 -21 -7 -21 -21l-14 14v49h-14zM613.998 640.999h14v14zM746.998 654.999l-7 -63l7 -7h7l7 7v49zM242.998 605.999l14 -14l7 7v21h-7zM172.998 598.999v-21l14 14v7h-14z
M214.998 577.999v-21h7v21h-7zM172.998 556.999v-42h7v42h-7zM67.998 535.999v-14l14 -35l21 14l-14 35h-21zM116.998 521.999v-7h28v7l-14 14zM564.998 521.999v-28l14 -14h7l7 21l-7 35h-7zM606.998 514.999v-21l14 -14h7l14 14l-7 21h-28zM305.998 500.999v-14h7v14h-7z
M669.998 493.999l14 -14v14h-14zM739.998 493.999v-7l14 -14h7v21h-21zM795.998 486.999v-7h14v7h-14zM837.998 486.999v-14h14v14h-14zM81.998 465.999v-21h21v14zM221.998 451.999v-42h7l14 14v14l-14 14h-7zM81.998 423.999l-7 -28l7 -7h7v35h-7zM620.998 416.999v-14
l-7 -35l7 -42v-28h14l7 112l-7 7h-14zM844.998 416.999v-21h21v21h-21zM837.998 367.999v-7h7l14 14v7h-7zM571.998 360.999l7 -35l-14 -14l14 -49l7 7h7l-7 49v42h-14zM830.998 304.999l7 -7h7l7 7v14h-7zM88.998 304.999l7 -35h-14v-21h21v56h-14zM242.998 94.999l-14 -21
l7 -7h21v14zM326.998 94.999v-21h14v21h-14zM270.998 73.999l14 -14h7l14 14l-14 14h-7zM95.998 80.999v-14h7v14h-7zM102.998 38.999l14 -14h21v14h-35zM228.998 31.999l7 -21h7l14 14v14h-14l-7 -7h-7zM228.998 -24.001v-35h14l14 14v35h-14zM781.998 -31.001v-21h7v21h-7
zM683.998 -80.001v-14l35 7v7l-14 14h-7zM144.998 -80.001v-7l14 -14h7v21h-21z" />
    <glyph glyph-name="S" unicode="S" horiz-adv-x="933" 
d="M441 1790c59.333 0 96.6689 -11.665 112.002 -34.998l21 14c74.667 0 154 -51.333 238 -154l28 -77v-14l-7 -7v-7c17.333 0 29 -93.333 35 -280l-21 -14h-84l-7 7l-7 -7h-175l-7 7l-7 -7h-7c-28 4.66699 -42 11.667 -42 21v21h14l-14 21l14 63v7
c-19.333 93.333 -38 140 -56 140h-14c-46.667 0 -70 -37.333 -70 -112v-63c0 -92.667 58.333 -172 175 -238c210 -153.333 315 -293.333 315 -420c8 0 15 -58.333 21 -175h-7l7 -7v-49l-7 -7l7 -7v-14c0 -9.33301 -9.33301 -14 -28 -14l-7 -7v-14
c15.333 0 27 -4.66699 35 -14c-7.33301 -68.667 -19 -115.334 -35 -140.001l7 -7v-7c-20.667 -56.667 -41.667 -89.334 -63 -98.001v21h-14l7 -35c-79.333 -84 -182 -126 -308 -126l-7 28c-25.333 -1.33301 -46.333 -10.666 -63 -27.999l-28 28l-21 -14h-7l-14 14l-7 -7h-7
c-51.333 9.33301 -77 23.333 -77 42h-35c-46.667 18 -70 62.333 -70 133v14l-21 -7v-42h-7c-30 20.667 -55.667 83.667 -77 189l14 14v7c-14 17.333 -21 33.666 -21 48.999v98l-7 77l7 21l-7 35l28 14l126 -7l21 7l7 -7l70 7h91l21 -21
c-2.66699 -56 -7.33398 -84 -14.001 -84l-49 -7l-7 7l7 7v14l-14 14h-7v-21l7 -7l-7 -7v-7l7 -21l-7 -56l7 -35h14l7 7h7c8 -10 15 -42.667 21 -98c12 0 30.667 -16.333 56 -49l42 -7l49 21c9.33301 65.333 18.666 98 27.999 98l7 -7l-7 -35l7 -28l21 21v21l-7 7l14 28
l-42 7c0 152 -42 252.333 -126 301c-192 148 -304 257.667 -336 329l-49 210l7 35l-7 21l7 21l-7 49c9.33301 199.333 65.333 323 168 371l7 -7c2.66699 18.667 9.66699 28 21 28c9.33301 0 14 -7 14 -21h14c0 18.667 4.66699 28 14 28h7l7 -91l14 14v63l7 35l35 -7l14 14h7
l7 -7l28 14c7.33301 -18.667 14.333 -28 21 -28h7c1.33301 23.333 8.33301 35 21 35zM553.003 1734l-14 -42l14 -63v-91l7 -35h7c14 0 21 9.33301 21 28c-14 24 -21 47.333 -21 70c2.66699 42 9.66699 63 21 63l14 -14v21h-28v49l-14 14h-7zM413.003 1706v-84
c9.33301 0 14 7 14 21l-7 63h-7zM238.003 1678v-21h14v21h-14zM721.003 1671l7 -49v-14h7l14 14v42l-14 14l-7 -7h-7zM189.003 1643v-7l14 -14v35zM364.003 1636v-21h21v21h-21zM588.003 1622l7 -7h7v21zM280.003 1629v-14l14 -14v14zM672.003 1629v-49h7l14 14v35h-21z
M553.003 1475v-28l14 14v28zM560.003 1419l-7 -35v-42l21 21v21l-7 35h-7zM560.003 1265v-14h7v14h-7zM112.003 1244v-14h21v14h-21zM294.003 1153v-7h21v21h-7zM252.003 1160v-28h21v28h-21zM406.003 789.002v-35h7v35h-7zM98.0029 593.002v-14h7v14h-7zM147.003 565.002
v-28h7v28h-7zM231.003 551.002l7 -35l-7 -7h-7l7 -21h14v14h7l-7 21l7 21h14l14 -84l-7 -56l7 -7h7l7 7v161h-28v-14h-14v14h-7zM343.003 495.002h21v-7l-7 -35h-14l-14 28zM238.003 446.002l-14 -70v-7h21v77h-7zM98.0029 341.002v-14h7v14h-7zM133.003 334.002v-49h21
l7 35l-7 21zM609.003 341.002l-7 -7v-21h14l7 7h7l7 -7v7l7 -7h21v21h-21zM189.003 334.002v-49h14v49h-14zM686.003 334.002c3.33301 -51.333 10.333 -77 21 -77v63l-14 14h-7zM280.003 299.002v-21h7l7 21h-14zM777.003 271.002v-14l7 -49l21 21l-14 42h-14z
M231.003 103.002l7 -35h14c0 28 14 42 42 42v14l-14 14c-32.667 -14 -49 -25.667 -49 -35zM182.003 68.002l7 -7h14l14 14l-14 14zM385.003 82.002l-14 -70l7 -7h14v77h-7zM511.003 82.002v-14h7v14h-7zM280.003 75.002v-7h14v7h-14zM469.003 68.002l7 -70h7l7 63l-7 7h-14z
M280.003 19.002c0 -8 14 -15 42 -21v7l7 -7h14l14 14v14h-7l-49 -7v7z" />
    <glyph glyph-name="T" unicode="T" horiz-adv-x="893" 
d="M442 1701l7 -7l-7 -21l14 -77h21l7 35l-14 63l7 7h28l28 -7l49 7h273l7 -35v-280l-7 -35c-70.667 0 -126.667 4.66699 -168 14l-28 -7l-7 7c-14 -16 -21 -62.667 -21 -140h7c0 -14 -7 -21 -21 -21v-21h14v-14l7 -42l-28 -56h-14c-4.66699 37.333 -11.667 56 -21 56h-7
v-14h-7l7 -7v-63l-14 -14c0 14 -4.66699 21 -14 21c-10.667 0 -17.667 -11.667 -21 -35h-7l-14 49v35h-14c-8 0 -15 -16.333 -21 -49c-14 0 -21 -7 -21 -21h-7l-42 49l-14 -49h-7l-7 21l7 7v21l-14 21v56h-21v-49h-35v-35l35 -14v-7c-14 0 -25.667 -9.33301 -35 -28v-105
c2.66699 -28 9.66699 -42 21 -42c1.33301 23.333 6 35 14 35l-7 35v28h7l14 -14v-35h14l7 56h7c8 0 17.333 -14 28 -42h7l7 63h21l-7 -7v-7l14 -14h7l-7 49h28l-7 -7v-7c8.66699 0 15.667 -21 21 -63l-7 -7v-7l7 -112v-35h7l14 14v7l-7 70l7 42h14l7 -49v-21h14v35l21 21
l14 -35h7l14 49h14c8 -32.667 15 -49 21 -49l-14 -56l14 -112l-7 -7l7 -84v-210l-7 -63l7 -70v-301l-21 -21h-343l-21 14l7 7l-7 84v623l7 77l-7 35l7 7v7l-7 21c18.667 30 28 72 28 126c-12.667 22 -22 54.667 -28 98l7 21l7 280h14l7 -21l-7 -7v-7l21 -49l-7 -21h14v21
l7 35h14l7 -42h14l7 35v7c0 9.33301 -14 14 -42 14v14h-7l14 21l-28 49h14v7l7 -7h14l28 7l42 -21l49 35l28 -7v21l-14 14l-21 -14l-28 14l-7 -7h-7l-21 7l-14 -14h-7l-7 28l7 7h-14v42c-8 42 -17.333 63 -28 63l14 28c-28 0 -42 32.667 -42 98h14l14 -14v-35h14l7 42h14
l14 -42h21v28h7c9.33301 0 14 -23.333 14 -70l14 14l-7 49c9.33301 0 14 9.33301 14 28l7 7h7zM78 1694l13.999 -14v-63h7l21 21l28 -14c0 46.667 4.66699 70 14 70c8.66699 0 15.667 -21 21 -63h7c0 42 4.66699 63 14 63h14l7 -35h21v35h21v-28
c10.667 -56 22.334 -84 35.001 -84c-12 -30 -23.667 -46.333 -35 -49l-14 14v35h-14v-56c0 -16.667 -7 -30.667 -21 -42c-18.667 4.66699 -28 14 -28 28l7 21l-7 7h-7l-7 -70l-21 21l7 7l-7 21h-14v-7l7 -21l-7 -42l14 -14l28 7v-7l-7 -42l7 -28h-14l-14 35l7 28h-21v-70
h-21v98h-21v-21h-14l-14 49l7 21h7c9.33301 0 14 -11.667 14 -35h21l14 49l-28 21h-21c0 -14 -4.66699 -21 -14 -21h-7v7l21 28c-10 0 -19.333 18.667 -28 56l7 28h-7c4.66699 37.333 11.667 56 21 56zM119.999 1687h7v-28h-7v28zM35.999 1540h7l14 -14v-14h-21v28z
M35.999 1505h14v-14h7l-7 -35h-14v49zM35.999 1442h21c0 -23.333 11.667 -35 35 -35l7 -35v-14l-49 -7l-14 21v70zM273.999 1442l14 -14v-7l-7 -7l7 -7v-21l-7 -35h-7l-21 21l14 42l-7 21l7 7h7zM595.999 1428v-21h7v21h-7zM651.999 1414v-14h7v14h-7zM224.999 1400l14 -21
v-7l-14 -14h-14l-7 28zM455.999 1351v-21h14v-7l-14 -21c9.33301 -12 14 -33 14 -63h7l7 49l-7 70zM385.999 1351l7 -21h7v21h-14zM392.999 1316l-7 -21l7 -21h7c0 18.667 4.66699 28 14 28l21 -14v7c0 8 -14 15 -42 21zM504.999 1316v-21l21 -21l14 14v21zM553.999 1295h21
v14h-7zM525.999 1211v-28h7v28h-7zM525.999 1176v-35l14 14v7zM301.999 1162v-21h21v7l-14 14h-7zM462.999 1036h21v-7h-21v7zM609.999 1029h7l21 -21l-21 -84h-14c0 18.667 -4.66699 28 -14 28c4.66699 51.333 11.667 77 21 77zM511.999 973h7l14 -14l-7 -35h-14l7 7l-7 7
v35zM553.999 966h7v-14h-7v14zM315.999 861v-21h7v21h-7zM581.999 861l-7 -21l7 -7h7l7 7l-7 21h-7zM448.999 854v-70h14v35l-7 35h-7zM406.999 756v-28h14v14zM588.999 756l-7 -7v-7l14 -14h7v14zM322.999 700v-56h14v56h-14zM497.999 700v-21h14v21h-14zM329.999 434v-14
h14v14h-14zM553.999 434v-42l21 -21l7 21c-6 28 -15.333 42 -28 42z" />
    <glyph glyph-name="U" unicode="U" horiz-adv-x="965" 
d="M59 1720h70.002l28 -7l28 7h70l42 -14l14 14h28c51.333 0 77 -7 77 -21v-119l-7 -126l7 -70h-7l7 -7v-168l-7 -112l7 -21l-7 -49l7 -224l-7 -49l7 -77v-266c0 -126 14 -189 42 -189c42 0 63 32.667 63 98v133c0 21.333 9.33301 37.666 28 48.999l-7 35v98l7 7l-28 98l7 7
l-7 245v140l7 28l-7 28v56l7 7v7h-7l7 7v7l-7 56c0 23.333 7 35 21 35v7c-14 0 -21 16.333 -21 49v56l7 7l-7 7l14 161l-14 42l7 21h28c0 -14 4.66699 -21 14 -21c2.66699 18.667 9.66699 28 21 28l21 -35v-14l-7 -21h7l7 -7h7c0 41.333 4.66699 67 14 77
c32.667 -11.333 49 -20.666 49 -27.999v-21h-7l-21 14l-7 -35c0 -8 14 -15 42 -21l7 -28c10.667 0 17.667 11.667 21 35h14l7 -35h21c9.33301 0 14 14 14 42h14l7 -42h7c0 46.667 7 70 21 70l21 -21l7 21l-7 28l7 21h21v-84l7 -7l-7 -7v-14l21 -28v-7l-14 -21l7 -21l-7 -42
c10.667 0 17.667 -32.667 21 -98v-14h-7l7 -140v-364c0 -26.667 -11.667 -52.334 -35 -77.001v-14c9.33301 -9.33301 18.666 -42 27.999 -98l-7 -21l7 -70l-14 -28l14 -42l-7 -203l7 -7v-7c-4.66699 -37.333 -11.667 -56 -21 -56l-21 7l-7 -7v-7
c0 -9.33301 9.33301 -14 28 -14c0 -74.667 -58.333 -158.667 -175 -252c-70.667 -32.667 -129 -49 -175 -49h-84c-136.667 0 -251 65.333 -343 196c0 16.667 -9.33301 35.334 -28 56.001v14h28v35h-21l-7 -28h-7l-28 154l7 49l-7 126v63l14 14l14 -175h14l7 21l-7 21l7 21
c-6.66699 130.667 -16 196 -28 196c0 -14 -4.66699 -21 -14 -21l-7 7v35l7 42c-9.33301 20 -14 57.333 -14 112v35l7 70l-7 42l7 91l-7 21l21 112v21l-14 77v336l-7 7c9.33301 28 18.666 42 27.999 42zM829.002 1720v-35h-14l-7 28l7 7h14zM199.002 1699v-91l14 -14v70
l-7 35h-7zM241.002 1692v-91h7l7 7h7l-7 7v77h-14zM724.002 1699l14 -14v-28h-14v42zM563.002 1685l-7 -35l14 -14l7 7v7l-7 35h-7zM108.002 1678v-119l7 -84h7l7 70l35 -7l7 7l-7 70h-7c0 -24 -7 -38 -21 -42l-14 105h-14zM150.002 1664v-21l14 -14v49zM381.002 1615l7 -7
v-7l-7 -28l7 -7h7v70c-9.33301 0 -14 -7 -14 -21zM66.002 1622v-77l21 -7v42h-14l7 21l-7 21h-7zM339.002 1615v-21h7v21h-7zM199.002 1566v-7l14 -14v35zM710.002 1531c-16 -28 -32.334 -42 -49.001 -42v-14l7 -7l-7 -7v-21l14 -14c9.33301 0 14 7 14 21l-7 21
c10.667 0 22.334 18.667 35.001 56v7h-7zM346.001 1440v-70h14v56zM206.001 1426v-21h14v21h-14zM297.001 1412v-35h14v35h-14zM248.001 1405l-7 -21l14 -42l21 7v42l-14 14h-14zM682.001 1377l28 -14h7l14 14l-21 21h-7zM115.001 1391v-49h14l-7 49h-7zM626.001 1391l-7 -7
v-7l21 -21v14l7 7l-14 14h-7zM164.001 1335v-28h14v28h-14zM122.001 1300l-7 -7v-14l14 -14h7v21zM535.001 1286v-14l7 -7l-7 -7l7 -49v-28h14v35l-7 70h-14zM80.001 1265l-7 -63l7 -7h14v56zM164.001 1216v-14l14 -14l14 14v14l-14 14zM122.001 1223v-21l7 -28l-7 -21h21
l-7 21l7 28l-7 21h-14zM227.001 1216v-14h7v14h-7zM584.001 1209v-49l14 -14v63h-14zM269.001 1195l-14 -35h7l7 -7h7l7 7v21zM304.001 1118v-21h21v7l-14 14h-7zM591.001 1083v-56h14v42zM682.001 1083v-49l14 -14l7 7v21l-7 35h-14zM689.001 1013v-21h7v21h-7z
M276.001 985v-7h14v7h-14zM871.001 950v-21h14v21h-14zM829.001 943v-7h14v7h-14zM605.001 754v-7h14v21zM108.001 705l-14 -21l21 -196l-7 -21c3.33301 -51.333 10.333 -77 21 -77l7 7l-14 133l7 105h21l7 -84v-42h14v14l-7 84h7l-7 7v7l7 49h-14l7 35l-21 -7zM696.001 677
v-14l14 -14l7 7v21h-21zM745.001 677v-35h21v35h-21zM787.001 663l14 -14l7 7l-7 21zM556.001 649v-7l7 -35h21l7 35v14l-14 14zM612.001 663v-28h14v28h-14zM647.001 642v-7h21v21h-7zM199.001 635v-21h7v21h-7zM45.001 635h7v-21h-7v21zM248.001 628l-7 -56l7 -7h7l7 7v42
zM339.001 579l-7 -7v-7c7.33301 -18.667 14.333 -28 21 -28v28zM563.001 579v-14l14 -14h7v28h-21zM619.001 572v-14h7v14h-7zM164.001 453v-14h7v14h-7zM857.001 362v-28h14v28h-14zM808.001 306l-7 -7v-7h21zM815.001 243v-14h7v14h-7zM171.001 208v-7h14v7h-14z
M276.001 12l-7 -7v-21h7l14 14z" />
    <glyph glyph-name="V" unicode="V" horiz-adv-x="1033" 
d="M31 1657l62.999 0.000976562l35 -7v7l21 -14l-7 -7v-7l14 -42v-63l14 -14v14l-14 126l21 7l7 -7l70 7h154c14 0 21 -9.33301 21 -28l14 -161l-7 -42c9.33301 -12 14 -35.333 14 -70h7l-7 -7v-7l14 -126l-7 -21c14 0 28 -142.333 42 -427l7 -21l-7 -7v-7l21 -175
c10.667 0 22.334 116.667 35.001 350l7 21l-7 7l7 7v35c20.667 396.667 37 595 49 595l-7 7v14l14 63h21l21 -14h7v14h126l7 -7l7 7h35l7 -7l7 7h84l7 -7h7l7 7l14 -21l-7 -35l21 -42v-35c-2.66699 -121.333 -9.66699 -182 -21 -182l7 -7v-7l-42 -350h7
c-79.333 -658.667 -119 -1013.33 -119 -1064l-21 -14h-196l-56 14l-56 -14h-14l-63 7l-63 -7l-105 7l-14 112l7 35l-7 21h7c-20 0 -45.667 172.667 -77 518l7 21l-7 42v42c-20 0 -45.667 165.667 -77 497l14 21l-28 56l7 7h-7l21 35v35c-30 0 -51 102.667 -63 308z
M100.999 1636v-7l14 -28h7l7 35v7h-7zM891.999 1615v-21h7v21h-7zM835.999 1601v-70l21 -7v84zM296.999 1580v-21h14v21h-14zM800.999 1573v-42h14v28zM751.999 1545v-21h14v21h-14zM114.999 1524v-63l14 -14v63zM163.999 1489v-21h7v21h-7zM849.999 1398v-21h14v21h-14z
M898.999 1356v-7l14 -14v21h-14zM149.999 1272l7 -7v-7c0 -14 -14 -21 -42 -21v-21h14l28 7l21 -7l14 35l-14 42zM121.999 1286v-14h7v14h-7zM212.999 1244v-28h21v28h-21zM289.999 1223v-14h21v35zM261.999 1230l-7 -7v-7l7 -7h14v7zM163.999 1104v-14h21v14h-21z
M219.999 1097l-7 -21l7 -7h14l7 21l-7 7h-14zM142.999 1027v-77h14l-7 28l14 28l-7 21h-14zM737.999 873.001v-21h7l7 21h-14zM674.999 817.001l-7 7h-14l-14 -14l7 -42h7l7 28h14l7 -21l-7 -7l35 -28v7l-7 7l7 7h-7l7 7v7l-7 7v7c0 23.333 7 35 21 35v7l-14 14h-14
c-11.333 0 -18.333 -9.33301 -21 -28zM156.999 796.001v-28h7v28h-7zM471.999 663.001l-7 -7l7 -21h7l7 21l-7 7h-7zM359.999 635.001v-14h21v14h-21zM604.999 565.001h14v14zM709.999 467.001v-14h7v14h-7zM821.999 236.001v-7l14 -14v21h-14z" />
    <glyph glyph-name="W" unicode="W" horiz-adv-x="1554" 
d="M42 1780l7 -7h343l63 -924l-7 -35c9.33301 -16 16.333 -62.667 21 -140l21 21l-7 35v35l7 7l-7 7c28 374 56 675 84 903l7 7h7l-7 21c4 42 11 63 21 63h273l7 7l7 -7h28l7 7c37.333 0 56 -11.667 56 -35l7 -49l-7 -21c10 0 19.333 -114.333 28 -343h7l-7 -7v-7l14 -98
l-14 -28l14 -21l-7 -7l7 -84v-63l14 -56v-14l14 -287l7 -7h7c0 130.667 9.33301 196 28 196l-7 7v7c0 214.667 14 322 42 322l-14 91c26.667 331.333 47.667 497 63 497h14l56 -7l140 14l140 -7l7 -7v-7l-168 -1736l-35 -7h-420c-22 0 -59.333 226.333 -112 679v7h7l-7 7v63
l-14 77v28h-14l-21 -147h7l-7 -21h-7l-21 14v-21h28c-40.667 -452.667 -71 -679 -91 -679h-14l-315 -7l-35 7l-49 -7c-37.333 0 -56 46.667 -56 140l-154 1610zM1267 1696l14 -14l7 7v7h-21zM1393 1619l-7 7l-28 -7v-14l14 -21l-7 -42l21 -14c0 14 16.333 21 49 21v14
l-14 21v7h14v14l-28 56c-9.33301 0 -14 -14 -14 -42zM1281 1591h7l-14 -49l7 -49l-7 -42l7 -28h14c0 14 7 21 21 21l21 49h-7l7 7v7l-7 63l-7 -7h-7l-14 14v7h14l7 -7h7l7 35h-14v7c-28 -6 -42 -15.333 -42 -28zM1386 1591h7v-14h-7v14zM1309 1556h14v-21h-14v21zM1323 1514
v-35h-21l-14 14v7zM1148 1325v-21h14v21h-14zM1253 1311v-7h14v7h-14zM1281 1304l7 -21h14v28h-7l-7 -7h-7zM175 1150v-14h14v14h-14zM273 1115l7 -7h7v21zM231 1101v-21h14v21h-14zM959 849v-7h28v28h-7zM840 849v-21h14v21h-14zM833 807l7 -7v-7l-7 -7l7 -7l-7 -7l21 -14
l7 21l-7 7h7l-7 21h-21zM714 786v-21h7v21h-7zM203 765v-28h7v28h-7zM245 737l-7 -49l21 -14l7 7v21l-14 35h-7zM581 632v-28h7l35 7v14l-7 -7zM364 240l-7 -7v-7l7 -28l14 14v14z" />
    <glyph glyph-name="X" unicode="X" horiz-adv-x="1013" 
d="M135 1636l7 -7h245l14 -14l28 14c8 0 33.667 -142.333 77 -427l7 -7h7l77 434h308v-14h7c-79.333 -438.667 -121.333 -697.667 -126 -777l189 -959h-14l-7 7l-35 -14l-7 7l-70 -7h-196c-22.667 0 -64.667 191.333 -126 574h-7c-42 -368 -70 -559.333 -84 -574h-336
l-21 14l133 973l-35 210l7 28c-8 0 -15 11.667 -21 35l7 7v7c-56 260 -84 421 -84 483h49zM401 1594v-49l14 14v21zM163 1251v-7l14 -14v21h-14zM884 -58v-28h42c-9.33301 18.667 -23.333 28 -42 28zM884 -93v-7l14 -14v21h-14z" />
    <glyph glyph-name="Y" unicode="Y" horiz-adv-x="945" 
d="M35 1737l7 0.000976562c70 -1.33301 105 -6 105 -14l56 14h175c56 -342.667 84 -548 84 -616l7 -7v-7h7c3.33301 28 8 42 14 42l-7 7v7c53.333 382.667 88.333 574 105 574h329v-7c-70 -308 -121.333 -508.667 -154 -602c-18.667 0 -28 -4.66699 -28 -14l21 -35
l-105 -469v-217l-7 -63l7 -70v-189c0 -60.667 -7 -91 -21 -91h-315l-21 21v112l7 56l-7 77v245c0 15.333 7 31.666 21 48.999l-105 434l7 21l-35 98l7 49v35c0 25.333 -11.667 39.333 -35 42l-49 196l7 7v7c-8 0 -33.667 102.667 -77 308zM161 1562v-14h7v14h-7zM203 1562
v-14h14v14h-14zM224 1212v-63l14 -14l7 7v35l-7 7v7h7l-7 21h-14zM294 1170l-21 7l-7 -7l7 -49h49l14 14v14l-7 35h-7zM364 1170l-7 -21l7 -21h21v7l-7 35h-14zM420 1170l-7 -7v-7l14 -14l7 7v7zM511 1156v-14h14v14h-14zM518 1128v-14h7v14h-7zM602 1128v-14h14v14h-14z
M637 1121l7 -21h14l7 21l-7 7h-7l-7 -7h-7zM518 1002v-70h14l7 35v21l-14 14h-7zM651 995.001v-21h7v21h-7zM238 988.001v-7h14v7h-14zM280 988.001l-14 -49l21 -7v-7l-7 -7l7 -21h7v70l-7 7v7l7 7h-14zM378 939.001v-56h14v56h-14zM518 897.001v-42h14v42h-14zM378 806.001
v-28h14v28h-14zM287 743.001v-28h7l14 14l-14 14h-7zM364 183.001v-28h7l7 7h7l-7 21h-14zM406 183.001v-21l14 -14h14v21l-14 14h-14zM455 176.001v-7l14 -14h7v21h-21z" />
    <glyph glyph-name="Z" unicode="Z" horiz-adv-x="781" 
d="M86 1745l336 0.000976562l56 -7l56 7h182l14 -14v-301c-14 -94.667 -107.333 -449.334 -280 -1064l7 -21h84l70 -7l63 7h35l21 -21v-315l-21 -21h-658l-14 14l-7 140l7 35l-7 35l294 1183h-238l-21 21v168l7 77l-7 56v7zM569 1521v-21h21v7l-14 14h-7z" />
    <glyph glyph-name="bracketleft" unicode="[" horiz-adv-x="569" 
d="M107 1705h154l91 -7l77 7h49l21 -21v-210c0 -16.667 -7 -30.667 -21 -42l-35 7l-28 -7v-154l-7 -56l7 -77v-259l-7 -28l7 -28v-119c0 -32.667 -4.66699 -49 -14 -49l7 -7v-42l-7 -35l14 -126l-7 -63l7 -7v-7l-7 -28v-7l7 -7l-14 -28l7 -7l-21 -7v-14h7l7 7h7l7 -35v-28
l28 -14l35 14l7 -7v-91l7 -28l-7 -28v-7l7 -7l-7 -7v-7l14 -77l-28 -14l-56 7l-35 -7l-63 7l-7 -7l-35 7h-28l-28 -7l-7 7h-7l-63 -7l-49 14v14l7 -7h7l7 7v21c0 9.33301 -7 14 -21 14v35c1.33301 23.333 6 35 14 35l-14 28l-7 301c0 84 11.667 126 35 126h7l14 -42v-56
l14 -14h7v98c-9.33301 51.333 -35 77 -77 77v7l7 21l-7 35l7 28l-7 84v385l-7 28l7 7l-7 42l7 252v196zM275 1278l7 -21h7v28l-7 -7h-7zM135 620h14v14zM226 571v-35l14 14v21h-14zM107 480v-14h7v14h-7zM331 417v-21h14v7zM240 410v-14h14v14h-14zM373 410v-42h14l7 35
l-7 7h-14zM289 389v-14h7v14h-7zM296 361v-21l14 14l-7 7h-7zM156 340l7 -21h14v7l-14 14h-7zM163 305v-14l14 -14v28h-14zM135 193l-7 -7l7 -49h21c-2.66699 37.333 -9.66699 56 -21 56zM177 144v-14l7 -35h14v35l-14 14h-7zM317 116v-21h14v21h-14zM135 95v-42h14v28z
M317 74v-7h14v7h-14zM443 11v-7l14 -14l14 14v7l-14 14zM142 11l-7 -35l7 -7h14v7l-7 35h-7z" />
    <glyph glyph-name="backslash" unicode="\" horiz-adv-x="777" 
d="M313 1747l97.999 -427l-7 -21c20 0 55 -128.333 105 -385l210 -875l-7 -21c11.333 0 23 -30.333 35 -91l-7 -7h-231c-37.333 0 -56 39.667 -56 119l-133 532l7 7h7l21 -14h7v14l-14 14l-7 -7c-27.333 0 -78.666 200.667 -153.999 602c-14 18 -60.667 202.333 -140 553
l7 7h259zM403.999 1278v-35h7v35h-7zM354.999 1257v-7h14v7h-14zM403.999 557l-7 -7v-14l14 -14h14v14zM438.999 543v-14l7 -35h14v63h-7zM592.999 410v-14h-7l21 -28l7 35v7h-21zM585.999 340v-7h21v21h-7zM410.999 270v-14h14v14h-14zM445.999 214l-7 -7v-7l7 -7h7l7 7h7
l28 -7v14zM669.999 67v-14h7v14h-7z" />
    <glyph glyph-name="bracketright" unicode="]" horiz-adv-x="569" 
d="M115 1717l364 -0.000976562l21 -21v-133l7 -42l-7 -35v-28l7 -7l-7 -7l7 -35l-7 -175v-315l7 -28l-7 -28v-49l-91 -7c0 -14 9.33301 -21 28 -21l21 7c0 -45.333 14 -80.333 42 -105l7 -21c-8 -32.667 -15 -49 -21 -49l14 -42l-7 -28l7 -21l-7 -70l7 -154l-7 -28h-14
l-7 21h7l-14 28c-37.333 -4 -56 -13.333 -56 -28l7 -7h-14v-35h21l21 14c0 -14 9.33301 -21 28 -21l14 14l14 -14v-126l-7 -28l14 -119l-21 -14h-56c-14 0 -21 16.333 -21 49l-42 -7v-42l-28 7l-49 -7h-126c-23.333 0 -35 4.66699 -35 14l-7 -7h-14l-14 14v63l7 7l-7 7v84
l14 14l7 -28l-7 -7h7l-7 -21l7 -28l-7 -28l21 -14v161c0 9.33301 -9.33301 14 -28 14l-7 7v14c34.667 0 53.334 -7 56.001 -21l-7 -21c4.66699 -37.333 11.667 -56 21 -56h7l-7 70c0 42 14 63 42 63v7c0 26.667 -11.667 52.334 -35 77.001v14
c18.667 7.33301 28 14.333 28 21l-21 21c7.33301 65.333 16.666 98 27.999 98l-14 42l7 7c-18.667 0 -28 7 -28 21c1.33301 23.333 6 35 14 35l-7 49v133l-7 7l7 7l-7 147l7 189l-7 7h7l-7 7v119l7 70l-7 56l7 28c0 14 -11.667 21 -35 21l-56 14v70
c0 126 9.33301 189 28 189zM304 1234v-14h14v14h-14zM353 1157v-35h14v35h-14zM269 1136v-21h7v21h-7zM318 1059v-7h21v21h-7zM185 1059v-14h7v14h-7zM234 981.999v-7h14v7h-14zM283 967.999v-28h7v28h-7zM241 946.999v-21h14v7zM234 904.999l14 -14v14h-14zM290 869.999
l-7 -35l7 -7h7l7 7v35h-14zM241 855.999v-84h21v49l-7 35h-14zM206 820.999v-14l7 -7v-7l-7 -7l7 -7h7v42h-14zM248 729.999l7 -7v-7l-7 -21l7 -7h7l7 7l-7 56c-9.33301 0 -14 -7 -14 -21zM199 736.999l7 -7v-42h21v21l-7 35h-7l-7 -7h-7zM290 743.999l7 -49h14v49h-21z
M381 743.999v-7l14 -14v7zM423 743.999v-14h21v14h-21zM339 736.999v-7l7 -21h7v28h-14zM220 561.999l-14 -14c14 -24.667 21 -52.667 21 -84h14l-7 35v49zM402 470.999v-42l7 -35h14c-3.33301 51.333 -10.333 77 -21 77zM451 470.999l-14 -35l7 -21h14l7 35v7zM276 456.999
v-14h7v14h-7zM360 407.999l7 -49l7 7h7l-7 56zM318 386.999v-14h7v14h-7zM283 330.999v-21h7v21h-7zM318 323.999v-14l14 -14l7 21l-7 7h-14zM374 316.999l-7 -7v-42h28v7c0 24 -7 38 -21 42zM430 295.999h21l-7 -7v-7l7 -7h-14zM234 274.999v-21h21v21h-21zM283 274.999v-7
h14v7h-14zM311 267.999v-21h14l14 14l-7 7v7zM206 127.999v-14h7v14h-7zM248 92.999v-21h14v21h-14zM437 29.999l-7 -21l21 -14v21zM122 15.999v-28l14 14v14h-14z" />
    <glyph glyph-name="asciicircum" unicode="^" horiz-adv-x="961" 
d="M453 1344h140c32.667 0 58.334 -44.333 77.001 -133c62 -143.333 104 -260 126 -350c16 -8 65 -134 147 -378l-7 -7h-56l-56 14l-28 -7h-7l-7 7l-35 -14l-14 21v63l-14 14c-9.33301 -7.33301 -14 -33 -14 -77c-16 0 -46.333 81.667 -91 245l-98 252l-35 -91h-14v-28
c-32.667 -135.333 -58.334 -203 -77.001 -203l7 -28c-32 -107.333 -55.333 -161 -70 -161l-42 -7l-28 7l-21 -7v7l-7 -7h-133v7c28 99.333 137.667 384 329 854zM334 1036v-21h14v21h-14zM691 910c0 -18.667 -7 -28 -21 -28v7l-21 -7v-21l14 -14c28 14 42 28 42 42h7l-7 21
h-14zM600 812l14 -14h7v28h-7zM698 812v-35l7 7h7l-7 28h-7zM663 693v-14h7v14h-7zM705 665l-7 -7v-7l14 -14h7v14zM257 560v-7l21 -7l7 7v28h-7zM768 574v-56l14 -14c3.33301 28 8 42 14 42c-6.66699 18.667 -13.667 28 -21 28h-7zM229 539v-42h14v14h7l-7 28h-14zM810 525
v-21h14v21h-14z" />
    <glyph glyph-name="underscore" unicode="_" 
d="M142 119l56 -7l7 7h7l7 -7h7l35 7l112 -7h35l42 7l70 -21c0 10.667 28 17.667 84 21l56 -7l7 7h7l28 -7h7l7 7l7 -7h42l7 7l7 -7h14l28 7l28 -7h7l7 7l7 -7h70l42 7l35 -7l7 7h7l28 -7h28l7 -35v-56l-21 -21h-462l-77 7l-21 -7l-28 14l-42 -14l-7 7l-84 -7h-245l-14 14
l-7 -7h-21l-14 14c0 65.333 30.333 98 91 98z" />
    <glyph glyph-name="grave" unicode="`" horiz-adv-x="682" 
d="M356 1306c30.667 0 70.334 -56 119.001 -168c33.333 -49.333 54.333 -91.333 63 -126l-7 -7h-7l-98 7l-7 -7h-7c-38.667 0 -92.334 42 -161.001 126l-168 168l7 7h266z" />
    <glyph glyph-name="a" unicode="a" horiz-adv-x="881" 
d="M437 1430l7 -7l7 7h7c18.667 -4.66699 28 -14 28 -28l-7 -42l7 -28l-7 -56l7 -35h7l14 70l-14 14c7.33301 18.667 14.333 28 21 28l7 -7v-28l-7 -7v-7l21 -14h14l-7 7v14l14 14c-2.66699 26.667 -9.66699 47.667 -21 63l14 28h7c36 0 59.333 -11.667 70 -35l7 7h14
c14 -4.66699 21 -18.667 21 -42v-70l-7 -28l14 -63h-7l7 -21c9.33301 0 16.333 18.667 21 56l-14 140h14c14 -4.66699 21 -18.667 21 -42l-21 -35c6.66699 -19.333 18.334 -33.333 35.001 -42l7 7v7l-7 21l7 7h7c14 0 21 -25.667 21 -77h7v63h7
c12.667 -6 33.667 -76 63 -210h-7l7 -7v-49l-14 -21l7 -28l-14 -14v-7h21v-21l-7 -7l14 -28l-7 -28l7 -7v-7h-7l7 -7v-14l-7 -28l7 -21l-14 -14v-14l14 -42l-7 -21l7 -21v-14h-7l7 -189v-315c0 -9.33301 -9.33301 -14 -28 -14v-119c18.667 0 28 -4.66699 28 -14
c-4.66699 -18.667 -18.667 -28 -42 -28c-56 0 -84 4.66699 -84 14c-20.667 -9.33301 -51 -14 -91 -14l-70 7l-56 -7c-9.33301 21.333 -14 51.666 -14 90.999v7h-7l-77 -84c-53.333 -28 -93 -42 -119 -42l-21 14l-21 -7c-56 0 -109.667 30.333 -161 91
c-37.333 45.333 -56 115.333 -56 210v217c0 110 37.333 182.333 112 217l56 42h21v-28c2.66699 -28 9.66699 -42 21 -42v7l-7 77c168 72 252 132.667 252 182v56c0 140 -21 210 -63 210l-7 7h-14c0 -14 -4.66699 -21 -14 -21h-7v49l-7 35l7 42v35h-28
c0 -15.333 -14 -24.666 -42 -27.999c0 14 -7 21 -21 21l-7 -7v-14l7 -7l-7 -7v-112h21v119h7c37.333 -15.333 56 -27 56 -35v-21l-7 -7l-28 -14c0 -23.333 -4.66699 -35 -14 -35c0 -37.333 16.333 -56 49 -56v-140h-7c-9.33301 0 -14 7 -14 21l-21 -14l14 -35l7 7h21v-56
l-7 -7l7 -7v-42l-49 -7l-28 7v-7l-35 14l-21 -7l-7 21h-14l7 -7v-7l-14 -14c-46.667 0 -70 9.33301 -70 28l7 35c-18.667 0 -28 16.333 -28 49c10.667 0 17.667 11.667 21 35l-21 14h-7c0 -14 -7 -21 -21 -21l-21 -49v-21c0 -23.333 18.667 -35 56 -35l7 -7v-7l-7 -7h-21
l-7 7l-35 -14c-12.667 0 -24.334 11.667 -35.001 35c6.66699 37.333 13.667 56 21 56l-14 70c0 194 81.667 324.667 245 392c43.333 14 83 21 119 21c4.66699 -37.333 11.667 -56 21 -56c0 42 7 63 21 63zM731 1318h7l14 -14h-7zM717 1206v-21l14 -14v49zM766 1171l-7 -35
l7 -35h14v56zM724 1150v-35h7l7 28l-7 7h-7zM290 1010l-7 -7v-49l14 -14h7v56zM682 982l7 -35h14v49h-7zM150 982v-7l21 -7l7 7v7l-7 7zM220 919v-14l14 -14l14 14v7l-7 7v7c14 0 21 4.66699 21 14v28h-7c-14 0 -21 -16.333 -21 -49h-14zM213 954v-14h14zM157 919v-14h14
l14 14l-14 14zM290 919v-42h14l7 42h-21zM696 877v-7h14v7h-14zM563 849v-14h21v14h-21zM521 821v-28h14v28h-14zM437 814v-28h14v28h-14zM311 702v-28h7v28h-7zM570 695v-7h14v7h-14zM220 632l7 -21l14 14v14h-7l-7 -7h-7zM367 429c0 -158.667 16.333 -238 49 -238h14
c32.667 0 49 16.333 49 49v112l7 63l-7 70v98l7 35l-7 7h-21c-60.667 -58.667 -91 -124 -91 -196zM227 555v-49h14v49h-14zM717 520v-14h7v14h-7zM717 450v-21h7v21h-7zM192 415v-63l14 14l-7 21l7 21l-7 7h-7zM717 394v-7h14v7h-14zM717 359v-28l14 -14v42h-14zM591 317
v-63l-14 -21l21 -21h7v105h-14zM549 226l-7 -21c6 -23.333 13 -35 21 -35h7v21l-7 35h-14zM199 205v-49l14 -14l7 7v7l-7 49h-14zM598 184l-7 -63l7 -7h14l-7 70h-7zM157 156v-7l14 -14h7zM696 142v-28h7l21 7l14 -14h14v21h-14v7l-7 -7h-14zM647 107l-14.001 -14h-14l-7 7
h-7l-14 -35l7 -21h14l21 14h14l21 -7v7l7 7v7c-9.33301 21.333 -18.666 33 -27.999 35zM702.999 107l-14 -21v-7l7 -35h7c14 0 21 9.33301 21 28l7 -7h21l7 21zM548.999 79v-7l21 -7v14h-21zM779.999 65v-35h7l7 28l-7 7h-7zM562.999 37v-21h7l7 21h-14zM695.999 23v-14h14
v14h-14zM562.999 9v-21l14 14l-7 7h-7zM254.999 -19v-21l14 14l-7 7h-7z" />
    <glyph glyph-name="b" unicode="b" horiz-adv-x="957" 
d="M73 1709c14 0 21 -11.668 21 -35.001h7l7 7h7l-7 7v14l21 7l14 -21v-147l-7 -7l7 -7v-70h21l21 49l-7 28l7 -7h7v14c-14 0 -21 4.66699 -21 14v14h7c10.667 0 17.667 -11.667 21 -35c9.33301 0 18.666 14 27.999 42l21 -7v-42l14 14l-7 28l14 14l-7 28v7h7l7 -28l21 14
l-7 42c4 42 11 63 21 63h7l7 -98h-7l7 -28h7l7 7h7l-7 84v21l14 14h63l7 -35v-350l14 -14h7c56.667 70 110.334 105 161.001 105l14 -14l14 21c74.667 -10 112 -28.667 112 -56h7l21 14h14c0 -14 9.33301 -21 28 -21l28 -35l-7 -21l7 -7v-7l-7 -28l7 -7h7l7 35
c16 0 27.667 -46.667 35 -140l-7 -42c9.33301 -18 14 -43.667 14 -77v-399c0 -17.333 -9.33301 -40.666 -28 -69.999l21 -14v-14h-7l14 -133l-7 -56v-28l7 -35c0 -178.667 -58.333 -293 -175 -343l-70 -14v7l-7 -7h-7c-73.333 0 -148 46.667 -224 140
c-8 -74.667 -17.333 -112 -28 -112c-65.333 0 -98 16.333 -98 49v7h-7c0 -37.333 -9.33301 -56 -28 -56l-175 7l-7 -7c-9.33301 20.667 -14 58 -14 112v266l14 28l-14 28l28 77l7 -7h14l14 14v7l-7 7l7 7v7l-7 35l7 7l-7 7h-7l-7 -63c-23.333 6.66699 -35 23 -35 49l7 7
l-14 70l7 28v7l-7 7l7 7l-7 189v392l21 28l-7 7l7 35v56h7c10.667 0 17.667 -11.667 21 -35h7l14 49v28l-7 7l7 7c-4.66699 111.333 -14 181.333 -28 210h-7l-7 -56l7 -7v-28h-7l-7 7h-7l7 42c-2 43.333 -9 71.333 -21 84v14zM248 1513c0 -42 -4.66699 -63 -14 -63h-14l-7 7
h-7l-7 -28l7 -35h14l7 35l42 -14c-3.33301 65.333 -10.333 98 -21 98zM381 1506v-56h14v42zM297 1464v-28h14v28h-14zM339 1436v-14h7v14h-7zM157 1429v-14h7v14h-7zM94 1422l7 -7v-7l-7 -21h-14v21zM339 1408v-21h14v7zM255 1387v-21h14v21h-14zM297 1380v-21h14v21h-14z
M339 1352v-21h14v21h-14zM206 1331v-14h14v14h-14zM528 1324v-14h14v14h-14zM255 1317v-21h14v21h-14zM339 1317v-14h7v14h-7zM206 1289l7 -7h7v21zM794 1303v-56h14l-7 56h-7zM388 1289v-28h14v28h-14zM577 1289l-7 -7v-7l14 -14l7 7v7zM619 1289l-7 -7v-14h14v-7l7 7h7
l35 -7v21zM157 1268c4 -42 11 -63 21 -63l7 21l-7 42v14h-7zM255 1282v-28l14 -14l7 21l-7 21h-14zM339 1282v-7c0 -51.333 7 -77 21 -77v70l-14 14h-7zM710 1282v-28h14v28h-14zM437 1275v-21h14v21h-14zM206 1261l7 -70l-7 -21l7 -42v-42h14v63l-7 42l7 7v7l-7 7v7l7 35
l-7 7h-14zM752 1261v-35h14v21zM668 1240v-14h-7l7 -21h7v35h-7zM430 1212l14 -14l14 14v14h-14zM479 1212l14 -14l14 14l-14 14zM801 1226v-21h7v21h-7zM710 1219v-28h14l7 21l-7 7h-14zM409 1037l13.999 -14.001h7l-7 -49v-154l-21 -28v-35h14v-21l-14 -21v-7
c14 -18 21 -39 21 -63v-98l-7 -7l7 -21l-7 -7l14 -105l-7 -35l7 -7l-7 -7c0 -116.667 18.667 -175 56 -175l28 -7l28 49l-7 35l14 49l-7 56l7 98l-7 161v70l14 14c5.33301 -42 12.333 -63 21 -63v63l-7 7v7l-7 -7h-7c-9.33301 0 -14 16.333 -14 49h-7l7 7l-7 119l7 63l-7 21
c0 42 9.33301 63 28 63v49c-24 14.667 -42.667 47.334 -56 98.001c-42 -20 -63 -36.333 -63 -49c-9.33301 -56 -18.666 -88.667 -27.999 -98zM534.999 1177v-14l14 14h-14zM618.999 1135v-7h14v21zM170.999 1142l-7 -77l7 -70v-14h14l7 84c-9.33301 7.33301 -14 33 -14 77
h-7zM261.999 1086l7 -56h7l7 49l-7 7h-14zM79.999 1079v-28h14v28h-14zM128.999 1079l-7 -35v-7h21v7l-7 35h-7zM716.999 1079v-35h14l-7 35h-7zM849.999 1079l7 -56h7v14h7l-7 42h-14zM212.999 1072v-35h21v14zM583.999 1072l-7 -7v-21l14 -14l7 7h7
c-6 23.333 -13 35 -21 35zM625.999 1051v-14h7v14h-7zM275.999 952.998v-14h7v14h-7zM86.999 945.998v-14h14v14h-14zM317.999 945.998v-14h7v14h-7zM709.999 945.998v-7l14 -14h7v21h-21zM275.999 868.998v-21h7l14 14v7h-21zM93.999 847.998v-35l7 7h7l-7 28h-7z
M226.999 826.998h7l-7 -7l7 -49v-14h14v35l-7 49zM324.999 819.998c0 -23.333 -4.66699 -35 -14 -35l21 -28l14 56l-7 7h-14zM177.999 791.998v-21h28v21l-14 14zM275.999 805.998v-21h14v7zM597.999 805.998l-7 -7v-42h14l7 35zM366.999 798.998v-21h7v21h-7z
M863.999 791.998v-7h14v7h-14zM555.999 763.998v-21h7l7 21h-14zM373.999 721.998v-56h14l-7 56h-7zM681.999 721.998v-14h7v14h-7zM240.999 651.998l-7 -91.001h7l-7 -21h-7l-21 14l-14 -14l14 -21l-14 -35l14 -77h14l7 7h7c-6.66699 18.667 -13.667 28 -21 28l14 42l-7 35
h14l21 -77h14l7 28l7 -7h21c1.33301 18.667 6 28 14 28l-7 35v49h7c14 0 21 -35 21 -105l7 -7h7l7 35v28l35 7l-7 28l7 28v7c-32.667 0 -49 18.667 -49 56h-7c0 -43.333 -9.33301 -66.666 -28 -69.999c0 14 -16.333 21 -49 21l-14 49h-7zM100.999 630.997v-14h14v14h-14z
M191.999 630.997v-28h14v28h-14zM282.999 630.997v-14h14v14h-14zM604.999 581.997v-7h14v7h-14zM562.999 574.997v-42h14v42h-14zM135.999 490.997c12.667 -46.667 22 -70 28 -70l7 7v49l-7 35h-14c-9.33301 0 -14 -7 -14 -21zM604.999 511.997v-14h14v14h-14z
M695.999 504.997v-35l14 -14l7 7l-7 42h-14zM562.999 497.997v-14h14v14h-14zM653.999 490.997l-21 -28l-14 14h-14v-7l7 -35c14 0 21 7 21 21c9.33301 0 14 -7 14 -21h21v42zM744.999 490.997v-21h7v21h-7zM114.999 434.997v-14h7v14h-7zM114.999 350.997v-14h14v14h-14z
M611.999 350.997v-28h7l14 14v14h-21zM219.999 238.997v-21h14v21h-14zM590.999 154.997v-14h7v14h-7zM408.999 147.997l-7 -35c3.33301 -23.333 10.333 -35 21 -35c1.33301 18.667 6 28 14 28l-7 42h-21zM86.999 105.997v-21l14 -14v49zM366.999 91.9971v-42h7l7 42h-14z
M499.999 63.9971v-21h14v21h-14zM135.999 49.9971v-14h7v14h-7zM317.999 42.9971v-56l7 -7v-7l35 14v56h-42z" />
    <glyph glyph-name="c" unicode="c" horiz-adv-x="901" 
d="M458 1366c51.333 0 76.999 -13.999 76.999 -41.999h14c0 14 4.66699 21 14 21c95.333 -32.667 163 -81.667 203 -147l7 -35v-14c28 0 42 -21 42 -63l7 -28l7 -42h7l-7 -7v-35l21 -84c-12 -60.667 -21.333 -91 -28 -91l-56 7l-56 -14h-98l-42 7l-7 -7h-7
c-32.667 0 -49 11.667 -49 35h-7c4.66699 37.333 14 63 28 77c0 9.33301 -7 14 -21 14v28l7 28c-15.333 87.333 -29.333 134 -42 140l-35 -7c-6.66699 18.667 -13.667 28 -21 28c-9.33301 -28 -14 -88.667 -14 -182v-28l-7 -7l7 -7v-35l-7 -77l7 -35
c-9.33301 0 -14 -7 -14 -21l14 -28l-14 -21l7 -119v-147l7 -42l-7 -35l7 -35l-7 -21c4.66699 -106 21 -162 49 -168h35l42 21v231l7 84h-7l7 21l105 7h21c14 0 23.333 -30.333 28 -91l-7 -63v-28l21 -161l-7 -28l21 -28l7 7v56l-7 28l7 28v63l14 14l7 -7h7v28
c-32.667 11.333 -49 20.666 -49 27.999l7 28l-14 56v49c0 14 49 21 147 21l14 -21v-70l-14 -105l7 -21c-9.33301 -10.667 -16.333 -52.667 -21 -126c-69.333 -163.333 -151 -245 -245 -245v14h-14v-7l7 -21l-7 -7h-21l-7 7l-42 -14l-7 7v21l14 14l28 -21h7v63h-21
c0 -23.333 -4.66699 -35 -14 -35h-7c-4.66699 60.667 -11.667 91 -21 91l-7 -7l14 -105c0 -18.667 -18.667 -28 -56 -28v-7l-7 7h-35c-177.333 26 -266 98.333 -266 217l-21 -14c-12 0 -30.667 65.333 -56 196l7 7v7l-7 7v7l7 21l-14 63v133c1.33301 23.333 6 35 14 35
l-14 112l7 98v189c0.666992 46.667 5.33398 70 14.001 70l-7 7c29.333 135.333 64.333 203 105 203c1.33301 34 55 71.333 161 112l7 -7v-28h7l14 14l-14 21l42 14v-7zM352.999 1324v-7h21v21h-7zM352.999 1289v-14l14 -21l-7 -7v-7l7 -7h7v56h-21zM184.999 1254v-7h14v7
h-14zM226.999 1254l-7 -7v-7l7 -49h14v49zM268.999 1254v-14h14zM408.999 1219l7 -35h7v35h-14zM324.999 1121v-14h7v14h-7zM366.999 1121v-28l14 14v14h-14zM100.999 1093v-7l7 -77l-42 -63l14 -42h42v21l7 84l-14 14v70h-14zM184.999 1093v-14h14v14h-14zM366.999 1072
v-28l14 14zM695.999 1072v-21l14 14l-7 7h-7zM324.999 1051v-21h14v21h-14zM324.999 1002v-42l14 -14h7v21l-7 35h-14zM184.999 995.001v-28l14 -21l-7 -70l14 -28l-7 -7h7l-7 -7v-7l7 -77v-7h14v91h14c0 14 4.66699 21 14 21v70h-7v-35c-23.333 6 -35 41 -35 105h-21z
M58.999 988.001v-14h14v14h-14zM282.999 904.001c7.33301 -18.667 14.333 -28 21 -28l7 21l-7 28h-7c-9.33301 0 -14 -7 -14 -21zM296.999 834.001v-21h7v21h-7zM114.999 820.001l-28 -49l14 -14l7 7l7 -7h21v56zM240.999 799.001l7 -21h14v28h-7l-7 -7h-7zM170.999 799.001
v-63l14 14l-7 49h-7zM296.999 785.001l0.000976562 -56l7 -7v-7l21 7l35 -7l-7 35l-14 -14c-22.667 0 -34.334 16.333 -35.001 49h-7zM171 722.001v-133h14v21l-7 35l7 42v21zM297 708.001v-14h7v14h-7zM346 687.001v-63l7 -42l-7 -21l7 -7h7v133h-14zM297 666.001
c3.33301 -65.333 10.333 -98 21 -98v98h-21zM213 659.001v-21l14 14l-7 7h-7zM80 631.001l7 -49l49 21v28h-56zM213 624.001v-98h7l14 14v70l-14 14h-7zM171 519.001v-14h14v28zM353 505.001v-35h14v35h-14zM227 421.001v-35c2.66699 -28 9.66699 -42 21 -42v77h-21z
M178 365.001v-28h14v14zM640 365.001v-28l21 21v7h-21zM101 344.001v-35l-7 -42l21 -28v105h-14zM591 302.001l7 -161l7 -7h7v77l7 77l-7 35h-7c-9.33301 0 -14 -7 -14 -21zM178 316.001v-28l14 14v14h-14zM780 302.001l7 -7h7v21zM234 288.001l7 -7h7v21zM549 246.001
l7 -42h14l7 42l-7 21zM780 246.001l7 -35h7v35h-14zM241 225.001l-7 -35v-42l7 -70c9.33301 0 14 14 14 42h7l-7 35v56zM787 183.001v-21h7v21h-7zM199 148.001v-21h14v21h-14zM283 120.001l-7 -28l7 -21h14v49h-14zM605 92.001v-28h14v14zM241 64.001v-14h7v14h-7z
M199 50.001v-49h14l7 35l-14 14h-7zM164 36.001l-7 -35l7 -7h14v42h-14zM696 15.001v-14h21l-14 14h-7z" />
    <glyph glyph-name="d" unicode="d" horiz-adv-x="949" 
d="M608 1725h35.002l56 -7l56 7h63c0 -23.333 4.66699 -35 14 -35h7c0 18.667 4.66699 28 14 28l7 -7v-7c-7.33301 -37.333 -19 -56 -35 -56v-28h28l-7 -7l14 -56v-7l-21 -28l7 -28l-7 -7l7 -21l14 -455h-7l7 -7v-126c0 -9.33301 -9.33301 -14 -28 -14v-42
c18.667 -16 28 -32.333 28 -49v-14l-14 -28l14 -42v-28l-7 -28l7 -28v-21l-14 -49l21 -413l-7 -112l7 -7c0 -23.333 -21 -35 -63 -35h-98l-35 7l-42 -7h-112l-21 21v63h-14c-72.667 -74.667 -147.334 -112 -224.001 -112c-90 0 -162.333 60.667 -217 182l-21 217l7 84l-7 42
l14 35l-14 21l7 7l-7 70l7 294l-7 154l7 42l-7 7v7c0 152.667 46.667 253 140 301h14v-49l7 -35h14v42l-7 42c0 18.667 25.667 28 77 28v-42l14 -14l7 7v21l-7 7l7 21h21c49.333 0 107.666 -30.333 174.999 -91h14v266c1.33301 23.333 6 35 14 35l-14 42v21
c0 14 37.333 21 112 21zM699.002 1697v-14h14v14h-14zM699.002 1662l-7 -7v-7l14 -14h7v14zM524.002 1648l7 -21h21v14h7v-14h21v21h-56zM608.002 1648l7 -21h28v14h7v-14h21v21h-63zM783.002 1620v-119c14 0 25.667 21 35 63c14 0 21 4.66699 21 14v7l-42 35h-14z
M615.002 1592l7 -21h7l7 21h-21zM699.002 1578v-98l35 7v42h14c-23.333 25.333 -35 46.333 -35 63zM622.002 1536v-14h7v14h-7zM580.002 1501v-21h14v21h-14zM615.002 1494v-21h14v-42l14 14l-7 49h-21zM664.002 1480v-21h14v35zM804.002 1431v-35h21v35h-21zM223.002 1403
l-7 -7v-14l14 -14h7v21zM132.002 1361v-56h14v42zM811.002 1312v-21l14 -14v49zM314.002 1319v-28l14 -14h7v42h-21zM804.002 1242c2.66699 -28 9.66699 -42 21 -42l7 42l-7 21zM139.002 1235v-28h7v28h-7zM769.002 1235v-49h14l7 42l-7 7h-14zM454.002 1228v-28h7v28h-7z
M384.002 1081l7 -308v-504c0 -36 11.667 -59.333 35 -70h28c28 0 42 58.333 42 175v679c0 88.667 -14 133 -42 133c-46.667 0 -70 -35 -70 -105zM104.002 1137v-28h14v28h-14zM818.002 1137v-49h14v35zM55.002 1039v-21l14 14l-7 7h-7zM650.002 899v-21h14v7zM699.002 885
v-21h7v21h-7zM846.002 829h7v-14h-7v14zM118.002 794v-35h14v35h-14zM118.002 696v-42h7l14 14v14l-14 14h-7zM83.002 668v-168h14v168h-14zM41.002 381c2.66699 -28 9.66699 -42 21 -42v56h-7zM685.002 388v-28h14v14zM776.002 381v-35h7v35h-7zM48.002 297v-7h14v21z" />
    <glyph glyph-name="e" unicode="e" horiz-adv-x="929" 
d="M459 1326c196.667 0 327.333 -102.667 392 -308l21 -161v-42l7 -7l-7 -7l7 -119v-112l-21 -21h-98c-84 0 -126 9.33301 -126 28h-7c0 -14 -9.33301 -21 -28 -21l-14 14l-21 -14l-21 14l-21 -14l-7 7h-7l-42 -14l-7 7h-7c-32.667 -4.66699 -49 -11.667 -49 -21v-56l7 -42
l-7 -21l7 -70l-7 -28c0 -154 14 -231 42 -231h21c42 6 63 27 63 63v217l7 70l-7 7l21 14h98l84 -7l84 7h42c9.33301 0 16.333 -23.333 21 -70c0 -282 -70 -452.333 -210 -511c-52.667 -32.667 -120.334 -49 -203.001 -49c-284.667 0 -427 175 -427 525c0 14 7 21 21 21l7 7
v21l-28 7l7 35v105l-7 245c23.333 261.333 58.333 392 105 392c58.667 74.667 112.334 112 161.001 112l7 -7h7c0 16 46.667 27.667 140 35zM311.999 1284v-14h7v14h-7zM234.999 1109v-35h7v35h-7zM409.999 1011v-223.999h98v189c0 53.333 -11.667 83.666 -35 90.999h-28
c-23.333 -12 -35 -30.667 -35 -56zM234.999 1053l-7 -77.001l7 -70v-7l-7 -7v-7l21 -14h7v126c0 34.667 -7 53.334 -21 56.001zM535.999 675v-28l7 7h7l-7 21h-7zM570.999 647l7 -28h21v28l-14 14zM612.999 647v-21l21 -21v49zM675.999 654v-49h14v14l-7 35h-7zM269.999 486
v-7l14 -14v21h-14zM311.999 451v-21h14v7zM234.999 430v-21l-7 -63l7 -21h7l14 84l-7 21h-14zM136.999 409v-14h7v14h-7zM773.999 402v-7h14v7h-14zM773.999 360l14 -14l7 7v7h-21zM780.999 325v-14h14v14h-14zM185.999 276l7 -21h7v28l-7 -7h-7zM192.999 241v-21h14l-7 21
h-7zM150.999 136v-14l14 14h-14z" />
    <glyph glyph-name="f" unicode="f" horiz-adv-x="569" 
d="M294 1646h56.001l21 -14l14 14c15.333 0 24.666 -39.667 27.999 -119h7v91l-7 7l7 21h28v-63c9.33301 0 14 -7 14 -21l-45 4v21h7c0 -14 4.66699 -21 14 -21l52 -32l-14 -21c0 -8 11.667 -15 35 -21v35l-66 25v14l21 84l80 -4l14 -14h-7l7 -7v-7l-7 -7l7 -7v-63l-14 -56
l14 -14v-21l-21 -21h-56c-9.33301 0 -14 9.33301 -14 28h-7c0 -28 -14 -42 -42 -42l-7 -7v-105h42l7 -7l7 7h70c14 0 21 -25.667 21 -77v-133l-21 -21h-63v-203l-7 -7l7 -7v-154l-7 -7l7 -7v-42l-7 -28l7 -7v-7l-7 -7v-7l7 -35l-7 -28l7 -7v-21h-7l7 -70v-217l-7 -28l7 -28
v-35l-7 -49l7 -63v-91l-21 -21h-21l-7 7l-7 -7h-287l-21 14v14h7l-7 84v252l7 77l-7 7v7l7 7l-7 49v665h-56l-21 21v189l21 21l7 -7l49 7v70c0 66.667 11.667 111 35 133c0 51.333 9.33301 77 28 77l7 -7l-7 -7v-14l14 -14l7 7v35l-7 7l7 7c0 14 16.333 21 49 21v14h14l7 -7
h7zM224.001 1611v-7h14v7h-14zM399.001 1464l7 -35h14l21 21l-21 35zM245.001 1296v-14h7v14h-7zM245.001 1240v-21h14v21h-14zM294.001 1240v-21l14 -14l7 7v7zM378.001 1240v-7h14v7h-14zM420.001 540v-21l14 14l-7 7h-7zM441.001 190l14 -14v14h-14zM413.001 1l-7 -35
v-14l14 -14h7v49zM273.001 -34v-28h21v42h-7zM182.001 -55l14 -14v14h-14z" />
    <glyph glyph-name="g" unicode="g" horiz-adv-x="949" 
d="M307 1357c121.333 -24.667 182 -64.332 182 -118.999h42c0 23.333 7 35 21 35v28l-7 7v7l21 14h266c37.333 -3.33301 56 -31.333 56 -84v-833c0 -9.33301 -9.33301 -14 -28 -14v-7l28 -28l-7 -7l7 -84v-161l-7 -35h-7c-14 0 -21 30.333 -21 91v7h-21v-14l7 -84h-49
l-84 -7v-56l28 -21v14h7v-21l42 21v7l-7 35h21c0 -28 4.66699 -42 14 -42s14 7 14 21l-7 21h14v-42h14v-7l35 14v-7l7 -21c0 -147.333 -91 -257 -273 -329l-175 -21c-169.333 0 -286 53.667 -350 161v49c-23.333 0 -35 37.333 -35 112v14l14 21l56 -14l63 14l91 -14l112 7
c18.667 -52.667 37.334 -83 56.001 -91h21c37.333 0 60.666 35 69.999 105v56l7 7l-14 42v35h-14c-48 -46.667 -115.667 -77 -203 -91c-118 0 -199.667 65.333 -245 196l-14 126l7 140l-7 56h7l-7 7v7l21 70l-14 42l7 28l-7 35l7 28l-14 28l7 7v7l-14 28l7 49v147
c0 127.333 44.333 220.666 133 279.999h21l7 -56h7l7 28l-7 35c18.667 14 46.667 21 84 21zM132 1259v-7h14v7h-14zM216 1168v-14l14 -14h7v28h-21zM223 1112l7 -7v-168l14 -14h7l7 7h7l7 -7v-42h14l-7 49v28c-23.333 0 -35 16.333 -35 49l-7 42l7 7v7l-7 56l-7 -7h-7z
M412 937.002l7 -42l-7 -91h-7l-7 21h7l-14 35h-14l-7 -28h-7l-35 28l-7 -28c-9.33301 0 -14 9.33301 -14 28h-14l-7 -56l7 -7h14c0 14 4.66699 21 14 21h7l14 -49h14v21l21 -7h14l21 7v-7l7 -28l-7 -7v-7l7 -35l-7 -98v-35h-14l21 -28v-14l-7 -77l7 -21l-28 -42
c9.33301 0 14 -7 14 -21l-7 -21l7 7c14 0 21 -9.33301 21 -28l42 -21l56 21l-7 70v105c18.667 20 28 38.667 28 56v21l-7 28l14 42h21v21c-18.667 0 -28 4.66699 -28 14v28c-16 252 -30 378 -42 378l-35 14c-37.333 0 -56 -56 -56 -168zM139 1091v-21h7v21h-7zM265 1084v-35
l14 -14v49h-14zM370 1042v-70l14 -14h7l-7 70v14h-14zM601 1021v-56l14 -14v84zM188 951.002v-7l14 -14v21h-14zM139 944.002l-7 -7v-14h21v7zM230 895.002l7 -21l14 14v14h-7l-7 -7h-7zM237 867.002l-7 -28h14v28h-7zM846 762.002l14 -14v14h-14zM342 741.002v-14h14v14
h-14zM671 657.002v-147l21 -49v-7h7l7 35c-4.66699 42 -11.667 63 -21 63l7 21l-7 63v21h-14zM622 622.002v-35h7l14 14l-7 21h-14zM727 503.002v-13.999h-7l7 -7v-56l-14 -14l-14 35h-7v-42c-37.333 -4.66699 -56 -11.667 -56 -21l7 -7v-7l35 7l14 -14l7 7h21l7 -7
c14 3.33301 23.333 12.666 28 27.999l-7 77v21l-14 14h-7zM783 433.003l-14 -49l21 -14l7 7l21 -7c18.667 7.33301 28 14.333 28 21l-28 28l-7 -7h-7l-7 21h-14zM846 356.003v-14l-49 7h-14v-21h14l49 7l7 -7v28h-7zM839 216.003v-7h14v7h-14zM566 76.0029l-7 -7l14 -84h7
c9.33301 0 14 7 14 21c-6 46.667 -15.333 70 -28 70zM622 62.0029v-14h7v14h-7zM664 62.0029v-56l-14 -14l-14 42h-14l-7 -35v-14l21 -7l7 7h7l35 -7v7l-7 42v35h-14zM734 55.0029h7v-21h-7v21zM76 -70.9971v-14h14v14h-14zM223 -210.997v-28h14v28h-14zM272 -217.997v-14
h14v14h-14zM314 -217.997v-14l14 -14l7 7v21h-21z" />
    <glyph glyph-name="h" unicode="h" horiz-adv-x="937" 
d="M65 1625l7 -7h7l21 7l14 -14l28 14l21 -7l35 7l7 -7l49 7h56l42 -7l35 7h21l14 -49l-7 -168v-161h14c76 60.667 141.333 91 196 91l7 -7h49c1.33301 -23.333 8.33301 -35 21 -35c0 14 4.66699 21 14 21l14 -21v-91l14 -56v-49h14v77l14 14
c3.33301 -23.333 10.333 -35 21 -35v91l14 14l35 -49v-7l-7 7h-7l-14 -14l21 -21l7 28h7l28 -84c-6 -23.333 -13 -35 -21 -35c-4.66699 37.333 -14 56 -28 56l-7 -42c10.667 -28 20 -42 28 -42h7c9.33301 0 14 9.33301 14 28h7l14 -161v-623l-7 -70l7 -63v-259
c0 -23.333 -14 -35 -42 -35v-7l-21 7l7 7v14l-14 14h-7v-21l7 -7v-7l-7 -7h-147l-28 7l-28 -7h-63l-21 21v21c14 142 30.333 226 49 252l7 21l-7 7h-7l-21 -21h-7l-14 56l7 49l-7 84v168l7 161l-7 70l14 28l-7 28c4.66699 51.333 11.667 77 21 77l-28 49v63
c0 39.333 -14 65 -42 77h-7c-42 0 -63 -46.667 -63 -140h-21v-21l7 -7l-7 -7v-21l28 -56l-7 -203v-91c0 -32.667 -4.66699 -49 -14 -49l7 -7v-7l14 -238c-4.66699 -56 -11.667 -84 -21 -84l-14 35h-14l-7 -7h-7l-14 14h-14c0 -23.333 -11.667 -35 -35 -35v-21h35l21 -14
l14 14v-7l42 14l7 -7v-14c0 -39.333 -7 -67.333 -21 -84v-7h14l14 -21l-7 -7v-7l7 -35l-7 -42v-42l-42 -7v7l-7 -7h-294l-21 21v126l7 84h7l21 -14l7 7l-14 56l14 28h14l14 -63h7v70l-7 35h-14c0 -14 -4.66699 -21 -14 -21l-7 7l-14 -21v-35h-21v14l14 42l-7 7h7
c-9.33301 18 -14 43.667 -14 77v21l28 21l35 -14l21 21l14 -14h7v63l7 42l-7 63c-8.66699 0 -15.667 -21 -21 -63l7 -42v-21l-14 -14l-28 7l-7 -7l-7 7l-14 -14l-21 63v574l7 35l-7 42v490l7 42l-7 28l7 7h7zM65 1590l14 -14h7v28h-7zM751 1296h14l7 -28h-7l-14 14v14z
M639 1275v-35l7 -35h28v49c-14 0 -21 7 -21 21h-14zM688 1261l7 -35h7v49zM772 1240l7 -7v-7l-7 -28l-14 14v14zM695 1219l-7 -70l7 -42v-56h7l14 14v56l-7 7l7 7v21c-9.33301 9.33301 -14 30.333 -14 63h-7zM653 1030v-42h14v28zM107 988v-14h14v14h-14zM576 848l14 -14v28
zM765 848v-112c1.33301 -23.333 6 -35 14 -35l21 7l14 -35h21l-7 7l7 7v28c0 9.33301 -7 14 -21 14l-21 -7v7l-21 119h-7zM79 785v-21l14 14v7h-14zM723 708l-6.99902 -35v-35l14 -49h14l49 -7l7 7v7l7 -7h21v7l-7 7v7l-7 -7h-14l-14 63h-7v-14h-21
c-12.667 35.333 -24.334 54 -35.001 56zM674.001 694v-14h-7l7 -21h14v14h7l-7 21h-14zM632.001 687v-28h7l7 21l-7 7h-7zM814.001 666l7 -7l-7 -7v-28h7l14 14v7l-7 7v7l7 7h-21zM632.001 645v-21h14v21h-14zM219.001 477v-28l14 -21l-14 -84l21 -14h7v7l-7 119l7 35h-14z
M366.001 484v-35h14v21zM275.001 477v-35h21v14zM275.001 421v-7h21v7h-21zM366.001 421v-126h21l-7 7l7 7v91l-7 7v7l7 7h-21zM275.001 407l7 -7l-7 -7l7 -35v-28h14v56l-7 7v7l7 7h-21zM317.001 407l7 -21h7l7 21h-21zM632.001 379l-7 -7v-7l7 -7h-28v-21
c18.667 0 28 -7 28 -21l7 -7h7l14 28c0 23.333 -9.33301 37.333 -28 42zM324.001 358v-21l14 -14h7l-7 35h-14zM555.001 358v-21l14 -14v35h-14zM149.001 197v-56l21 7v7h-14v7h14v21l-14 14h-7zM289.001 197v-14l14 -14v28h-14zM632.001 169l-7 -7v-14l14 -14l7 7v14z
M758.001 162l-7 -7v-7l14 -14h7v14zM800.001 162l-7 -7v-7l14 -14l7 7v7zM149.001 120v-14l21 -7v28zM296.001 113v-35l14 -14l7 7v21zM632.001 113l-7 -7v-28l14 -14l7 7v28zM254.001 99v-21h7l14 14l-7 7h-14zM338.001 99v-14h-7l7 -21h21l14 14l-28 21h-7zM618.001 43
v-21h28v21h-28z" />
    <glyph glyph-name="i" unicode="i" horiz-adv-x="455" 
d="M34 1721h35l35 -7l42 7l63 -7l21 7l28 -14l14 14l14 -14l28 14l21 -21h14l14 14c28 -6 42 -13 42 -21v-49l-7 -35l7 -42v-56l-21 -21h-84c-23.333 0 -35 4.66699 -35 14l-42 -14h-77l-77 7l-28 -7l-14 21v175zM111 1406l7 -6.99902l49 7h28l63 -7l70 7h56l21 -21v-427
l-7 -133l7 -21l-7 -70v-21l-14 -21c14 -2.66699 21 -21.334 21 -56.001v-63l-7 -91l7 -98v-126l-21 -35c14 -22.667 21 -43.667 21 -63l-7 -105l7 -77l-21 -14h-56l-56 7l-77 -7h-147l-21 21v462l7 7l-7 7v154l7 84l-7 91l7 91l-7 140v364l14 14h7l42 -7zM370 1196v-21
l14 -14v35h-14zM335 853.001l14 -14h7v28h-7zM118 846.001l-7 -7v-7l7 -7h7l7 7v7l-7 7h-7zM118 769.001v-14h35l-14 14h-21zM160 769.001v-14h21v14h-21zM349 769.001l-7 -7v-7l21 -14h7l-7 7v7h14v7zM349 734.001v-7h21v7h-21zM349 699.001v-7h21v7h-21zM265 545.001v-7
h14v7h-14zM363 489.001l7 -21l14 14v14h-7l-7 -7h-7zM230 377.001v-7h21v7h-21zM55 237.001v-14h7v14h-7zM132 237.001v-21h28v21h-28zM244 237.001v-14h14v14h-14zM335 237.001v-21h14v21h-14zM335 62.001v-14h21v28h-7z" />
    <glyph glyph-name="j" unicode="j" horiz-adv-x="505" 
d="M323 1599l42 -14l7 7c14 0 21 -7 21 -21h14c0 14 4.66699 21 14 21h14l7 -35v-175l-21 -21h-315c-28 0 -42 11.667 -42 35l7 168l7 28h105l28 -7l28 7h77zM211 1571v-14h7v14h-7zM113 1550l7 -7h14v21h-7zM169 1564v-14h7v14h-7zM169 1508v-14l14 -14l7 7v7l-14 14h-7z
M85 1277h322.001l35 -7v-539l-7 -28l7 -28v-231l7 -42l-14 -42l7 -7v-7l-14 -21l14 -21v-280l-7 -105l7 -7l-42 -14v-21c23.333 0 35 -7 35 -21c-30.667 -140 -98.334 -210 -203.001 -210c0 -9.33301 -39.667 -14 -119 -14h-105l-21 21v189l21 21h21l7 -7h7l42 49l-21 77
l7 98v21l7 7l-7 7v301l-7 98l7 28l-7 21l7 77v35l-7 7l7 7v70l-7 7l7 7v119l7 56l-7 77v203l-7 35zM295.001 276v-7h21v21h-7zM344.001 101v-7h14l14 14v7h-14zM302.001 73l14 -14v28zM309.001 52v-14h7v14h-7zM106.001 -88v-21l7 -7v-7l21 7v28h-28zM176.001 -109v-14
l14 14h-14zM309.001 -123l7 -7h7l7 7v14h-7z" />
    <glyph glyph-name="k" unicode="k" horiz-adv-x="929" 
d="M84 1725l105 -0.000976562l42 -7l21 7l7 -7v-7l84 14l7 -7h7l28 7l42 -7v-105l-7 -35l7 -42v-98l-7 -35l7 -42v-133l7 -28l-7 -28v-42c0 -39.333 -4.66699 -69.666 -14 -90.999l7 -7h14l105 371l35 7h252l14 -14l-140 -567l140 -623l-7 -21
c32.667 -92.667 49 -162.667 49 -210l-7 -7h-301c-37.333 0 -56 53.667 -56 161l-77 357h-7l-7 -7l7 -210v-14l-7 -77l7 -7v-7l-21 -84c14 0 21 -32.667 21 -98l-21 -14h-56l-56 7l-77 -7h-140c-14 3.33301 -21 22 -21 56v49l7 7v7h-7l7 7l-7 84v371l7 63l-7 70v476l7 42
l-7 35v49l7 77l-7 21l7 7l-7 49v266zM308 1690v-42l14 -14v56h-14zM91 1424v-14l14 -14h14v28h-28zM196 1424l-7 -7v-7h21zM105 1347l7 -7h7v21zM210 1067v-28l14 -14l7 21l-7 21h-14zM357 149.999c0 -17.333 -11.667 -31.333 -35 -42l-7 -28l7 -7h14l42 14v63h-21z
M84 107.999v-35h14l14 14c-9.33301 0 -14 7 -14 21h-14zM119 86.999v-7l28 -7l7 7v7h-14v7z" />
    <glyph glyph-name="l" unicode="l" horiz-adv-x="455" 
d="M50 1637h350l21 -21v-399l-7 -7l7 -7l-7 -35v-7l7 -7v-7h-7l7 -7v-14c0 -23.333 -9.33301 -35 -28 -35v-14c18.667 0 28 -7 28 -21l-14 -21l7 -7v-21l7 -119h-7l7 -7v-7c-3.33301 -56 -10.333 -84 -21 -84c14 -24 21 -47.333 21 -70v-301l-7 -329l7 -196l-21 -14h-336
l-21 21v91l14 112l-14 56v777l7 98l-7 70v21l7 35l-7 42v28l7 56l-7 77v238zM239 1252v-14h-7l7 -7v-21l-7 -7v-7l21 -14l49 14v7c-24.667 0 -41 14 -49 42l-7 7h-7zM337 1252v-14h14v14h-14zM92 1210l-14 -42c46.667 -15.333 70 -36.333 70 -63l-7 -21l7 -7h21l14 49
l-21 56l14 14v7l-21 7l-21 -7zM351 1098v-21h7l14 14l-7 7h-14zM134 993l7 -7h21v21h-14zM288 993l7 -7h21v7l-14 14zM372 797v-14h21v7zM155 517v-14h14v14h-14zM211 230v-7l14 -14h7v21h-21zM176 174v-70h21v35l-7 35h-14zM225 174l-7 -42l7 -21h14v63h-14zM358 139l7 -49
v-14h7l14 14v21l-7 7v7h7l-7 21h-7l-7 -7h-7zM127 139l-7 -21l14 -49h21l-14 70h-14zM316 139v-35l7 -35h21l-7 49v21h-21zM92 132l-7 -7v-14l7 -35l14 14v28zM274 118v-21l14 -14v14h7l-7 21h-14z" />
    <glyph glyph-name="m" unicode="m" horiz-adv-x="1454" 
d="M631 1474c105.333 0 189.333 -51.332 252 -153.999l56 49l21 -7l7 21l-7 21c51.333 46.667 109.666 70 174.999 70c130.667 -28.667 196 -91.667 196 -189c9.33301 0 14 -11.667 14 -35c9.33301 0 14 -28 14 -84h7l-14 -49l7 -7l-7 -7l7 -7h-7l14 -42v-140l-7 -28l7 -49
v-812l-21 -21h-42l-7 7l-7 -7h-259l-14 14v14l-7 91l7 21l-7 112v175l7 56l-7 77v497c0 102.667 -14 154 -42 154h-28c-28 0 -42 -58.333 -42 -175v-665l-7 -70l7 -63v-217l-21 -21h-315l-21 21v602l7 70l-7 63v168l7 161c0 84 -21 126 -63 126h-14
c-28 -14.667 -42 -40.334 -42 -77.001v-189c0 -116.667 -4.66699 -175 -14 -175l14 -49l-7 -28l7 -112v-49l-7 -203l7 -21l-7 -21l7 -182v-84l-21 -21h-203c-23.333 0 -35 4.66699 -35 14l-84 -14l-14 21v56c0.666992 46.667 5.33398 70 14.001 70l-7 7v7l7 21l-14 217l35 7
v21l-14 14l-14 -14h-7v7l7 77l-7 56l7 42l-7 203v609l21 21h322l14 -14v-98h7c72.667 93.333 138 140 196 140zM1086 1397l-7 -70l7 -7v-42h7l14 14c0 23.333 -4.66699 35 -14 35l14 63h-7l-7 7h-7zM1135 1390v-14l21 -21v35h-21zM1002 1362v-14l49 -49h7l7 21
c-10.667 28 -20 42 -28 42h-35zM624 1348v-14h7l14 14h-21zM1289 1313v-21h7v21h-7zM1142 1306v-7l14 -14v21h-14zM1191 1306l-7 -7v-7l7 -7h7l7 7v7l-7 7h-7zM1198 1229v-21h7v21h-7zM680 711.001v-14h7v14h-7zM85 501.001v-7h14v7h-14zM274 438.001v-28l7 -7v-7h-7l14 -42
l7 7h7l7 -7v14l-14 21l7 7l-7 7l14 14l-21 21h-14zM134 424.001v-14h21v14h-21zM106 298.001l-7 -7v-14h7l14 14l-7 7h-7zM106 270.001l-7 -7v-28h21l7 21zM1282 88.001v-21h7v21h-7zM1282 60.001v-7h14v7h-14zM1093 46.001l7 -21l14 14v14h-7l-7 -7h-7z" />
    <glyph glyph-name="n" unicode="n" horiz-adv-x="937" 
d="M595 1379v-56l7 7h7l-7 7v42h35c38 -3.33301 70.667 -24.333 98 -63c20.667 0 41.667 -23.333 63 -70c17.333 0 31.333 -93.333 42 -280v-7l-14 -21l-7 7h-28v-21l7 -7v-7l28 14c9.33301 -18 14 -43.667 14 -77v-217l-7 -7l7 -7v-35l-7 -63l7 -28l-7 -21l7 -42l-7 -56
l7 -28l-7 -35l7 -168v-203l-21 -21h-63l-63 7l-70 -7h-133l-14 14v287l-7 7l21 84v7l-14 21l7 7l-7 49v7l7 28l-7 49v455h14l-14 21l-28 252l-14 14l7 7l-7 49v21c0 23.333 14 35 42 35v14h14l14 -49l42 28v-7l-7 -21l7 -7h14v7l-21 49c9.33301 0 14 9.33301 14 28l7 7h35z
M315 1358l21 -105h7l7 7h7c14 -18.667 23.333 -49 28 -91h7l7 49l-7 7l7 7l-7 7h7l-7 7v7l7 35h21v-42h-14l21 -77l21 14l50 -25v-21c-47.333 16.667 -71 18 -71 4l-42 -21l-21 -49l7 -7v-21h-21v21h-7v-63l21 -28v-56c0 -37.333 -16.333 -56 -49 -56v-7l-7 -112l7 -21
l-21 -49l21 -21c0 -8 -14 -15 -42 -21l7 -35h7l7 7h7c6 -32.667 13 -49 21 -49l21 7l-7 21c4.66699 32.667 11.667 49 21 49h7v-21l-7 -7l7 -21l-7 -7l14 -84l-14 -28l7 -35v-21l-7 -28l7 -7v-7l-7 -98l7 -329l-21 -21h-14l-28 7l-49 -7h-231l-21 21
c3.33301 70 10.333 105 21 105l-21 35v7l7 21l-7 35v7l7 42l-7 21c8 0 15 14 21 42c-14 88.667 -21 179.667 -21 273v140l7 7l-7 7v7l7 7l-7 7v7l7 42h7v-21h7c9.33301 0 14 7 14 21c9.33301 0 14 -7 14 -21l7 -7h7l7 7v7l-7 84h-14v-21h-14l-28 49v28l7 7l-7 7v35l7 7l-7 7
v7l7 35l-7 28h7c-9.33301 24.667 -14 73.667 -14 147v105c0 56 7 84 21 84l7 7l21 -7l14 -28c24.667 0 48 11.667 70 35l14 -42h7l28 21c1.33301 -23.333 8.33301 -35 21 -35c4.66699 37.333 11.667 56 21 56l7 -49v-49h21v7l-14 21l21 63h14v-49l7 -7l-14 -42l21 -14
c9.33301 0 16.333 14 21 42l-14 70zM777 1232v-49l7 -35h14v84h-21zM791 1106v-56h7l7 35v21h-14zM763 1015v21v-21zM763 980v21h-7zM798 994v-14h7v14h-7zM763 924l7 7v14h-14zM707 896v-56h14v21l-7 35h-7zM574 889v-21h7l14 14l-7 7h-14zM756 854v-7l14 -14v21h-14z
M336 805l14 -14h-14v14zM350 756h7l7 -35v-14l-14 -14l-14 14v35zM504 581v-21h14v21h-14zM280 455v-7l21 -7l14 21v21h-7zM84 287v-21c0 -28 -11.667 -42 -35 -42v-77l7 7h21c0 -18.667 9.33301 -32.667 28 -42l7 7v7l-14 133l7 21l-7 7h-14zM56 196h14l14 -14l-14 -14
l-14 21v7zM14 112v-7h14v21zM49 105v-7l14 -14l7 7v7zM154 56v-14h7v14h-7zM196 7v-14h14v14h-14zM21 0v-14h21l-14 14h-7zM63 0l-7 -49h21l-7 49h-7z" />
    <glyph glyph-name="o" unicode="o" horiz-adv-x="913" 
d="M435 1426l21.002 -14.002l21 14l21 -7l-7 -49l14 -14l14 28l-14 28h14v7l21 -7v-49l14 -14h7c0 -14 -7 -21 -21 -21v-21h21c9.33301 2 18.666 13.667 27.999 35l-7 7l7 7h-7l7 7v14c0 9.33301 -9.33301 14 -28 14v21c115.333 -30 194.666 -81.333 237.999 -154
c56 -87.333 84 -208.666 84 -363.999l-7 -21h-14v21l-7 35h-14l-7 -35c4.66699 -32.667 11.667 -49 21 -49l7 7h7l14 -189l-14 -42l7 -35v-14h-7l7 -105c0 -235.333 -51.333 -387 -154 -455c-67.333 -51.333 -135 -77 -203 -77v-7l-21 14l-63 -14
c-46.667 7.33301 -70 14.333 -70 21l-21 -7c-98 0 -179.667 60.667 -245 182c-37.333 86 -56 198 -56 336h7l-7 7v7l7 7l-7 7v7l7 28l-7 28l21 70l-14 147v42l7 63l-7 70v42l21 112h-7l49 147c50.667 73.333 95 115.333 133 126c38.667 26.667 101.667 45.334 189 56.001z
M456.002 1398v-35l14 14v7zM456.002 1307l-0.000976562 -48.999l7 -7l-7 -7v-14l7 -28c-3.33301 -23.333 -15 -35 -35 -35l-21 -126h7l-14 -28l14 -91l-7 -21l7 -21l-7 -70v-182l7 -203l-7 -7v-7c0 -149.333 14 -224 42 -224l42 -7l21 28h7v-42l-7 -7l7 -7v-7l-14 -14
l-14 42l-21 -7l14 -133v-14l-14 -14h-7v14h-14l-7 -35v-14h7l7 7l7 21h7l28 -14l14 28l-14 28l7 21h7l21 -14c18.667 9.33301 28 23.333 28 42l-7 42c9.33301 0 14 -14 14 -42h21c2.66699 42 7.33398 63 14.001 63c-7.33301 10 -14.333 56.667 -21 140h-14
c0 -32.667 -7 -49 -21 -49c0 14 -9.33301 21 -28 21l-7 21l7 231l-7 119l7 7v7l-7 77v70l7 7l-7 7v70h7l14 -14v-35h14v56l-14 14l-7 -7h-7l-7 7v7l7 21l-7 35v21l7 7l-7 7v112c-18.667 49.333 -32.667 114.666 -42 195.999h-14zM274.001 1300v-7l14 -14v21h-14z
M512.001 1300v-14h7v14h-7zM680.001 1300v-35l14 -14h7l7 28l-7 21h-21zM365.001 1279v-14h7v14h-7zM421.001 1244l-7 -7v-63h21v56zM645.001 1244v-42h7l14 14v7zM365.001 1216l7 -7h7v21zM239.001 1202v-21l14 14l-7 7h-7zM197.001 1181v-28h14v28h-14zM841.001 1034v-28
h7v28h-7zM568.001 1013v-21l-7 -63l14 -112l-7 -21l7 -7h14l7 70l-7 28l7 7v7l-7 42v7l7 28l-14 35h-14zM806.001 914.999v-28l7 7h7l-7 21h-7zM260.001 879.999v-14h14v14h-14zM533.001 816.999l7 -42l-7 -21l7 -7h7l7 7l-7 35l7 21l-7 7h-14zM589.001 655.999v-21h14v21
h-14zM148.001 452.999v-21h14v21h-14zM155.001 410.999v-7l14 -14l7 7v7l-7 7h-14zM183.001 403.999v-7h21v7h-21zM568.001 333.999v-14h14v14h-14zM785.001 326.999v-21l7 -35h14v42l-14 14h-7zM617.001 249.999v-49l-7 -35l7 -42v-63h21v7l-14 56l14 63l-7 63h-14z
M708.001 242.999v-7l14 -49h7l7 21l-7 7h7l-7 28h-21zM554.001 179.999h14v-28h-14v28zM715.001 172.999v-21h14v21h-14zM162.001 165.999v-21h14v7zM442.001 151.999v-21h7v21h-7zM393.001 25.999v-21l14 -28h7l7 21l-7 42h-7zM358.001 25.999v-21h7v21h-7z
M624.001 4.99902v-7l14 -14l7 7v28h-7z" />
    <glyph glyph-name="p" unicode="p" horiz-adv-x="897" 
d="M602 1405l7.00195 -0.000976562c1.33301 -18.667 6 -28 14 -28l-7 -21l-35 7v-14l13 19l15 -33c4 16 8.33301 3.66699 13 -37h21v14h7l35 -7l7 21l-7 35h14l21 -21l8 -257l14 -14l14 14l-7 140l14 14l-7 7l-1 47c-10.667 0 -20 9.33301 -28 28v7l49 35l-7 7l8 -26h7
c56 -34 84 -122.667 84 -266v-63c0 -9.33301 -7 -14 -21 -14c11.333 0 20.666 -44.333 27.999 -133l-7 -42l7 -77v-217l-7 -147l7 -35l-7 -63h7l-7 -7v-91l-7 -35h-7l-7 35v105l-7 42l7 35l-7 21l-7 -7h-7l7 -7v-49l-7 -63c0 -88.667 9.33301 -133 28 -133v-7
c-9.33301 0 -14 -9.33301 -14 -28l-7 -7h-14l-7 28l7 28c-6.66699 46.667 -16 70 -28 70c0 -37.333 -4.66699 -56 -14 -56l-21 21l-7 -7v-21l14 -14h7l7 7h7v-42h-7l-21 14v-63l14 -14h7v14h14v-14l-7 -7v-7l14 -14v-14c-46.667 -56 -102.667 -84 -168 -84
c-82 0 -152 44.333 -210 133h-21v-308h-35l-35 7l-105 -14c-18.667 7.33301 -28 14.333 -28 21v35h-14v-35l-21 -21h-105l-21 21v175l7 133l-7 168v399l7 63l-7 70v385l7 7l-7 7v63l7 7l-7 7v7l7 35l-7 49c9.33301 0 16.333 18.667 21 56h7l28 -7l7 7h7l21 -7l-7 -35h7l7 7
h7l-7 7v21l35 7h14c23.333 -1.33301 35 -6 35 -14l42 14h70l14 -14v-7l-7 -7v-7l21 -7c6 23.333 13 35 21 35h7v-7l7 -63l-7 -28c6 -23.333 13 -35 21 -35h7c40 49.333 65.667 74 77 74c8 -46.667 15 -70 21 -70l-7 -35v-21h-14c-10.667 0 -36.334 1 -77.001 3h-7l-7 -28
l7 -42l-14 -42h7l-14 -42v-98l14 -21l-7 -91l7 -294v-119l7 -98l-7 -35l7 -7v-7l-7 -21c0 -52 25.667 -82.333 77 -91c0 -14 4.66699 -21 14 -21h7v7l-7 28c9.33301 12 14 35.333 14 70h7l-7 49v70l7 77l-7 7v7l7 42l-7 42l7 28l-7 133v182h14l7 -7h7v91l-7 -7h-7l-14 14
l7 7v7l-7 42l7 7c0 58 -12.667 129.333 -38 214l52 -21l-49 10l49 32l-35 24l-14 28c20 10.667 31.667 22.334 35 35.001h-7c0 22 32.667 38.333 98 49zM651.002 1384h7v-14h-7v14zM721.002 1384h14l21 -21h-21l-14 14v7zM217.002 1363v-21h7v21h-7zM762.002 1305l8 -75h7
l-1 75h-14zM483.002 1237v-7l21 -7v14h-21zM91.002 1160v-7l14 -14v14h7l-7 21zM140.002 1167l-7 -7v-7l7 -7h7l7 7v7l-7 7h-7zM819.002 1160v-21h21v21h-21zM98.002 1097l-6.99902 -42c7.33301 -51.333 16.666 -77 27.999 -77l7 77l-7 42h-21zM812.003 1090
c14 -16 23.333 -37 28 -63h14v7l-21 63zM63.0029 1083l-7 -63c14 0 21 9.33301 21 28l-7 35h-7zM742.003 984.999v-21h7l14 14v7h-21zM112.003 963.999v-105h14v70l-7 35h-7zM63.0029 942.999v-28h14v28h-14zM525.003 949.999v-49h-21v14l7 7v7l-7 7zM161.003 928.999v-126
l14 -14v56l-7 42l7 35l-7 7h-7zM763.003 837.999l-7 -7v-28h7l14 14v7zM525.003 823.999v-77h14v63zM112.003 809.999v-21l14 -14v35h-14zM161.003 732.999v-35l14 -77h14v7l-7 105h-21zM805.003 648.999l7 -21h7v28l-7 -7h-7zM763.003 522.999l14 -14v-42h-14v-14l-7 -42
l21 -49h7v21l-7 35h63v7l-14 14l-21 -14c-11.333 0 -18.333 9.33301 -21 28l7 49l-7 7l7 7l-7 7h21c0 -14 4.66699 -21 14 -21h7v84l-14 14c0 -32.667 -4.66699 -49 -14 -49h-7l-7 98c-14 0 -21 -42 -21 -126zM728.003 522.999v-42h14v7l-7 35h-7zM791.003 291.999l-7 -35
l7 -21l21 28c-6.66699 18.667 -13.667 28 -21 28zM441.003 74.999v-21h14l-7 21h-7zM469.003 74.999v-7h14v7h-14zM777.003 81.999h14v-21h-14v21zM259.003 67.999v-14h7v14h-7zM763.003 32.999v-7h14v7h-14z" />
    <glyph glyph-name="q" unicode="q" horiz-adv-x="929" 
d="M260 1415c94 0 180.333 -51.333 259 -154v-21h21v28c0 14 -9.33301 32.667 -28 56l14 35l-7 21l21 7c30 0 55.667 -11.667 77 -35h14v28h14l7 -7l70 14l14 -28h14c2.66699 18.667 9.66699 28 21 28l7 -7l7 7h70l21 -21v-35l-7 -63l7 -105v-553l-7 -70l7 -63v-147l-7 -119
h-21v-49h7l7 7h7l7 -7v-49c0 -9.33301 -9.33301 -14 -28 -14v-21c18.667 0 28 -18.667 28 -56h-7l7 -7v-56l-7 -98l7 -28l-7 -35l7 -49l-21 -14h-77l-77 7l-7 -7h-7l-7 7l-84 -7h-49l-35 7v49l7 35l-14 98l14 126h-7c-64 -84 -120 -126 -168 -126l-63 -7
c-64 0 -124.667 37.333 -182 112c-37.333 62 -56 148.333 -56 259v189l-7 42l14 98l-7 42v70l-7 35l7 7h7l21 -7v7l7 21l-21 35l14 14v21l-14 21v7l7 7l-21 70l21 14l-14 112l7 7v7l-14 49l14 84h14l7 -7h7l14 14h7c9.33301 -47.333 14 -122 14 -224l14 -49l14 14l-14 168
l14 42l-14 133h21c0 -23.333 4.66699 -35 14 -35l7 42l-7 42h21v-28h7c9.33301 0 14 14 14 42zM337 1380v-28l14 -14v42h-14zM288 1352v-7l14 -14l7 7v28h-7zM778 1359v-77l-35 7h-7v-28c8 -56 17.333 -84 28 -84c0 28 4.66699 42 14 42l14 -14h7c0 28 4.66699 42 14 42
l14 -28l14 14v42l-14 14h-14l7 -7v-14l-14 -14l-14 105h-14zM379 1352v-21h7v21h-7zM652 1345v-119h21v112zM106 1324l7 -7v-7l-7 -56h-7l-14 14v14c2.66699 28 9.66699 42 21 42zM617 1268l-7 -7v-7l14 -14l14 14zM484 1240v-56h14v70zM428 1198l21 -7v-14l-49 -77l7 -168
l-7 -56l7 -63v-7l-7 -28l7 -28v-35l-7 -28l7 -49v-161c0 -32.667 -4.66699 -49 -14 -49c8 -168 24.333 -252 49 -252h28c23.333 12 35 30.667 35 56l7 154l-7 119l7 56h-7l7 7v14l-7 28l7 7v7l-7 28l7 105v182c0 140 -11.667 210 -35 210l-21 21v49h-7zM78 1198v-35h7v35h-7
zM400 1177v-21h14v21h-14zM792 1163v-21l14 -14h7v7l-14 28h-7zM841 1163l-7 -21l7 -28h14v49h-14zM78 1156v-63h14v49zM344 1156v-35l14 -14v49h-14zM309 1142v-56l-7 -35l21 -14v105h-14zM211 1114l14 -28h7l7 21l-7 21h-7zM253 1107l7 -21l-7 -49l21 -14l21 28
c-18.667 28 -28 49 -28 63l-7 -7h-7zM225 1044c0 -32.667 -4.66602 -48.999 -13.999 -48.999h-14l-7 42h-14l-7 -35l14 -56l-7 -21c5.33301 -102.667 14.666 -154 27.999 -154h7v21l-21 91c9.33301 9.33301 14 39.666 14 90.999l7 7h7l28 -7v14h21v-14h7v14h7l-7 21h-7v-14
h-21v42zM141.001 946.001l-7 -35h7l7 7h7l-7 28h-7zM99.001 799.001v-7h14v21zM141.001 799.001v-21h14v21h-14zM379.001 785.001l-7 -35l7 -7h7l7 42h-14zM64.001 750.001v-21h7v21h-7zM204.001 743.001v-14h7v14h-7zM372.001 729.001l7 -56h7v56h-14zM533.001 407.001v-14
h14v14h-14zM183.001 309.001l-7 -7v-21l14 -14h7v28zM225.001 246.001v-49h14v35zM862.001 204.001h7v-21h-7v21zM722.001 190.001l-14 -49l21 -7l7 7v35zM267.001 155.001h14v14z" />
    <glyph glyph-name="r" unicode="r" horiz-adv-x="682" 
d="M637 1451l7 -7v-126l-7 -7l7 -7v-49c0 -93.333 -4.66699 -154 -14 -182c9.33301 -20 14 -57.333 14 -112l-140 -35c-46.667 -21.333 -70 -86.666 -70 -195.999l-7 -98h7l-7 -7v-7l7 -35l-7 -21l7 -77l-7 -392v-63l7 -7l-14 -28l-70 -7l-28 7l-77 -7h-161l-21 21v112
l7 105l-7 140v350l14 77v28l-14 56v532l21 21h322l21 -21l-7 -112v-7h7c67.333 93.333 114 140 140 140l7 -7c0 15.333 21 24.666 63 27.999zM217 744v-35l7 -35h7v70h-14z" />
    <glyph glyph-name="s" unicode="s" horiz-adv-x="857" 
d="M402 1338c167.333 -1.33301 279.333 -52.667 336 -154c24.667 0 43.334 -49 56.001 -147l-7 -7v-7l14 -42v-112l-21 -21h-154l-7 7l-7 -7h-112l-21 21v168c0 32.667 -18.667 49 -56 49c-42 -17.333 -63 -43 -63 -77c0 -110.667 25.667 -183 77 -217
c176 -97.333 292.667 -186 350 -266c28 -74.667 42 -137.667 42 -189v-35c0 -23.333 -4.66699 -35 -14 -35l14 -42c-11.333 -144.667 -34.666 -217 -69.999 -217l7 -7v-14c-10.667 -22.667 -31.667 -46 -63 -70h-7l-7 7h-7c0 -42 -72.333 -70 -217 -84
c-49.333 0 -79.666 14 -90.999 42h-7v-28h-21c-9.33301 0 -14 7 -14 21l-21 -7c-110.667 0 -192.334 72.333 -245.001 217v14h14l-7 7v7c14 0 21 4.66699 21 14v14h-21l-7 -7h-7c-9.33301 0 -16.333 72.333 -21 217c3.33301 14 12.666 23.333 27.999 28l28 -7l63 7l35 -7
l77 7h77l21 -21v-154c4.66699 -70 18.667 -105 42 -105h42c28 16.667 42 37.667 42 63v49c0 112 -18.667 168 -56 168l-280 203c-84 71.333 -126 195 -126 371c0 58.667 9.33301 103 28 133v14l-7 7c31.333 93.333 82.666 156.333 153.999 189
c44 18.667 109.333 32.667 196 42zM164 1177l21 -21l7 7v14h-28zM500 1170v-14h7v14h-7zM101 1100l-7 -7v-7l14 -14h7v14zM101 1065v-21h21l-7 21h-14zM318 1065l-7 -35v-7l14 -14h7v21l-7 35h-7zM150 1051l-7 -35v-7h14v42h-7zM507 1030v-7h14v21zM738 1037v-14h14z
M318 1002v-21h14v21h-14zM689 987.999v-28h14v28h-14zM234 973.999l-7 -7v-7l7 -35h14v35zM605 973.999v-21l14 -14h49v7l-42 28h-21zM276 959.999v-14h14v14h-14zM150 924.999v-42h21v21c-9.33301 0 -14 7 -14 21h-7zM101 910.999v-7l7 -35l-7 -7l7 -7h21l-7 35v21h-21z
M199 903.999v-14h14v14h-14zM73 875.999v-21h14v21h-14zM199 798.999v-7h14v7h-14zM66 224.999v-35h14v35h-14zM577 203.999l-7 -28h14v28h-7zM717 182.999v-7h28v-56h-7v14h-28l-7 -21l21 -14l14 14h7l7 -21l-7 -21l7 -7h14v7l7 119l-7 7h-7zM528 189.999v-14h14v14h-14z
M584 133.999v-21h7v21h-7zM668 133.999l7 -7v-7l-7 -7h21l-7 21h-14z" />
    <glyph glyph-name="t" unicode="t" horiz-adv-x="569" 
d="M100 1494l77 -14l21 14l7 -7h28l7 7l7 -7h7l63 7l35 -7l70 7l21 -21v-210h77l21 -21v-189l-21 -21h-21c-9.33301 0 -14 9.33301 -14 28h-7c0 -18.667 -4.66699 -28 -14 -28h-35l7 -49l-14 -14l7 -28c0 -14 -7 -21 -21 -21l-7 -7v-7c28 -20 42 -69 42 -147v-14l-7 -7l7 -7
v-14l-7 -49l7 -63v-42l-7 -77l7 -7v-7l-7 -28c4.66699 -233.333 14 -350 28 -350c60.667 0 91 -11.667 91 -35v-182l-21 -21h-91l-7 7l-7 -7h-84c-177.333 0 -266 84 -266 252v49l7 28l-7 28v91c0 9.33301 9.33301 14 28 14l7 35v7c-23.333 0 -35 16.333 -35 49v154l-7 77
l7 28l-7 42c3.33301 28 8 42 14 42l-7 7v56l-7 35l7 42v140h-63c-14 0 -21 39.667 -21 119l7 70l-7 28l21 14l42 -7l21 7v63l-7 70c8 65.333 17.333 98 28 98zM282 1284v-14l21 -7v21h-21zM135 1256l-7 -42h-14l-7 7h-7v-28l42 -14l21 21c-9.33301 0 -16.333 18.667 -21 56
h-7zM317 1256v-21h35v21h-35zM331 1207l-7 -7v-7l28 -7v14zM359 1200l7 -21l-7 -21h28v35l-14 14l-7 -7h-7zM177 794v-7l14 -14h7l7 28l-7 7h-7zM254 395v-112l14 -14v98l7 7l-7 21h-14zM289 381l21 -21v35h-7zM513 -11v-42h14v28zM247 -32v-28h7l14 14v14h-21z" />
    <glyph glyph-name="u" unicode="u" horiz-adv-x="953" 
d="M80 1366l14 -0.000976562l7 -7l7 7h77l7 -7l7 7h35c23.333 0 35 -7 35 -21h7c0 14 11.667 21 35 21h21l7 -7l7 7h7l28 -21l21 14h14l7 -35v-49l7 -7l-7 -7v-28l7 -119l-7 -42l7 -42l-7 -238v-161l7 -126l-7 -77l7 -21l-7 -42v-42l7 -28l-7 -21l7 -56l-7 -7v-7
c9.33301 -29.333 21 -45.666 35 -48.999h42l28 28v63l14 98l-7 7v7l7 7l-7 49v931l21 21l7 -7h7l7 7h7l21 -7l42 7l7 -7l7 7h21c88.667 0 140 -7 154 -21h14l28 21l14 -14v-28l-7 -7c9.33301 -20.667 14 -51 14 -91v-336c0 -9.33301 -9.33301 -14 -28 -14v-7
c0 -9.33301 7 -14 21 -14v-42c0 -9.33301 -7 -14 -21 -14v-7c0 -9.33301 7 -14 21 -14v-63l-14 -21l7 -7h-7c14 -22 21 -57 21 -105v-294l-7 -77l7 -28l-14 -28l14 -84l-7 -28l7 -42v-56l-21 -21l-35 7l-42 -7l-35 7l-42 -7h-56l-42 7l-7 -7h-7l-63 7h-14l-7 84
c-72.667 -79.333 -142.667 -119 -210 -119c-172.667 0 -259 130.667 -259 392v518l7 84h-7l7 7l-7 84v364zM829 1324v-21l21 -21l7 35l-7 7v7zM339 1324l-7 -28h21v28h-14zM780 1247v-14h7v14h-7zM248 1240v-14l14 -14h14v28h-28zM283 1233v-14l7 7h7l7 -7v14h-21zM157 1177
v-28h21v14l-14 14h-7zM857 658.999v-14h-7l7 -21h7v14h7l-7 21h-7zM829 616.999v-14h35v14h-35zM612 518.999l14 -14h7v28h-7zM808 434.999v-21l14 -14h7l-7 35h-14zM759 420.999v-21h14v21h-14zM857 413.999v-14h7l14 14h-21zM766 385.999v-14h14v14h-14zM724 336.999v-14
h14v14h-14zM696 231.999l-7 -42l7 -7h7l7 7v28zM787 203.999v-14h7v14h-7z" />
    <glyph glyph-name="v" unicode="v" horiz-adv-x="881" 
d="M332 1386c23.333 0 46.666 -186.667 69.999 -560l49 -413h7c38.667 601.333 64.334 923.333 77.001 966l7 7h287l21 -21c-106 -947.333 -166.667 -1421 -182 -1421h-343l-7 7l-7 -7h-84c-16 0 -37 109.667 -63 329l-133 1106l7 7h294zM178 1092v-21l7 -49h7v56zM220 1078
v-28l21 -7v35h-21zM94 1036v-56c9.33301 0 16.333 14 21 42zM514 259v-14h14v14h-14zM570 252l-7 -7v-7h21zM619 245v-14h21l-14 14h-7z" />
    <glyph glyph-name="w" unicode="w" horiz-adv-x="1274" 
d="M28 1410h105l7 -7l7 7h154c16.667 0 28.334 -46.667 35.001 -140l-7 -28l7 -28h-7l14 -70l-7 -7v-7l7 -21l-14 -14v-21c26 0 47 -140 63 -420h14c14 198 30.333 345 49 441l-7 7v7l14 77l-7 7v7c12.667 140 26.667 210 42 210h266l21 -21l35 -378h-7l35 -322
c9.33301 0 14 7 14 21c36.667 466.667 67 700 91 700h259c23.333 -1.33301 35 -6 35 -14c-14 -214 -28 -342.333 -42 -385l7 -7c-32.667 -336 -53.667 -513.333 -63 -532l7 -35c-29.333 -303.333 -48 -457.333 -56 -462l-28 -7h-203l-77 7l-56 -7h-7
c-18 0 -36.667 109.667 -56 329l14 49l-14 14v21l7 7c-14 0 -25.667 65.333 -35 196h-14c-42 -410.667 -70 -616 -84 -616h-350c-28 0 -42 25.667 -42 77l-7 126h7c-12.667 18.667 -33.667 161 -63 427l7 7v7l-35 273l7 28c-18.667 49.333 -37.334 208 -56.001 476l-7 7z
M161 178v-28h7l14 14l-14 14h-7z" />
    <glyph glyph-name="x" unicode="x" horiz-adv-x="873" 
d="M313 1378c37.333 0 55.999 -51.334 55.999 -154.001l56 -294h7c23.333 96.667 44.333 220.334 63 371.001l14 63l63 14h238l14 -14l-140 -686l168 -728l-56 -14h-273c-19.333 0 -42.666 112 -69.999 336l-7 56l-14 56h-7c-44.667 -294 -72.667 -441 -84 -441l-77 -7
l-35 28h-7l-28 -21h-14l-42 14c-4.66699 -14 -18.667 -21 -42 -21h-28l-21 14l154 735l-119 532l7 7v7c-21.333 51.333 -33 98 -35 140l7 7h252zM123.999 1238v-21l14 14l-7 7h-7zM172.999 1238v-21h14v21h-14zM501.999 1224l-7 -35l7 -21l35 7
c7.33301 -18.667 14.333 -28 21 -28l14 42l-21 21l-7 -7h-21c-9.33301 0 -14 7 -14 21h-7zM627.999 1224l-7 -7c6 -28 13 -42 21 -42l7 7l-14 28l7 7l-7 7h-7zM172.999 1182l7 -7h7v21zM585.999 1196v-21l7 -7l-7 -7v-21h21v42l-14 14h-7zM221.999 1189v-21h14v21h-14z
M627.999 1161v-21h21v21h-21zM634.999 1105v-21l7 -49l-14 -14v-28c0 -51.333 7 -77 21 -77c32.667 0 49 11.667 49 35l14 21c0 14 -14 21 -42 21l-21 112h-14zM543.999 1014l-7 -21l7 -7h14l21 21l-7 7h-28zM634.999 908.999v-14h7v14h-7zM571.999 866.999v-56h14v56h-14z
M417.999 817.999c2.66699 -28 9.66699 -42 21 -42l7 28l-7 35zM767.999 201.999l14 -14h7v14h-21zM564.999 194.999l14 -14l7 7v7h-21zM214.999 47.999v-21h21v7l-14 14h-7zM214.999 5.99902v-14h-7l7 -21h21v14h7l-7 21h-21z" />
    <glyph glyph-name="y" unicode="y" horiz-adv-x="881" 
d="M40 1301l203.001 -6.99902l21 7l28 -7l28 7c18.667 0 28 -14 28 -42h7l-28 -63c24.667 0 41 -46.667 49 -140l70 -574l-7 -21l7 -28h-7l7 -7v-35c-14 0 -21 -4.66699 -21 -14v-21h28c11.333 0 18.333 23.333 21 70h7l-7 7v35l7 28l-7 7v7
c6 165.333 13 258.666 21 279.999l-7 7v7l14 91l-7 7v7l14 126l-7 7c5.33301 86 12.333 137.333 21 154l-7 63l7 35h14c12.667 0 22 -23.333 28 -70l21 7v63l35 7h210l21 -14l-21 -140h7l-7 -7v-35c-50 -555.333 -82.667 -833 -98 -833l7 -7v-7
c-23.333 -312.667 -51.333 -469 -84 -469c-32.667 -88.667 -147 -133 -343 -133l-14 14l14 14v7l-35 7h-21l-7 -7h-7c-9.33301 11.333 -14 27.666 -14 48.999h-14l-7 -35v-14l14 -21l35 7l14 -14l-7 -7h-7l-42 7l-7 -7l-7 7h-28l-7 -7l-7 7h-28l-7 -7h-7
c-9.33301 20.667 -14 58 -14 112v105c0 14 35 21 105 21l21 28v35c0 40.667 -18.667 171.334 -56 392.001l14 14v14c-18.667 28 -28 63 -28 105c23.333 6 35 13 35 21l-49 7v35l-77 420l7 21c-18.667 45.333 -37.334 148 -56.001 308l7 7h14zM593.001 1266v-42h63v7
c-28 0 -42 4.66699 -42 14v7l7 7v7h-28zM285.001 1175v-21h7l14 14l-7 7h-14zM579.001 1042v-21h21l7 21l-7 7zM558.001 993.001l35 -42h-14l21 -21c0 9.33301 9.33301 14 28 14v7h-28c0 9.33301 7 14 21 14l7 21c-12.667 0 -26.667 7 -42 21h-7zM145.001 993.001l14 -14
l14 14h-28zM579.001 909.001v-21l56 14v7l-35 7zM537.001 909.001v-21h14v21h-14zM593.001 846.001l-7 -7v-7h28v7zM628.001 839.001l21 -21l7 21h-28zM691.001 615.001v-7h14v7h-14zM740.001 615.001v-14h14v14h-14zM600.001 608.001v-14h14v14h-14zM292.001 468.001v-21
h14v21h-14zM390.001 440.001l-7 -84l7 -7h7c9.33301 0 14 7 14 21l-14 28h7l-7 42h-7zM299.001 377.001v-14h21l14 14h-35zM684.001 370.001v-21l14 -14l7 7v28h-21zM684.001 314.001l14 -14h14v14h-28zM544.001 146.001l7.00098 -35c-37.333 0 -56 -28 -56 -84l14 -14
c9.33301 0 18.666 14 27.999 42h-7l7 7v14h-14l7 7v7l-7 7h7c14 0 21 -23.333 21 -70l7 -7h14v14h7l-7 7v28c18.667 0 28 7 28 21v21l-7 -7h-7v14h14v28l-28 14h-14zM397.002 -161.999v-14h7v14h-7zM124.002 -322.999l21 -7v21h-7zM180.002 -308.999v-14l21 7v7h-21z" />
    <glyph glyph-name="z" unicode="z" horiz-adv-x="737" 
d="M117 1426h77l77 -7l28 7l21 -7l77 7h42l35 -7l42 7h154l21 -21v-259c0 -53.333 -37.333 -172.333 -112 -357h-42l14 -14l28 7v-7c-25.333 -112 -46.333 -168 -63 -168l7 -21l-91 -273v-35h238l21 -21v-252l-21 -21h-322l-42 7l-35 -7h-28l-7 7h-7v-7l-7 7l-70 -7h-63
l-21 21v14h7l-7 84v14c0 173.333 25.667 285.333 77 336l14 -14l-7 -7v-21h56v21h-14l-7 -7h-7l-7 7v7h42v21c-23.333 0 -35 7 -35 21c42 0 72.333 16.333 91 49l14 -14h14v14c0 7.33301 -9.33301 14.333 -28 21v-7l-7 7h-21l-14 -42c-42 24 -63 42.667 -63 56
c0 21.333 14 40 42 56l-14 14v14l7 35h84l-7 21h-21v-14h-28l-14 14v14l21 63h14l7 -7l21 7v7h-35l7 7v7l-7 7l7 7h-7l28 84h14l7 -35h14l7 35c0 14 -9.33301 21 -28 21v21h21v7l-14 21c0 24 21 56.667 63 98l-7 7h-7l7 7v14l-7 7v7h7l-35 56c-9.33301 0 -14 -7 -14 -21
l-7 -7h-182v7l7 35l-7 7h14v7c-18.667 0 -28 14 -28 42v21l7 77l-7 28l14 21l-7 7v21zM348 1391v-7l14 -14h7v21h-21zM201 1356v-14l14 -49h7c9.33301 0 14 7 14 21c-2.66699 37.333 -9.66699 56 -21 56zM404 1335v-7l14 -14v35zM222 1188h14v14zM327 1188h56v14h-42z
M383 894v-7l14 -14h7v35h-7zM432 894v-7l7 -21h7l7 21l-7 7h-14zM292 831l-7 -35l7 -28h28l7 21c-9.33301 0 -14 11.667 -14 35l-7 7h-14zM383 817l-7 -21l7 -7l-7 -7l21 -14l28 14l-21 35h-21zM488 803l-14 -14l7 -21h21l14 14l-21 21h-7zM432 789v-7l28 -7l7 7v7h-14v7z
M243 733v-7h35v21h-21zM299 740v-14h14v14h-14zM292 691v-7l28 -7l7 7v7l-7 7h-7zM348 691c0 -12 23.333 -21.333 70 -28v21l-49 7h-21zM411 621v-14h14zM460 621v-21h14v21h-14zM243 586l-7 -7v-7l7 -7v-7c18.667 7.33301 28 14.333 28 21zM467 537l7 -21h7l7 21h-21z
M166 488h7v-14h-7v14zM152 390v-7l7 -56l-7 -49c23.333 -4 35 -20.333 35 -49l21 -14h7l7 35l-7 7l7 21h7c-12.667 46.667 -22 70 -28 70c-23.333 0 -35 4.66699 -35 14l7 21l-7 7h-14zM110 362v-7c9.33301 -13.333 14 -39 14 -77l14 14v49zM327 348v-14l14 -14h14v28h-28z
M376 348v-7l7 -28l-7 -21h21l7 56h-28zM299 313l-14 -14h-42l-7 -21h42l7 7h7v-7l21 7v14zM341 306v-14h14v14h-14zM194 159v-14l7 -35h14l14 14v35h-35zM201 103v-21h14v21h-14zM194 40l14 -14l7 7v7h-21z" />
    <glyph glyph-name="braceleft" unicode="{" horiz-adv-x="684" 
d="M587 1902h63l21 -21v-161c0 -51.333 -14 -77 -42 -77c-93.333 0 -140 -32.667 -140 -98c-2.66699 -46.667 -9.66699 -70 -21 -70c-28 0 -46.667 11.667 -56 35l-161 28l14 21l-7 7v56c0 9.33301 7 14 21 14l42 -14h14v14h7v-14h21v21h-7c-60.667 0 -91 11.667 -91 35
c16 51.333 34.667 77 56 77l-7 7v21c50.667 79.333 141.667 119 273 119zM342 1664v-7h28l-7 7v7zM272 1461l48.998 0.000976562l105 -14l49 7l7 -7v-7l-14 -21l-35 7h-21v-14h-7c11.333 -28 25.333 -42 42 -42v-14l-7 -7v-7c14 0 25.667 -9.33301 35 -28v-42l-7 -63l7 -7
v-7l-14 -84l-42 7l-56 -7l7 -21h77v-14c0 -10.667 -28 -17.667 -84 -21l-21 -21h-14l-21 14h-21l-21 -42h7l-7 -28h-21l-7 35h-7c-28 0 -42 -16.333 -42 -49h28l42 7l28 -7l21 7v7c-14 0 -21 4.66699 -21 14v21l49 7h91v-21c-14 -14 -21 -30.333 -21 -49
c-18 -2.66699 -32 -16.667 -42 -42h-56v-7c14 0 21 -9.33301 21 -28l-7 -21c102.667 -70 154 -205.333 154 -406v-56l7 -63l-14 -42c12.667 -34.667 22 -88.334 28 -161.001c0 -20 53.667 -38.667 161 -56l7 -7v-224l-21 -21h-35c-157.333 0 -257.666 44.333 -300.999 133
c-39.333 0 -62.666 207.667 -69.999 623c-30 107.333 -90.667 161 -182 161v21h7l-7 70v49l14 14h14v-35h21v35h14l7 -7h7l-7 -7v-21h21l14 14l-14 21h14l35 -7c0 9.33301 21 16.333 63 21l7 7v7l-7 7l70 14v7h-168l-42 -21l-28 7h-7l-21 -14l-7 7v56c0 6 35 17.667 105 35
c60.667 43.333 91 160 91 350h-7l7 7v70zM432.998 1244v-42c-23.333 0 -35 -11.667 -35 -35h-42c0 14 -4.66699 21 -14 21l-14 -14l7 -7l-21 -21v-7h98l49 91l-21 14h-7zM292.998 1118v-14h21l-14 14h-7z" />
    <glyph glyph-name="bar" unicode="|" horiz-adv-x="532" 
d="M217 1892h84.001c9.33301 0 14 -14 14 -42h7c9.33301 0 14 11.667 14 35l7 7h7c15.333 0 24.666 -35 27.999 -105l-14 -28l14 -98l-7 -7l7 -84v-49l-7 -63l7 -35l-7 -371l7 -238c0 -32.667 -11.667 -49 -35 -49l21 -35l-7 -21l14 -105l-7 -35l7 -63l-7 -7v-7l14 -49
l-7 -7v-7l7 -84l-7 -70h7l-7 -7l7 -84l-7 -56l7 -98v-161l-21 -21h-42l-42 7l-7 -7h-7l-35 7l-35 -7l-14 21l7 49l-7 7l7 21l-7 119l7 42l-7 70v28l7 63l-7 70v7l7 77l-7 7v7l14 35l-7 105v133l-7 28l7 28l-7 21l7 7l-7 119v483l14 56l-14 42v77l7 84h-7l7 7v70l-7 133
c4.66699 18.667 18.667 28 42 28zM329.001 1136v-14h7v14h-7zM308.001 772l-7 -7l7 -21h7l21 21zM266.001 590l-7 -35l7 -35h14l14 49zM315.001 562l14 -14h7l-14 14h-7zM315.001 275v-7h14v7h-14z" />
    <glyph glyph-name="braceright" unicode="}" horiz-adv-x="684" 
d="M100 1910l56.001 -0.00195312c120 0 204 -30.333 252 -91v-14h-7l-56 14h-42v14h-35v-14l7 -7v-7h-7c6 -23.333 13 -35 21 -35h21l42 7c60.667 -12.667 91 -24.334 91 -35.001l21 -28v-7c0 -9.33301 -18.667 -14 -56 -14c0 -9.33301 23.333 -16.333 70 -21l14 -154
l-21 -14c-14 0 -21 14 -21 42h-42v-14l7 -7v-7l-7 -7h7l-7 -7v-21h70l14 -14l-7 -7l14 -91c0 -23.333 -16.333 -39.666 -49 -48.999v-7c0 -8 14 -15 42 -21c0 -137.333 35 -230.666 105 -279.999c65.333 -10.667 98 -22.334 98 -35.001v-224c0 -14 -28 -23.333 -84 -28
c-74.667 -26 -112 -121.667 -112 -287l-7 -140l-14 -21l14 -42v-7c0 -191.333 -46.667 -312.666 -140 -363.999c-70.667 -28 -138.334 -42 -203.001 -42h-56c-14 0 -21 25.667 -21 77v161c0 18.667 44.333 30.334 133 35.001c42 18 63 81 63 189h7l-14 42
c0 290 51.333 467.333 154 532v14c-93.333 83.333 -140 188.333 -140 315l7 7l-14 42l7 7h161l28 14v7l-14 14h-112l-49 -14l-21 7v35l-7 28l14 28l-7 7l7 7l-7 7h7l-7 7v14l7 7l-14 42v126h56l7 21h-56v7l84 14v14h-7l-105 -7c-50 14 -92 21 -126 21h-21l-21 21v7l7 119
l-7 70c10.667 28 20 42 28 42zM450.001 684.998v-14h28v14h-28zM289.001 292.998l7 -21h56l-7 21h-56z" />
    <glyph glyph-name="asciitilde" unicode="~" horiz-adv-x="1196" 
d="M1062 887l7.00098 -5v-119c0 -66 -18.667 -107 -56 -123l-98 -47h-28l-7 5h-7c0 -13.333 -7 -20 -21 -20h-8v20h-14c0 -17.333 -4.66699 -26 -14 -26h-7c-9.33301 0 -14 7 -14 21h-7l-7 -21l-301 98l-28 6c-50 0 -127.333 -34.667 -232 -104c0 -10 -4.66699 -15 -14 -15
h-7l7 26l-7 15l14 31l-14 21l7 20l-7 31l7 36l-7 6l21 15l-7 16c91.333 65.333 173.333 98 246 98c40.667 0 152.667 -34.667 336 -104h35c53.333 0 130.666 39.667 231.999 119zM823.001 640v-16h14l7 16h-21zM823.001 619v-16h21v16h-21zM873.001 619v-16h14v16h-14z" />
    <glyph glyph-name="exclamdown" unicode="&#xa1;" horiz-adv-x="682" 
 />
    <glyph glyph-name="cent" unicode="&#xa2;" 
 />
    <glyph glyph-name="sterling" unicode="&#xa3;" 
 />
    <glyph glyph-name="currency" unicode="&#xa4;" 
 />
    <glyph glyph-name="yen" unicode="&#xa5;" 
 />
    <glyph glyph-name="brokenbar" unicode="&#xa6;" horiz-adv-x="532" 
 />
    <glyph glyph-name="section" unicode="&#xa7;" 
 />
    <glyph glyph-name="dieresis" unicode="&#xa8;" horiz-adv-x="682" 
 />
    <glyph glyph-name="copyright" unicode="&#xa9;" horiz-adv-x="1509" 
 />
    <glyph glyph-name="ordfeminine" unicode="&#xaa;" horiz-adv-x="758" 
 />
    <glyph glyph-name="guillemotleft" unicode="&#xab;" 
 />
    <glyph glyph-name="logicalnot" unicode="&#xac;" horiz-adv-x="1196" 
 />
    <glyph glyph-name="registered" unicode="&#xae;" horiz-adv-x="1509" 
 />
    <glyph glyph-name="macron" unicode="&#xaf;" horiz-adv-x="1131" 
 />
    <glyph glyph-name="degree" unicode="&#xb0;" horiz-adv-x="819" 
 />
    <glyph glyph-name="plusminus" unicode="&#xb1;" horiz-adv-x="1124" 
 />
    <glyph glyph-name="uni00B2" unicode="&#xb2;" horiz-adv-x="682" 
 />
    <glyph glyph-name="uni00B3" unicode="&#xb3;" horiz-adv-x="682" 
 />
    <glyph glyph-name="acute" unicode="&#xb4;" horiz-adv-x="682" 
 />
    <glyph glyph-name="mu" unicode="&#xb5;" horiz-adv-x="1180" 
 />
    <glyph glyph-name="paragraph" unicode="&#xb6;" horiz-adv-x="1100" 
 />
    <glyph glyph-name="periodcentered" unicode="&#xb7;" horiz-adv-x="569" 
 />
    <glyph glyph-name="periodcentered" unicode="&#x2219;" horiz-adv-x="569" 
 />
    <glyph glyph-name="cedilla" unicode="&#xb8;" horiz-adv-x="682" 
 />
    <glyph glyph-name="uni00B9" unicode="&#xb9;" horiz-adv-x="682" 
 />
    <glyph glyph-name="ordmasculine" unicode="&#xba;" horiz-adv-x="748" 
 />
    <glyph glyph-name="guillemotright" unicode="&#xbb;" 
 />
    <glyph glyph-name="onequarter" unicode="&#xbc;" horiz-adv-x="1708" 
 />
    <glyph glyph-name="onehalf" unicode="&#xbd;" horiz-adv-x="1708" 
 />
    <glyph glyph-name="threequarters" unicode="&#xbe;" horiz-adv-x="1708" 
 />
    <glyph glyph-name="questiondown" unicode="&#xbf;" horiz-adv-x="1251" 
 />
    <glyph glyph-name="Agrave" unicode="&#xc0;" horiz-adv-x="1017" 
d="M249 1760l49 -7.00098l399 7l63 -7v7c24 0 40.333 -88.667 49 -266l63 -455l-7 -49c18.667 -79.333 63 -406 133 -980l-21 -14h-350c-11.333 0 -18.333 9.33301 -21 28l-14 196l7 21c-3.33301 46.667 -10.333 70 -21 70h-119l-7 -35
c0 -171.333 -11.667 -264.666 -35 -279.999h-7l-56 14l-21 -7l-42 7h-42l-56 -14h-133l-21 14l63 511h-7l140 1232h14v7zM361 1508v-98c0 -33.333 -4.66699 -59 -14 -77l7 -49h7c0 16 7 30 21 42v189zM515 1291c-32.667 -356.667 -56 -562 -70 -616l14 -49h119l-49 665h-14z
M326 1207l-7 -49l14 -21l-7 -35l7 -28l-21 -91c9.33301 0 14 -7 14 -21l-7 -35h14v-21c-23.333 0 -35 -16.333 -35 -49l-28 -7v-56l21 -7v56l7 -7h7v42h35v42l7 7l-7 7v28l14 42l-14 84v21c18.667 0 28 23.333 28 70c-4.66699 18.667 -18.667 28 -42 28zM333 856.999l-7 -35
v-7l14 -14h7v7l-7 49h-7zM284 562.999v-21l21 7v7zM347 506.999l7 -21h7v21h-14zM284 471.999v-21h35v14zM340 457.999v-35h7l14 35v14h-7zM382 464.999v-14h14v14h-14zM284 429.999v-14h35v14h-35zM340 401.999v-21h7v21h-7zM277 296.999v-21h42v21h-42zM277 247.999v-21
h63v-14l-7 -7v-7l7 -7h7c0 23.333 7 35 21 35l-21 21v7l-7 -7h-63zM340 184.999v-35h28v21zM340 100.999v-21l21 7v7zM340 65.999v-14l14 -14v14z" />
    <glyph glyph-name="Aacute" unicode="&#xc1;" horiz-adv-x="1366" 
 />
    <glyph glyph-name="Acircumflex" unicode="&#xc2;" horiz-adv-x="1366" 
 />
    <glyph glyph-name="Atilde" unicode="&#xc3;" horiz-adv-x="1017" 
d="M249 1760l49 -7.00098l399 7l63 -7v7c24 0 40.333 -88.667 49 -266l63 -455l-7 -49c18.667 -79.333 63 -406 133 -980l-21 -14h-350c-11.333 0 -18.333 9.33301 -21 28l-14 196l7 21c-3.33301 46.667 -10.333 70 -21 70h-119l-7 -35
c0 -171.333 -11.667 -264.666 -35 -279.999h-7l-56 14l-21 -7l-42 7h-42l-56 -14h-133l-21 14l63 511h-7l140 1232h14v7zM361 1508v-98c0 -33.333 -4.66699 -59 -14 -77l7 -49h7c0 16 7 30 21 42v189zM515 1291c-32.667 -356.667 -56 -562 -70 -616l14 -49h119l-49 665h-14z
M326 1207l-7 -49l14 -21l-7 -35l7 -28l-21 -91c9.33301 0 14 -7 14 -21l-7 -35h14v-21c-23.333 0 -35 -16.333 -35 -49l-28 -7v-56l21 -7v56l7 -7h7v42h35v42l7 7l-7 7v28l14 42l-14 84v21c18.667 0 28 23.333 28 70c-4.66699 18.667 -18.667 28 -42 28zM333 856.999l-7 -35
v-7l14 -14h7v7l-7 49h-7zM284 562.999v-21l21 7v7zM347 506.999l7 -21h7v21h-14zM284 471.999v-21h35v14zM340 457.999v-35h7l14 35v14h-7zM382 464.999v-14h14v14h-14zM284 429.999v-14h35v14h-35zM340 401.999v-21h7v21h-7zM277 296.999v-21h42v21h-42zM277 247.999v-21
h63v-14l-7 -7v-7l7 -7h7c0 23.333 7 35 21 35l-21 21v7l-7 -7h-63zM340 184.999v-35h28v21zM340 100.999v-21l21 7v7zM340 65.999v-14l14 -14v14zM954 2116l7.00098 -5v-119c0 -66 -18.667 -107 -56 -123l-98 -47h-28l-7 5h-7c0 -13.333 -7 -20 -21 -20h-8v20h-14
c0 -17.333 -4.66699 -26 -14 -26h-7c-9.33301 0 -14 7 -14 21h-7l-7 -21l-301 98l-28 6c-50 0 -127.333 -34.667 -232 -104c0 -10 -4.66699 -15 -14 -15h-7l7 26l-7 15l14 31l-14 21l7 20l-7 31l7 36l-7 6l21 15l-7 16c91.333 65.333 173.333 98 246 98
c40.667 0 152.667 -34.667 336 -104h35c53.333 0 130.666 39.667 231.999 119zM715.001 1869v-16h14l7 16h-21zM715.001 1848v-16h21v16h-21zM765.001 1848v-16h14v16h-14z" />
    <glyph glyph-name="Adieresis" unicode="&#xc4;" horiz-adv-x="1017" 
d="M273 1512l49 -7.00098l399 7l63 -7v7c24 0 40.333 -88.667 49 -266l63 -455l-7 -49c18.667 -79.333 63 -406 133 -980l-21 -14h-350c-11.333 0 -18.333 9.33301 -21 28l-14 196l7 21c-3.33301 46.667 -10.333 70 -21 70h-119l-7 -35
c0 -171.333 -11.667 -264.666 -35 -279.999h-7l-56 14l-21 -7l-42 7h-42l-56 -14h-133l-21 14l63 511h-7l140 1232h14v7zM385 1260v-98c0 -33.333 -4.66699 -59 -14 -77l7 -49h7c0 16 7 30 21 42v189zM539 1043c-32.667 -356.667 -56 -562 -70 -616l14 -49h119l-49 665h-14z
M350 958.999l-7 -49l14 -21l-7 -35l7 -28l-21 -91c9.33301 0 14 -7 14 -21l-7 -35h14v-21c-23.333 0 -35 -16.333 -35 -49l-28 -7v-56l21 -7v56l7 -7h7v42h35v42l7 7l-7 7v28l14 42l-14 84v21c18.667 0 28 23.333 28 70c-4.66699 18.667 -18.667 28 -42 28zM357 608.999
l-7 -35v-7l14 -14h7v7l-7 49h-7zM308 314.999v-21l21 7v7zM371 258.999l7 -21h7v21h-14zM308 223.999v-21h35v14zM364 209.999v-35h7l14 35v14h-7zM406 216.999v-14h14v14h-14zM308 181.999v-14h35v14h-35zM364 153.999v-21h7v21h-7zM301 48.999v-21h42v21h-42z
M301 -0.000976562v-21h63v-14l-7 -7v-7l7 -7h7c0 23.333 7 35 21 35l-21 21v7l-7 -7h-63zM364 -63.001v-35h28v21zM364 -147.001v-21l21 7v7zM364 -182.001v-14l14 -14v14zM256 1955h252l7 -35v-301l-21 -21h-7c-23.333 0 -35 4.66699 -35 14l-42 -14h-14l-28 28v56h-14v-77
l-35 -7h-63l-21 21v315zM609 1939h252l7 -35v-301l-21 -21h-7c-23.333 0 -35 4.66699 -35 14l-42 -14h-14l-28 28v56h-14v-77l-35 -7h-63l-21 21v315z" />
    <glyph glyph-name="Aring" unicode="&#xc5;" horiz-adv-x="1193" 
d="M261 1587l49 -7.00098l399 7l63 -7v7c24 0 40.333 -88.667 49 -266l63 -455l-7 -49c18.667 -79.333 63 -406 133 -980l-21 -14h-350c-11.333 0 -18.333 9.33301 -21 28l-14 196l7 21c-3.33301 46.667 -10.333 70 -21 70h-119l-7 -35
c0 -171.333 -11.667 -264.666 -35 -279.999h-7l-56 14l-21 -7l-42 7h-42l-56 -14h-133l-21 14l63 511h-7l140 1232h14v7zM373 1335v-98c0 -33.333 -4.66699 -59 -14 -77l7 -49h7c0 16 7 30 21 42v189zM527 1118c-32.667 -356.667 -56 -562 -70 -616l14 -49h119l-49 665h-14z
M338 1034l-7 -49l14 -21l-7 -35l7 -28l-21 -91c9.33301 0 14 -7 14 -21l-7 -35h14v-21c-23.333 0 -35 -16.333 -35 -49l-28 -7v-56l21 -7v56l7 -7h7v42h35v42l7 7l-7 7v28l14 42l-14 84v21c18.667 0 28 23.333 28 70c-4.66699 18.667 -18.667 28 -42 28zM345 683.999l-7 -35
v-7l14 -14h7v7l-7 49h-7zM296 389.999v-21l21 7v7zM359 333.999l7 -21h7v21h-14zM296 298.999v-21h35v14zM352 284.999v-35h7l14 35v14h-7zM394 291.999v-14h14v14h-14zM296 256.999v-14h35v14h-35zM352 228.999v-21h7v21h-7zM289 123.999v-21h42v21h-42zM289 74.999v-21h63
v-14l-7 -7v-7l7 -7h7c0 23.333 7 35 21 35l-21 21v7l-7 -7h-63zM352 11.999v-35h28v21zM352 -72.001v-21l21 7v7zM352 -107.001v-14l14 -14v14zM98 1926c19.333 110.667 50.668 164.667 94.001 162h7v7l-14 1l1 14c36.667 49.333 147.667 68.333 333 57l112 -7l54 -24l8 6
l6 -7l15 13l20 -15l14 -1l1 14l7 -1l20 -15l63 -4l42 5c78.667 -22.667 116.667 -53 114 -91c25.333 -2 46.666 -36 63.999 -102l3 -64l-27 -103l7 -1c-46.667 -114 -129.334 -167.333 -248.001 -160l-21 8l-84 -2l-217 14l-6 7l-22 -6l-111 14v-7
c-67.333 4 -126.666 31 -177.999 81c-42.667 63.333 -61.667 132.333 -57 207zM277.002 1873l370 -23l76 -11l57 3l28 -1l41 -10c38 4 58 21.667 60 53l-27 22l-98 6l-76 12l-22 -6l-20 8h-106l-279 17l-22 -20l-2 -28zM638.002 2047l14 -1v7l-14 1v-7zM642.002 1773l8 7v7
l-21 1zM640.002 1963l14 -1v7l-14 1v-7zM713.002 2008l14 -1v7l-14 1v-7zM813.002 2051l21 -2l1 14l-21 2zM850.002 1964l21 -1l1 7l-21 1zM852.002 1649l36 4v14l-35 3z" />
    <glyph glyph-name="AE" unicode="&#xc6;" horiz-adv-x="1458" 
d="M249 1760l49 -7.00098l399 7l63 -7v7c24 0 40.333 -88.667 49 -266l63 -455l-7 -49c18.667 -79.333 63 -406 133 -980l-21 -14h-350c-11.333 0 -18.333 9.33301 -21 28l-14 196l7 21c-3.33301 46.667 -10.333 70 -21 70h-119l-7 -35
c0 -171.333 -11.667 -264.666 -35 -279.999h-7l-56 14l-21 -7l-42 7h-42l-56 -14h-133l-21 14l63 511h-7l140 1232h14v7zM361 1508v-98c0 -33.333 -4.66699 -59 -14 -77l7 -49h7c0 16 7 30 21 42v189zM515 1291c-32.667 -356.667 -56 -562 -70 -616l14 -49h119l-49 665h-14z
M326 1207l-7 -49l14 -21l-7 -35l7 -28l-21 -91c9.33301 0 14 -7 14 -21l-7 -35h14v-21c-23.333 0 -35 -16.333 -35 -49l-28 -7v-56l21 -7v56l7 -7h7v42h35v42l7 7l-7 7v28l14 42l-14 84v21c18.667 0 28 23.333 28 70c-4.66699 18.667 -18.667 28 -42 28zM333 856.999l-7 -35
v-7l14 -14h7v7l-7 49h-7zM284 562.999v-21l21 7v7zM347 506.999l7 -21h7v21h-14zM284 471.999v-21h35v14zM340 457.999v-35h7l14 35v14h-7zM382 464.999v-14h14v14h-14zM284 429.999v-14h35v14h-35zM340 401.999v-21h7v21h-7zM277 296.999v-21h42v21h-42zM277 247.999v-21
h63v-14l-7 -7v-7l7 -7h7c0 23.333 7 35 21 35l-21 21v7l-7 -7h-63zM340 184.999v-35h28v21zM340 100.999v-21l21 7v7zM340 65.999v-14l14 -14v14zM763 1749l91.001 0.000976562l7 -7l7 7h7l28 -7l49 7h308l-7 -35l21 -7v42h21l14 -14l28 14l7 -7h21l21 7v-7l7 -28v-294
l-21 -21h-70l-21 14l-21 -14h-42c-9.33301 0 -14 7 -14 21l-7 7h-7l-7 -28h-42v-266l-7 -7l7 -7v-49l35 -7l7 7l7 -7h28l7 7l7 -7h28l7 7l7 -7h7l70 7c18.667 -4.66699 28 -18.667 28 -42v-182c0 -9.33301 -9.33301 -14 -28 -14v-42l28 -35l-35 -28l-7 7h-28l-7 -7l-28 14
l-28 -7l-14 14v7l7 28l-14 49h-14l7 -70v-14c0 -9.33301 -7 -14 -21 -14l-7 7h-7c-37.333 -10.667 -56 -31.667 -56 -63l7 -35l-7 -21l7 -84v-70l7 -203l-14 -28l7 -7v-35h-14l-14 63c-11.333 0 -18.333 -9.33301 -21 -28c11.333 -32.667 20.666 -49 27.999 -49l21 7v-7
l14 -28l35 14l21 -21l14 35c-9.33301 9.33301 -14 39.666 -14 90.999l-7 7h-7v-56l-7 -35h-7c-10 0 -19.333 49 -28 147l21 7l7 -7h7l56 7l7 -28h7v21c14 0 21 -21 21 -63l21 7v49l14 14l14 -14l-7 -7v-7l14 -98l-14 -42l14 -56l-7 -70h-21v35h-14l7 -35
c-14 0 -21 -9.33301 -21 -28c-9.33301 0 -14 -7 -14 -21l-35 -7h-259c-23.333 0 -35 4.66699 -35 14l-42 -14h-105l-21 21v238l-7 28l14 70l-7 7v28h7c9.33301 0 14 -14 14 -42h7v140h-7l-7 -7h-7c0 23.333 -4.66699 35 -14 35c4.66699 51.333 11.667 77 21 77h14v28h-28v63
l21 28l-14 70l7 7l-14 84v14h7l-7 84v259l14 42l-14 42v161l7 49h-7l7 7l-14 147l7 42l-7 7v7zM861.001 1728c0 -14 -4.66699 -21 -14 -21l-21 14l-7 -7v-7l7 -7v-7l7 7h7l35 -7v35h-14zM994.001 1707v-28l7 -35h7l7 56l-7 7h-14zM1351 1707v-21h7v21h-7zM1085 1686v-14h7
v14h-7zM1176 1665v-56h14v42zM910.001 1616l7 -70v-49h14l-7 105v21l-7 -7h-7zM1085 1616v-7l14 -14v21h-14zM1134 1616v-21h14v7zM1267 1616v-49h14v35zM784.001 1609l-7 -84h7l-7 -21l7 -21h7l7 35h-7l7 7v7l-7 77h-7zM833.001 1553v-14h7v14h-7zM1141 1525l-7 -7v-14
l14 -14l7 7v14zM1141 1476v-14h7v14h-7zM924.001 1434v-14h7v14h-7zM966.001 1434v-21l14 -14v35h-14zM784.001 1420v-28l14 14zM1106 1399v-28h7v28h-7zM784.001 1378v-42l7 -35h14v21l-14 21l7 28l-7 7h-7zM973.001 1336v-112l14 -14v112zM840.001 1322v-63h14v63h-14z
M1064 1315v-21h14v7zM1113 1280l-7 -35l7 -7h7v42h-7zM847.001 1196v-21h7v21h-7zM847.001 1077v-14h14v14h-14zM889.001 1056v-7h14v7h-14zM938.001 1056l-7 -7v-14h21v7zM1029 1042v-14h7v14h-7zM1113 1035v-49h14v49h-14zM980.001 1028l-7 -77l7 -21l21 21
c-4.66699 51.333 -11.667 77 -21 77zM1022 1000l7 -42l-7 -21l7 -7h14l-7 84zM805.001 1007l-7 -35l14 -14h7v49h-14zM826.001 895h42.001l-7 49v49c-12.667 0 -24.334 -32.667 -35.001 -98zM889.002 951v-7l7 -49h14v14l-7 7l7 7v7l-7 21h-14zM938.002 930v-7l7 -35h7l7 21
l-7 35zM980.002 916v-21l14 14l-7 7h-7zM1029 909v-84l14 -119h7l7 21l-7 35l7 21l-14 126h-14zM1078 909v-7h14v7h-14zM1162 888v-28h14v14zM1260 881v-14h42v21h-7zM980.002 874v-14h14zM805.002 867v-14h14v14h-14zM854.002 867v-14h7v14h-7zM1120 867v-7h14v7h-14z
M945.002 811l-7 -21l7 -21h7l7 21l-7 21h-7zM854.002 804v-14h14zM1260 804v-21h7l14 14l-7 7h-14zM1295 790l14 -14h14v28h-14zM987.002 797v-14h14v14h-14zM1169 783l7 -7h7v21zM903.002 790v-14h7v14h-7zM1176 769v-14h7v14h-7zM945.002 741v-35h7l14 14v14zM903.002 713
v-35l14 14v7zM861.002 692l-7 -21l14 -168v-63l14 -14v112l-7 42l7 28l-14 84h-7zM1043 692l-7 -21l21 -14v21zM819.002 643v-7h14v21zM1085 629l7 -70v-14h14v35l7 49l-7 7h-7l-7 -7h-7zM959.002 622v-42c9.33301 0 14 7 14 21l-7 21h-7zM1050 622v-21h7v21h-7z
M819.002 608v-21l7 -42l-7 -7v-7l14 -84l-7 -42v-42h14v231l-14 14h-7zM959.002 566v-42h7l7 35l-7 7h-7zM1050 545v-21h7v21h-7zM1008 531v-7l-7 -77l7 -21h14v105h-14zM959.002 510v-112h14v7l7 63c-6 28 -13 42 -21 42zM1050 496l-7 -28l14 -133l-7 -42l7 -7h7v196z
M1092 475v-84l7 -49h7l7 28l-7 49v70zM770.002 468h7v-21h-7v21zM770.002 426h7v-14h-7v14zM910.002 384v-42l-7 -35h-14l-7 7h-7v-21l7 7h21l7 -42h7c0 20 7 34 21 42l-14 42v42h-14zM945.002 328l21 -14h7l-7 21l7 35h-7c-14 -4.66699 -21 -18.667 -21 -42zM1099 335v-28
h7v28h-7zM1386 342h7l14 -14v-7h-7l-14 14v7zM1190 321v-21h7l7 21h-14zM833.002 307v-21h7l7 21h-14zM1365 307l7 -7v-7l-14 -14l-7 7v7zM1393 300h14l7 -70v-7l-7 -7l7 -7v-105l7 -7l-7 -7v-91l-35 -7c-23.333 0 -35 4.66699 -35 14l-28 -14c-23.333 6 -35 13 -35 21
c23.333 0 35 7 35 21l28 -14l7 7v7l-7 105l14 28l-14 70l7 21h14l21 -14l7 35v21zM791.002 272v-14h7v14h-7zM1057 258l-7 -84l7 -7h7l14 77zM1274 251v-91l21 -21l14 21v21c-18.667 24.667 -28 48 -28 70h-7zM1015 244v-49h14v35zM910.002 230v-21
c0 -74.667 7 -112 21 -112l7 98c-6 23.333 -13 35 -21 35h-7zM1232 195l7 -63h7l14 14v35l-14 14h-14zM1379 188v-14h-7l7 -21h7l14 14v7l-14 14h-7zM833.002 153v-84h14v84h-14zM875.002 132v-21h7v21h-7zM875.002 90v-63h14v7l-7 28l7 21l-7 7h-7zM1246 55v-28h7l7 21
l-7 7h-7z" />
    <glyph glyph-name="Ccedilla" unicode="&#xc7;" horiz-adv-x="989" 
d="M522 1830l13.999 -20.999v-63h14v63l14 14c9.33301 0 14 -7 14 -21l7 -7h7c0 14 4.66699 21 14 21h7l14 -14l21 7c72.667 0 156.667 -63 252 -189c42 -78.667 63 -221 63 -427v-84l-7 -84h-42l-28 21c0 -14 -4.66699 -21 -14 -21l-14 14v63h7
c0 -18.667 9.33301 -30.334 28 -35.001l7 42l-7 84h-14c-3.33301 -56 -10.333 -84 -21 -84l-14 14h-7v-77l7 -7v-7l-7 -7h-28l-7 49c-8 0 -15 -16.333 -21 -49h-7l-7 7h-7l-21 -14l-28 14l-28 -7l-14 14l-21 -21l-35 21l-7 -7h-7l-14 21v84c0 256.667 -9.33301 385 -28 385
l-49 7c-37.333 0 -56 -46.667 -56 -140l-7 -105l7 -7v-7c-6.66699 -93.333 -13.667 -140 -21 -140l7 -21l7 -427v-119l7 -77l-7 -7v-7c0 -121.333 21 -182 63 -182v-21h14c0 18.667 14 28 42 28l21 245l14 14l-14 154l21 21v7l35 -7h7l7 7l21 -14l42 14h21
c23.333 -1.33301 35 -6 35 -14l7 7h21l7 -7l28 14c9.33301 -10.667 14 -27 14 -49h21l-7 35l21 14l14 -21v-49h14l14 70l28 -7l-7 -49v-28l14 -14l-14 -42l7 -42l-7 -28l7 -56c0 -83.333 -14 -148.666 -42 -195.999l7 -7v-7c-20.667 -62.667 -44 -100 -70 -112h-7v21h-21
v-56c-78.667 -79.333 -169.667 -119 -273 -119l-21 21v98l-14 14l-7 -7v-119h-7c-10.667 0 -17.667 11.667 -21 35h-7l-14 -42c-14 0 -21 7 -21 21l-7 -7h-7c-141.333 0 -248.666 84 -321.999 252c-23.333 98 -35 233.333 -35 406v252l7 63l-7 35l7 56l-7 7v7l7 28h-7l7 7
v112l-7 7l7 7v7l-7 35c4.66699 154 18.667 231 42 231l-7 7v7c10.667 42 20 63 28 63h7v-21h14v49c0 23.333 14 42 42 56c0 13.333 14 27.333 42 42c0 15.333 18.667 31.666 56 48.999h21l7 -28h7c0 37.333 16.333 56 49 56c0 9.33301 16.333 14 49 14v7l7 -7h7z
M311.999 1725v-28l14 -14v42h-14zM542.999 1718v-63h14v63h-14zM269.999 1697v-21h7v21h-7zM213.999 1683v-14l21 -21v21l-14 14h-7zM178.999 1620v-7l14 -14v35zM185.999 1585v-21h7v21h-7zM136.999 1508v-7h14v21zM227.999 1501l7 -7h7v21zM185.999 1508v-28l14 14z
M185.999 1459v-28l14 14zM689.999 1389v-14h7v14h-7zM374.999 1382v-14h14v14h-14zM101.999 1375v-21h14v7zM143.999 1354v-14h7v14h-7zM192.999 1347v-14h-7l7 -35v-112h14v126l-7 35h-7zM108.999 1291v-84c9.33301 0 14 7 14 21l-7 63h-7zM150.999 1284v-21l14 -14l7 7v14
l-14 14h-7zM157.999 1235v-49h7l7 42l-7 7h-7zM927.999 1228l-7 -77l7 -63l7 7h7l-7 7v7l7 21l-7 98h-7zM381.999 1214v-119l14 -14l7 21c0 74.667 -7 112 -21 112zM248.999 1200v-14h14v14h-14zM115.999 1193v-28h7v28h-7zM290.999 1186l-7 -7
c4.66699 -37.333 11.667 -56 21 -56v49zM248.999 1144v-42h7c9.33301 0 14 7 14 21l-7 21h-14zM157.999 1137v-63l14 -14v63zM115.999 1102v-98l14 -14v126zM297.999 1109l-7 -35l14 -14l7 7v28zM605.999 1102v-14h7v14h-7zM206.999 1088v-91l14 -14v14h7
c-3.33301 60.667 -10.333 91 -21 91zM248.999 1081v-7l7 -42l-7 -21c3.33301 -60.667 10.333 -91 21 -91v14l-7 147h-14zM164.999 1046v-105h14v14h-7l7 49v28zM388.999 1046v-7l7 -154l7 -7h7v35l-7 35l14 63l-14 35h-14zM346.999 1039v-42l7 -35h7v28l-7 49h-7z
M297.999 1025v-91l14 -14l7 98l-7 7h-14zM304.999 899.001v-35l7 -49h7v70zM402.999 864.001v-21h7v21h-7zM304.999 787.001v-7h14v21zM220.999 787.001v-21l14 -14v21zM178.999 759.001v-42h14v7l-7 35h-7zM220.999 724.001v-28h14v42zM136.999 696.001v-14l14 -14v14z
M87.999 675.001v-14h14v14h-14zM682.999 612.001v-56h14v56h-14zM773.999 598.001v-28h14v14zM906.999 598.001v-14h7v14h-7zM143.999 535.001v-7l14 -14l7 7v7l-7 7h-14zM276.999 535.001v-63h14v49zM101.999 514.001v-21h7v21h-7zM192.999 514.001v-28l14 14v14h-14z
M773.999 500.001v-28h21v14l-14 14h-7zM864.999 451.001v-14h7v14h-7zM234.999 423.001v-21h7v21h-7zM143.999 409.001v-14h7v14h-7zM689.999 290.001v-7h14v7h-14zM647.999 255.001v-70l14 -14v98zM507.999 248.001v-21h14v21h-14zM780.999 192.001v-14l14 -14l7 7v7
l-14 14h-7zM605.999 178.001v-42l21 7v28zM647.999 150.001l7 -49h7v56l-7 -7h-7zM556.999 150.001v-56l14 14v28zM332.999 108.001v-21h7v21h-7zM423.999 80.001v-35l14 14v7zM430.999 156.001l238 0.00195312v-147l7 -42c0 -176.667 -72.333 -300.334 -217 -371.001h-21
l-14 14v70c0 13.333 18.667 46 56 98l7 28c-42 7.33301 -63 16.666 -63 27.999l7 140h-7l7 7v7l-7 140z" />
    <glyph glyph-name="Egrave" unicode="&#xc8;" horiz-adv-x="1366" 
 />
    <glyph glyph-name="Eacute" unicode="&#xc9;" horiz-adv-x="757" 
d="M58 1733l91.001 0.000976562l7 -7l7 7h7l28 -7l49 7h308l-7 -35l21 -7v42h21l14 -14l28 14l7 -7h21l21 7v-7l7 -28v-294l-21 -21h-70l-21 14l-21 -14h-42c-9.33301 0 -14 7 -14 21l-7 7h-7l-7 -28h-42v-266l-7 -7l7 -7v-49l35 -7l7 7l7 -7h28l7 7l7 -7h28l7 7l7 -7h7
l70 7c18.667 -4.66699 28 -18.667 28 -42v-182c0 -9.33301 -9.33301 -14 -28 -14v-42l28 -35l-35 -28l-7 7h-28l-7 -7l-28 14l-28 -7l-14 14v7l7 28l-14 49h-14l7 -70v-14c0 -9.33301 -7 -14 -21 -14l-7 7h-7c-37.333 -10.667 -56 -31.667 -56 -63l7 -35l-7 -21l7 -84v-70
l7 -203l-14 -28l7 -7v-35h-14l-14 63c-11.333 0 -18.333 -9.33301 -21 -28c11.333 -32.667 20.666 -49 27.999 -49l21 7v-7l14 -28l35 14l21 -21l14 35c-9.33301 9.33301 -14 39.666 -14 90.999l-7 7h-7v-56l-7 -35h-7c-10 0 -19.333 49 -28 147l21 7l7 -7h7l56 7l7 -28h7
v21c14 0 21 -21 21 -63l21 7v49l14 14l14 -14l-7 -7v-7l14 -98l-14 -42l14 -56l-7 -70h-21v35h-14l7 -35c-14 0 -21 -9.33301 -21 -28c-9.33301 0 -14 -7 -14 -21l-35 -7h-259c-23.333 0 -35 4.66699 -35 14l-42 -14h-105l-21 21v238l-7 28l14 70l-7 7v28h7
c9.33301 0 14 -14 14 -42h7v140h-7l-7 -7h-7c0 23.333 -4.66699 35 -14 35c4.66699 51.333 11.667 77 21 77h14v28h-28v63l21 28l-14 70l7 7l-14 84v14h7l-7 84v259l14 42l-14 42v161l7 49h-7l7 7l-14 147l7 42l-7 7v7zM156.001 1712c0 -14 -4.66699 -21 -14 -21l-21 14
l-7 -7v-7l7 -7v-7l7 7h7l35 -7v35h-14zM289.001 1691v-28l7 -35h7l7 56l-7 7h-14zM646.001 1691v-21h7v21h-7zM380.001 1670v-14h7v14h-7zM471.001 1649v-56h14v42zM205.001 1600l7 -70v-49h14l-7 105v21l-7 -7h-7zM380.001 1600v-7l14 -14v21h-14zM429.001 1600v-21h14v7z
M562.001 1600v-49h14v35zM79.001 1593l-7 -84h7l-7 -21l7 -21h7l7 35h-7l7 7v7l-7 77h-7zM128.001 1537v-14h7v14h-7zM436.001 1509l-7 -7v-14l14 -14l7 7v14zM436.001 1460v-14h7v14h-7zM219.001 1418v-14h7v14h-7zM261.001 1418v-21l14 -14v35h-14zM79.001 1404v-28l14 14
zM401.001 1383v-28h7v28h-7zM79.001 1362v-42l7 -35h14v21l-14 21l7 28l-7 7h-7zM268.001 1320v-112l14 -14v112zM135.001 1306v-63h14v63h-14zM359.001 1299v-21h14v7zM408.001 1264l-7 -35l7 -7h7v42h-7zM142.001 1180v-21h7v21h-7zM142.001 1061v-14h14v14h-14z
M184.001 1040v-7h14v7h-14zM233.001 1040l-7 -7v-14h21v7zM324.001 1026v-14h7v14h-7zM408.001 1019v-49h14v49h-14zM275.001 1012l-7 -77l7 -21l21 21c-4.66699 51.333 -11.667 77 -21 77zM317.001 984.001l7 -42l-7 -21l7 -7h14l-7 84zM100.001 991.001l-7 -35l14 -14h7
v49h-14zM121.001 879.001h42.001l-7 49v49c-12.667 0 -24.334 -32.667 -35.001 -98zM184.002 935.001v-7l7 -49h14v14l-7 7l7 7v7l-7 21h-14zM233.002 914.001v-7l7 -35h7l7 21l-7 35zM275.002 900.001v-21l14 14l-7 7h-7zM324.002 893.001v-84l14 -119h7l7 21l-7 35l7 21
l-14 126h-14zM373.002 893.001v-7h14v7h-14zM457.002 872.001v-28h14v14zM555.002 865.001v-14h42v21h-7zM275.002 858.001v-14h14zM100.002 851.001v-14h14v14h-14zM149.002 851.001v-14h7v14h-7zM415.002 851.001v-7h14v7h-14zM240.002 795.001l-7 -21l7 -21h7l7 21l-7 21
h-7zM149.002 788.001v-14h14zM555.002 788.001v-21h7l14 14l-7 7h-14zM590.002 774.001l14 -14h14v28h-14zM282.002 781.001v-14h14v14h-14zM464.002 767.001l7 -7h7v21zM198.002 774.001v-14h7v14h-7zM471.002 753.001v-14h7v14h-7zM240.002 725.001v-35h7l14 14v14z
M198.002 697.001v-35l14 14v7zM156.002 676.001l-7 -21l14 -168v-63l14 -14v112l-7 42l7 28l-14 84h-7zM338.002 676.001l-7 -21l21 -14v21zM114.002 627.001v-7h14v21zM380.002 613.001l7 -70v-14h14v35l7 49l-7 7h-7l-7 -7h-7zM254.002 606.001v-42c9.33301 0 14 7 14 21
l-7 21h-7zM345.002 606.001v-21h7v21h-7zM114.002 592.001v-21l7 -42l-7 -7v-7l14 -84l-7 -42v-42h14v231l-14 14h-7zM254.002 550.001v-42h7l7 35l-7 7h-7zM345.002 529.001v-21h7v21h-7zM303.002 515.001v-7l-7 -77l7 -21h14v105h-14zM254.002 494.001v-112h14v7l7 63
c-6 28 -13 42 -21 42zM345.002 480.001l-7 -28l14 -133l-7 -42l7 -7h7v196zM387.002 459.001v-84l7 -49h7l7 28l-7 49v70zM65.002 452.001h7v-21h-7v21zM65.002 410.001h7v-14h-7v14zM205.002 368.001v-42l-7 -35h-14l-7 7h-7v-21l7 7h21l7 -42h7c0 20 7 34 21 42l-14 42v42
h-14zM240.002 312.001l21 -14h7l-7 21l7 35h-7c-14 -4.66699 -21 -18.667 -21 -42zM394.002 319.001v-28h7v28h-7zM681.002 326.001h7l14 -14v-7h-7l-14 14v7zM485.002 305.001v-21h7l7 21h-14zM128.002 291.001v-21h7l7 21h-14zM660.002 291.001l7 -7v-7l-14 -14l-7 7v7z
M688.002 284.001h14l7 -70v-7l-7 -7l7 -7v-105l7 -7l-7 -7v-91l-35 -7c-23.333 0 -35 4.66699 -35 14l-28 -14c-23.333 6 -35 13 -35 21c23.333 0 35 7 35 21l28 -14l7 7v7l-7 105l14 28l-14 70l7 21h14l21 -14l7 35v21zM86.002 256.001v-14h7v14h-7zM352.002 242.001
l-7 -84l7 -7h7l14 77zM569.002 235.001v-91l21 -21l14 21v21c-18.667 24.667 -28 48 -28 70h-7zM310.002 228.001v-49h14v35zM205.002 214.001v-21c0 -74.667 7 -112 21 -112l7 98c-6 23.333 -13 35 -21 35h-7zM527.002 179.001l7 -63h7l14 14v35l-14 14h-14z
M674.002 172.001v-14h-7l7 -21h7l14 14v7l-14 14h-7zM128.002 137.001v-84h14v84h-14zM170.002 116.001v-21h7v21h-7zM170.002 74.001v-63h14v7l-7 28l7 21l-7 7h-7zM541.002 39.001v-28h7l7 21l-7 7h-7zM598.002 2066l5 -7l-159 -238c-16 -37.333 -51.333 -56 -106 -56h-43
l-5 7c0 20 19.333 73.667 58 161c22 88.667 44.333 133 67 133h183z" />
    <glyph glyph-name="Ecircumflex" unicode="&#xca;" horiz-adv-x="1366" 
 />
    <glyph glyph-name="Edieresis" unicode="&#xcb;" horiz-adv-x="1366" 
 />
    <glyph glyph-name="Igrave" unicode="&#xcc;" horiz-adv-x="569" 
 />
    <glyph glyph-name="Iacute" unicode="&#xcd;" horiz-adv-x="569" 
 />
    <glyph glyph-name="Icircumflex" unicode="&#xce;" horiz-adv-x="569" 
 />
    <glyph glyph-name="Idieresis" unicode="&#xcf;" horiz-adv-x="569" 
 />
    <glyph glyph-name="Eth" unicode="&#xd0;" horiz-adv-x="1479" 
 />
    <glyph glyph-name="Ntilde" unicode="&#xd1;" horiz-adv-x="1065" 
d="M90 1728h160.999c9.33301 0 14 -7 14 -21h14v21h112l7 -35v-35c21.333 0 42.333 -63 63 -189l42 -126l-7 -21c17.333 -33.333 52.333 -157 105 -371h7v301l7 7l-7 7v196l7 42l-7 7v7c2.66699 26.667 9.66699 47.667 21 63v7h-14v77l21 63h21l7 -7l7 7h42l35 -7l42 7h14
l42 -7l28 7l21 -7l21 7l14 -28l-7 -28l7 -49l-7 -28l7 -49l-7 -49l7 -7l-7 -35v-77l7 -84l-21 -14l-7 7v-28l7 7h7l14 -21v-7l-7 -105l7 -49h-7l7 -7v-21h-7l7 -21l-7 -175v-532l7 -42l-7 -35v-7l7 -7l-7 -7l7 -189v-49l-14 -14l-7 7l-42 -14l-42 7l-77 -7h-35l-28 7l-28 -7
h-28c-32.667 0 -49 23.333 -49 70l-7 7v21h21v49h-14c0 -18.667 -4.66699 -28 -14 -28l-28 133l7 28c-24 0 -42.667 60.667 -56 182l-84 294h-14l7 -105v-581l-7 -7l7 -7v-35l-21 -21l-28 7l-84 -7h-161l-21 21v371l7 7l-7 7v119l-7 70h7l-7 21l7 21l-7 35
c2.66699 56 7.33398 84 14.001 84l-7 7v7l7 21l-7 84v287l-7 28l7 28v84l7 7l-7 7v329l7 7l-7 21zM173.999 1679v-49l14 -14h7v7l-7 56h-14zM306.999 1679v-21h14v7zM306.999 1623v-7l14 -14v21h-14zM222.999 1609v-42h14v42h-14zM222.999 1539v-21h14v21h-14zM264.999 1525
v-14h14v14h-14zM894.999 1518v-14h7v14h-7zM187.999 1511v-14h7v14h-7zM229.999 1504v-14h7v14h-7zM894.999 1476v-14h14v14h-14zM229.999 1462v-14h7v14h-7zM96.999 1434v-14h14v14h-14zM845.999 1357v-14h14v28zM397.999 1343l7 -7h14v21h-7zM264.999 1350v-7l14 -14l7 7
v14h-21zM362.999 1350l-7 -7v-7l7 -7h7l7 7v7l-7 7h-7zM894.999 1343v-28l14 -14v28zM845.999 1294l7 -35h14v42h-7l-7 -7h-7zM103.999 1287l-7 -7v-7l7 -7h7l7 7v7l-7 7h-7zM663.999 1287l14 -14h7v14h-21zM712.999 1273l-7 -42h14v42h-7zM187.999 1217v-14h7v14h-7z
M362.999 1210v-7h14v7h-14zM670.999 1210v-7h14v7h-14zM712.999 1189v-35h14v35h-14zM670.999 1168l7 -84h7l7 63l-7 21h-14zM502.999 1091v-21h21v21h-21zM110.999 1070v-42h14l-7 42h-7zM159.999 979v-21h7v21h-7zM418.999 951v-14h7v14h-7zM502.999 881l14 -14v28z
M726.999 874v-14l14 14h-14zM292.999 811v-21l-7 -49l7 -7h14v77h-14zM551.999 790v-49h14v49h-14zM642.999 790v-14h14v14h-14zM600.999 783v-21h21v14zM131.999 720v-14h14zM558.999 685v-21h7v21h-7zM600.999 657v-14h21v14h-21zM173.999 629v-28h7l14 14v14h-21z
M264.999 629v-21l14 14l-7 7h-7zM222.999 587v-21h7v21h-7zM747.999 524v-14h14zM831.999 524v-14h14v14h-14zM306.999 503v-21h21v21h-21zM222.999 496l-7 -7v-14h7l14 14l-7 7h-7zM656.999 482v-42l14 14v28h-14zM747.999 475v-14h14v14h-14zM663.999 391l-7 -49l7 -7h7
v56h-7zM789.999 391v-35h14v21zM880.999 384l-7 -6.99902v-14c0 -34.667 7 -53.334 21 -56.001v63zM572.999 377.001v-28h7v28h-7zM614.999 377.001v-21h14v7zM740.999 363.001c4.66699 -37.333 11.667 -56 21 -56h7v7l-7 28l7 21l-7 7h-7l-7 -7h-7zM523.999 335.001v-7
l7 -21h7v28h-14zM838.999 321.001l7 -28l-7 -21l7 -7h7c9.33301 0 14 7 14 21l-14 35h-14zM572.999 293.001v-35h14l-7 35h-7zM754.999 279.001v-21h14v21h-14zM887.999 258.001v-14h7v14h-7zM754.999 209.001v-56h14v56h-14zM614.999 132.001l7 -21h14v28h-7l-7 -7h-7z
M628.999 97.001v-14h21v7zM761.999 76.001v-63h14v63h-14zM278.999 69.001v-7h14v7h-14zM976.999 2202l6.99902 -6.99902v-252c0 -44 -67.667 -97.667 -203 -161l-56 -7c-50 0 -152.667 42 -308 126l-28 7h-35c-61.333 0 -133.666 -51.333 -216.999 -154h-21v252
c0 61.333 79.333 119.666 238 174.999h28c38.667 -0.666992 139 -42.667 301 -126l56 -14c56 0 135.333 53.667 238 161z" />
    <glyph glyph-name="Ograve" unicode="&#xd2;" horiz-adv-x="1593" 
 />
    <glyph glyph-name="Oacute" unicode="&#xd3;" horiz-adv-x="1593" 
 />
    <glyph glyph-name="Ocircumflex" unicode="&#xd4;" horiz-adv-x="1593" 
 />
    <glyph glyph-name="Otilde" unicode="&#xd5;" horiz-adv-x="1005" 
d="M462 1682c3.33301 -14 12.667 -23.333 28 -28c0 18.667 4.66699 28 14 28h7l7 -7l7 7h14c120 0 215.667 -49 287 -147c70 -70 105 -175 105 -315l7 -21l-7 -28l7 -133v-77l7 -280l-7 -49h7l-7 -7v-28l7 -7l-7 -7v-35c0 -270.667 -14 -406 -42 -406
c0 -49.333 -28 -103 -84 -161h-21c-8 0 -15 11.667 -21 35l7 21l-7 49h-14v-14h-7l7 -70v-56l-49 -35l-14 -14h-7v21h-7l-14 -35h-14l-7 49h-14v-21l-7 -35h-21v14l-7 49l7 7l-7 7h-7c0 -46.667 -7 -79.334 -21 -98.001l-28 14l-14 -14h-7l-28 7l-7 -7
c-112.667 12.667 -192 36 -238 70c-116.667 106.667 -175 223.334 -175 350.001l14 35l-14 49l7 56c0 23.333 -4.66699 35 -14 35l7 7v7l-7 252l7 56l-7 77v322c10.667 0 20 7 28 21l7 7c0 14 -7 21 -21 21v7l14 14l-7 49v28c0 128 70 235.333 210 322
c59.333 28 115.333 42 168 42zM476.001 1493l14 -14v28zM343.001 1465v-21l14 14l-7 7h-7zM616.001 1395v-14h7v14h-7zM441.001 1304v-322l7 -7l-7 -7v-98l-14 -21v-14h14l7 -189l-14 -42l7 -63v-7l-7 -35l7 -42l-7 -35l7 -77v-42l-7 -28c11.333 -84 32.333 -126 63 -126
c37.333 0 58.333 28 63 84l7 -7h14v28h-7l-7 -7h-7l-7 7v7l14 140l-7 7v7l7 7v7l-7 21l14 70l-14 21l7 42l-7 378v364l7 -7h14l7 21l-7 35h-14v-28h-7c-9.33301 0 -16.333 14 -21 42h-21l-7 -7l-21 7c-32.667 -21.333 -49 -49.333 -49 -84zM287.001 1374
c4.66699 -28 11.667 -42 21 -42v28l-14 14h-7zM343.001 1325v-21h14v7zM210.001 1269v-35h14v35h-14zM161.001 1220v-21l7 -35h14v56h-21zM252.001 1220v-56h7l14 14v28l-14 14h-7zM119.001 1192l7 -7h7v21zM343.001 1185v-14l14 -14v28h-14zM210.001 1150l-7 -35l7 -7h14
v42h-14zM392.001 1136v-49h14v49h-14zM168.001 1108v-7l7 -28l-7 -21l7 -7h7v49zM217.001 1003v-7h14v7h-14zM588.001 989v-14h14v14h-14zM98.001 905l-7 -7v-7l14 -14l14 14v7zM630.001 891v-14h14v14h-14zM98.001 856v-14h7v14h-7zM413.001 849v-14h7v14h-7zM679.001 835
v-28l14 14zM364.001 800v-28h14v14zM322.001 793v-133h7l7 7h7l-7 84v42h-14zM679.001 786v-42h14v7l-7 35h-7zM217.001 702v-21h7l14 14v14zM140.001 653v-14h7v14h-7zM147.001 527v-14h14v14h-14zM651.001 527v-21l14 14l-7 7h-7zM693.001 499v-21l14 -14v35h-14z
M826.001 492v-7l14 -14v21h-14zM609.001 478v-28h7v28h-7zM105.001 457v-14h7v14h-7zM112.001 310v-35l14 14v7zM203.001 296v-14h14v14h-14zM203.001 254l14 -14v28zM112.001 261v-42l14 -14v42zM574.001 177v-21h7v21h-7zM574.001 128v-7l14 -14l7 7v7zM441.001 107v-28
l14 -14v42h-14zM532.001 107v-14l14 -14v14zM707.001 100v-14h7v14h-7zM672.001 44v-14h14v14h-14zM532.001 16v-7l14 -14v35zM581.001 16v-35h14v35h-14zM539.001 -19l-7 -70l7 -28h7l7 35l-7 35l7 21l-7 7h-7zM934.001 2024l7.00098 -5v-119c0 -66 -18.667 -107 -56 -123
l-98 -47h-28l-7 5h-7c0 -13.333 -7 -20 -21 -20h-8v20h-14c0 -17.333 -4.66699 -26 -14 -26h-7c-9.33301 0 -14 7 -14 21h-7l-7 -21l-301 98l-28 6c-50 0 -127.333 -34.667 -232 -104c0 -10 -4.66699 -15 -14 -15h-7l7 26l-7 15l14 31l-14 21l7 20l-7 31l7 36l-7 6l21 15
l-7 16c91.333 65.333 173.333 98 246 98c40.667 0 152.667 -34.667 336 -104h35c53.333 0 130.666 39.667 231.999 119zM695.002 1777v-16h14l7 16h-21zM695.002 1756v-16h21v16h-21zM745.002 1756v-16h14v16h-14z" />
    <glyph glyph-name="Odieresis" unicode="&#xd6;" horiz-adv-x="1005" 
d="M442 1474c3.33301 -14 12.667 -23.333 28 -28c0 18.667 4.66699 28 14 28h7l7 -7l7 7h14c120 0 215.667 -49 287 -147c70 -70 105 -175 105 -315l7 -21l-7 -28l7 -133v-77l7 -280l-7 -49h7l-7 -7v-28l7 -7l-7 -7v-35c0 -270.667 -14 -406 -42 -406
c0 -49.333 -28 -103 -84 -161h-21c-8 0 -15 11.667 -21 35l7 21l-7 49h-14v-14h-7l7 -70v-56l-49 -35l-14 -14h-7v21h-7l-14 -35h-14l-7 49h-14v-21l-7 -35h-21v14l-7 49l7 7l-7 7h-7c0 -46.667 -7 -79.334 -21 -98.001l-28 14l-14 -14h-7l-28 7l-7 -7
c-112.667 12.667 -192 36 -238 70c-116.667 106.667 -175 223.334 -175 350.001l14 35l-14 49l7 56c0 23.333 -4.66699 35 -14 35l7 7v7l-7 252l7 56l-7 77v322c10.667 0 20 7 28 21l7 7c0 14 -7 21 -21 21v7l14 14l-7 49v28c0 128 70 235.333 210 322
c59.333 28 115.333 42 168 42zM456.001 1285l14 -14v28zM323.001 1257v-21l14 14l-7 7h-7zM596.001 1187v-14h7v14h-7zM421.001 1096v-322l7 -7l-7 -7v-98l-14 -21v-14h14l7 -189l-14 -42l7 -63v-7l-7 -35l7 -42l-7 -35l7 -77v-42l-7 -28c11.333 -84 32.333 -126 63 -126
c37.333 0 58.333 28 63 84l7 -7h14v28h-7l-7 -7h-7l-7 7v7l14 140l-7 7v7l7 7v7l-7 21l14 70l-14 21l7 42l-7 378v364l7 -7h14l7 21l-7 35h-14v-28h-7c-9.33301 0 -16.333 14 -21 42h-21l-7 -7l-21 7c-32.667 -21.333 -49 -49.333 -49 -84zM267.001 1166
c4.66699 -28 11.667 -42 21 -42v28l-14 14h-7zM323.001 1117v-21h14v7zM190.001 1061v-35h14v35h-14zM141.001 1012v-21l7 -35h14v56h-21zM232.001 1012v-56h7l14 14v28l-14 14h-7zM99.001 984l7 -7h7v21zM323.001 977v-14l14 -14v28h-14zM190.001 942l-7 -35l7 -7h14v42
h-14zM372.001 928v-49h14v49h-14zM148.001 900v-7l7 -28l-7 -21l7 -7h7v49zM197.001 795v-7h14v7h-14zM568.001 781v-14h14v14h-14zM78.001 697l-7 -7v-7l14 -14l14 14v7zM610.001 683v-14h14v14h-14zM78.001 648v-14h7v14h-7zM393.001 641v-14h7v14h-7zM659.001 627v-28
l14 14zM344.001 592v-28h14v14zM302.001 585v-133h7l7 7h7l-7 84v42h-14zM659.001 578v-42h14v7l-7 35h-7zM197.001 494v-21h7l14 14v14zM120.001 445v-14h7v14h-7zM127.001 319v-14h14v14h-14zM631.001 319v-21l14 14l-7 7h-7zM673.001 291v-21l14 -14v35h-14zM806.001 284
v-7l14 -14v21h-14zM589.001 270v-28h7v28h-7zM85.001 249v-14h7v14h-7zM92.001 102v-35l14 14v7zM183.001 88v-14h14v14h-14zM183.001 46l14 -14v28zM92.001 53v-42l14 -14v42zM554.001 -31v-21h7v21h-7zM554.001 -80v-7l14 -14l7 7v7zM421.001 -101v-28l14 -14v42h-14z
M512.001 -101v-14l14 -14v14zM687.001 -108v-14h7v14h-7zM652.001 -164v-14h14v14h-14zM512.001 -192v-7l14 -14v35zM561.001 -192v-35h14v35h-14zM519.001 -227l-7 -70l7 -28h7l7 35l-7 35l7 21l-7 7h-7zM256.001 1955h252l7 -35v-301l-21 -21h-7
c-23.333 0 -35 4.66699 -35 14l-42 -14h-14l-28 28v56h-14v-77l-35 -7h-63l-21 21v315zM601.001 1967h252l7 -35v-301l-21 -21h-7c-23.333 0 -35 4.66699 -35 14l-42 -14h-14l-28 28v56h-14v-77l-35 -7h-63l-21 21v315z" />
    <glyph glyph-name="multiply" unicode="&#xd7;" horiz-adv-x="1196" 
 />
    <glyph glyph-name="Oslash" unicode="&#xd8;" horiz-adv-x="1005" 
d="M462 1682c3.33301 -14 12.667 -23.333 28 -28c0 18.667 4.66699 28 14 28h7l7 -7l7 7h14c120 0 215.667 -49 287 -147c70 -70 105 -175 105 -315l7 -21l-7 -28l7 -133v-77l7 -280l-7 -49h7l-7 -7v-28l7 -7l-7 -7v-35c0 -270.667 -14 -406 -42 -406
c0 -49.333 -28 -103 -84 -161h-21c-8 0 -15 11.667 -21 35l7 21l-7 49h-14v-14h-7l7 -70v-56l-49 -35l-14 -14h-7v21h-7l-14 -35h-14l-7 49h-14v-21l-7 -35h-21v14l-7 49l7 7l-7 7h-7c0 -46.667 -7 -79.334 -21 -98.001l-28 14l-14 -14h-7l-28 7l-7 -7
c-112.667 12.667 -192 36 -238 70c-116.667 106.667 -175 223.334 -175 350.001l14 35l-14 49l7 56c0 23.333 -4.66699 35 -14 35l7 7v7l-7 252l7 56l-7 77v322c10.667 0 20 7 28 21l7 7c0 14 -7 21 -21 21v7l14 14l-7 49v28c0 128 70 235.333 210 322
c59.333 28 115.333 42 168 42zM476.001 1493l14 -14v28zM343.001 1465v-21l14 14l-7 7h-7zM616.001 1395v-14h7v14h-7zM441.001 1304v-322l7 -7l-7 -7v-98l-14 -21v-14h14l7 -189l-14 -42l7 -63v-7l-7 -35l7 -42l-7 -35l7 -77v-42l-7 -28c11.333 -84 32.333 -126 63 -126
c37.333 0 58.333 28 63 84l7 -7h14v28h-7l-7 -7h-7l-7 7v7l14 140l-7 7v7l7 7v7l-7 21l14 70l-14 21l7 42l-7 378v364l7 -7h14l7 21l-7 35h-14v-28h-7c-9.33301 0 -16.333 14 -21 42h-21l-7 -7l-21 7c-32.667 -21.333 -49 -49.333 -49 -84zM287.001 1374
c4.66699 -28 11.667 -42 21 -42v28l-14 14h-7zM343.001 1325v-21h14v7zM210.001 1269v-35h14v35h-14zM161.001 1220v-21l7 -35h14v56h-21zM252.001 1220v-56h7l14 14v28l-14 14h-7zM119.001 1192l7 -7h7v21zM343.001 1185v-14l14 -14v28h-14zM210.001 1150l-7 -35l7 -7h14
v42h-14zM392.001 1136v-49h14v49h-14zM168.001 1108v-7l7 -28l-7 -21l7 -7h7v49zM217.001 1003v-7h14v7h-14zM588.001 989v-14h14v14h-14zM98.001 905l-7 -7v-7l14 -14l14 14v7zM630.001 891v-14h14v14h-14zM98.001 856v-14h7v14h-7zM413.001 849v-14h7v14h-7zM679.001 835
v-28l14 14zM364.001 800v-28h14v14zM322.001 793v-133h7l7 7h7l-7 84v42h-14zM679.001 786v-42h14v7l-7 35h-7zM217.001 702v-21h7l14 14v14zM140.001 653v-14h7v14h-7zM147.001 527v-14h14v14h-14zM651.001 527v-21l14 14l-7 7h-7zM693.001 499v-21l14 -14v35h-14z
M826.001 492v-7l14 -14v21h-14zM609.001 478v-28h7v28h-7zM105.001 457v-14h7v14h-7zM112.001 310v-35l14 14v7zM203.001 296v-14h14v14h-14zM203.001 254l14 -14v28zM112.001 261v-42l14 -14v42zM574.001 177v-21h7v21h-7zM574.001 128v-7l14 -14l7 7v7zM441.001 107v-28
l14 -14v42h-14zM532.001 107v-14l14 -14v14zM707.001 100v-14h7v14h-7zM672.001 44v-14h14v14h-14zM532.001 16v-7l14 -14v35zM581.001 16v-35h14v35h-14zM539.001 -19l-7 -70l7 -28h7l7 35l-7 35l7 21l-7 7h-7zM349.001 1699c52 -150 231.669 -758.333 539.002 -1825
l-8 -15l-162 -8l-21 6c-14.667 34 -126.334 412.333 -335.001 1135l4 7v7c-12.667 17.333 -20.334 38.333 -23.001 63l-7 57c-12 -0.666992 -70 187.333 -174 564l55 9l41 -5l5 1l4 7l16 -6l20 8z" />
    <glyph glyph-name="Ugrave" unicode="&#xd9;" horiz-adv-x="1479" 
 />
    <glyph glyph-name="Uacute" unicode="&#xda;" horiz-adv-x="1479" 
 />
    <glyph glyph-name="Ucircumflex" unicode="&#xdb;" horiz-adv-x="1479" 
 />
    </font>
</defs>
</svg>
